<?xml version="1.0" standalone="no"?>
<!DOCTYPE svg PUBLIC "-//W3C//DTD SVG 1.1//EN" "http://www.w3.org/Graphics/SVG/1.1/DTD/svg11.dtd" >
<svg xmlns="http://www.w3.org/2000/svg" xmlns:xlink="http://www.w3.org/1999/xlink" version="1.1">
<metadata>
Created by FontForge 20170731 at Fri Aug  6 10:15:40 2021
 By Aleksey,,,
Copyright 2015 The El Messiri Project Authors (https://github.com/Gue3bara/El-Messiri)
</metadata>
<defs>
<font id="ElMessiri-Bold" horiz-adv-x="0" >
  <font-face 
    font-family="El Messiri"
    font-weight="700"
    font-stretch="normal"
    units-per-em="1000"
    panose-1="0 0 0 0 0 0 0 0 0 0"
    ascent="800"
    descent="-200"
    x-height="470"
    cap-height="660"
    bbox="-166 -543.524 1424 1019.68"
    underline-thickness="50"
    underline-position="-175"
    unicode-range="U+000D-FEFC"
  />
<missing-glyph horiz-adv-x="500" 
d="M50 0v700h398l2 -700h-400zM100 50h300v600h-300v-600z" />
    <glyph glyph-name="uniFEF5" unicode="&#xfedf;&#xfe82;" horiz-adv-x="681" arabic-form="isolated" 
d="M98 0q-17 0 -32.5 13t-15.5 40t15.5 40t34.5 13h320q23 0 37.5 13t21.5 33.5t7 40.5v320q0 36 -9 52t-20 21t-17 8q0 9 7.5 24.5t25 28.5t46.5 13q30 0 51.5 -15.5t33.5 -42.5t12 -62v-347q0 -55 -25.5 -99t-69.5 -69t-101 -25h-322zM210 106v266q0 36 -9 52t-20 21
t-17 8q0 9 7.5 24.5t25 28.5t46.5 13q30 0 51.5 -15.5t33.5 -42.5t12 -62v-293h-130zM302 570q-31 0 -55 10.5t-45.5 20.5t-45.5 10q-21 0 -28.5 -7.5t-18.5 -7.5q-13 0 -14.5 12.5t7.5 29.5t29.5 29.5t50.5 12.5q27 0 53.5 -9t50.5 -18.5t45 -9.5q15 0 23.5 5t14 9.5
t11.5 4.5q11 0 13 -14t-6 -32t-29 -32t-56 -14z" />
    <glyph glyph-name="uniFEF6" unicode="&#xfee0;&#xfe82;" horiz-adv-x="733" arabic-form="final" 
d="M682 0q-56 0 -100.5 25t-70 69t-25.5 99h130q0 -20 7 -40.5t22 -33.5t37 -13h51v-106h-51zM98 0q-17 0 -32.5 13t-15.5 40t15.5 40t34.5 13h320q23 0 37.5 13t21.5 33.5t7 40.5v320q0 36 -9 52t-20 21t-17 8q0 9 7.5 24.5t25 28.5t46.5 13q30 0 51.5 -15.5t33.5 -42.5
t12 -62v-347q0 -55 -25.5 -99t-69.5 -69t-101 -25h-322zM210 106v266q0 36 -9 52t-20 21t-17 8q0 9 7.5 24.5t25 28.5t46.5 13q30 0 51.5 -15.5t33.5 -42.5t12 -62v-293h-130zM733 0v106q11 0 15.5 -14.5t4.5 -38.5t-4.5 -38.5t-15.5 -14.5zM302 570q-31 0 -55 10.5
t-45.5 20.5t-45.5 10q-21 0 -28.5 -7.5t-18.5 -7.5q-13 0 -14.5 12.5t7.5 29.5t29.5 29.5t50.5 12.5q27 0 53.5 -9t50.5 -18.5t45 -9.5q15 0 23.5 5t14 9.5t11.5 4.5q11 0 13 -14t-6 -32t-29 -32t-56 -14z" />
    <glyph glyph-name="uniFEF7" unicode="&#xfedf;&#xfe84;" horiz-adv-x="681" arabic-form="isolated" 
d="M98 0q-17 0 -32.5 13t-15.5 40t15.5 40t34.5 13h320q23 0 37.5 13t21.5 33.5t7 40.5v320q0 36 -9 52t-20 21t-17 8q0 9 7.5 24.5t25 28.5t46.5 13q30 0 51.5 -15.5t33.5 -42.5t12 -62v-347q0 -55 -25.5 -99t-69.5 -69t-101 -25h-322zM210 106v266q0 36 -9 52t-20 21
t-17 8q0 9 7.5 24.5t25 28.5t46.5 13q30 0 51.5 -15.5t33.5 -42.5t12 -62v-293h-130zM166 561q-12 3 -19.5 14t-6.5 24t13 22.5t39 9.5q-13 6 -27 23.5t-14 42.5q0 21 11 43.5t34.5 38t61.5 15.5q20 0 35 -5.5t23.5 -16.5t8.5 -29q0 -19 -9.5 -26.5t-22.5 -7t-26 5.5
q1 12 -4.5 25t-21.5 13q-6 -7 -12.5 -19.5t-6.5 -26.5q0 -15 8 -29t23 -23.5t35 -9.5q12 0 22 2.5t17 2.5q15 0 20 -13.5t0.5 -27t-16.5 -14.5q-4 0 -22 -1t-42 -3t-47 -6t-38.5 -10t-15.5 -14z" />
    <glyph glyph-name="uniFEF8" unicode="&#xfee0;&#xfe84;" horiz-adv-x="733" arabic-form="final" 
d="M682 0q-56 0 -100.5 25t-70 69t-25.5 99h130q0 -20 7 -40.5t22 -33.5t37 -13h51v-106h-51zM98 0q-17 0 -32.5 13t-15.5 40t15.5 40t34.5 13h320q23 0 37.5 13t21.5 33.5t7 40.5v320q0 36 -9 52t-20 21t-17 8q0 9 7.5 24.5t25 28.5t46.5 13q30 0 51.5 -15.5t33.5 -42.5
t12 -62v-347q0 -55 -25.5 -99t-69.5 -69t-101 -25h-322zM210 106v266q0 36 -9 52t-20 21t-17 8q0 9 7.5 24.5t25 28.5t46.5 13q30 0 51.5 -15.5t33.5 -42.5t12 -62v-293h-130zM733 0v106q11 0 15.5 -14.5t4.5 -38.5t-4.5 -38.5t-15.5 -14.5zM166 561q-12 3 -19.5 14t-6.5 24
t13 22.5t39 9.5q-13 6 -27 23.5t-14 42.5q0 21 11 43.5t34.5 38t61.5 15.5q20 0 35 -5.5t23.5 -16.5t8.5 -29q0 -19 -9.5 -26.5t-22.5 -7t-26 5.5q1 12 -4.5 25t-21.5 13q-6 -7 -12.5 -19.5t-6.5 -26.5q0 -15 8 -29t23 -23.5t35 -9.5q12 0 22 2.5t17 2.5q15 0 20 -13.5
t0.5 -27t-16.5 -14.5q-4 0 -22 -1t-42 -3t-47 -6t-38.5 -10t-15.5 -14z" />
    <glyph glyph-name="uniFEF9" unicode="&#xfedf;&#xfe88;" horiz-adv-x="681" arabic-form="isolated" 
d="M98 0q-17 0 -32.5 13t-15.5 40t15.5 40t34.5 13h320q23 0 37.5 13t21.5 33.5t7 40.5v320q0 36 -9 52t-20 21t-17 8q0 9 7.5 24.5t25 28.5t46.5 13q30 0 51.5 -15.5t33.5 -42.5t12 -62v-347q0 -55 -25.5 -99t-69.5 -69t-101 -25h-322zM210 106v266q0 36 -9 52t-20 21
t-17 8q0 9 7.5 24.5t25 28.5t46.5 13q30 0 51.5 -15.5t33.5 -42.5t12 -62v-293h-130zM165 -294q-12 3 -19.5 14t-6.5 24t13 22.5t39 9.5q-13 6 -27 23.5t-14 42.5q0 20 11 43t35 38.5t62 15.5q20 0 35 -5t23.5 -16.5t8.5 -29.5q0 -19 -9.5 -26.5t-22.5 -7t-26 5.5
q1 12 -4.5 25t-21.5 13q-7 -7 -13.5 -19.5t-6.5 -26.5q0 -15 8 -29t23.5 -23.5t35.5 -9.5q12 0 22 2.5t17 2.5q15 0 20 -13.5t0.5 -27t-16.5 -14.5q-4 0 -22 -1t-42 -3t-47.5 -6t-39 -10t-15.5 -14z" />
    <glyph glyph-name="uniFEFA" unicode="&#xfee0;&#xfe88;" horiz-adv-x="733" arabic-form="final" 
d="M682 0q-56 0 -100.5 25t-70 69t-25.5 99h130q0 -20 7 -40.5t22 -33.5t37 -13h51v-106h-51zM98 0q-17 0 -32.5 13t-15.5 40t15.5 40t34.5 13h320q23 0 37.5 13t21.5 33.5t7 40.5v320q0 36 -9 52t-20 21t-17 8q0 9 7.5 24.5t25 28.5t46.5 13q30 0 51.5 -15.5t33.5 -42.5
t12 -62v-347q0 -55 -25.5 -99t-69.5 -69t-101 -25h-322zM210 106v266q0 36 -9 52t-20 21t-17 8q0 9 7.5 24.5t25 28.5t46.5 13q30 0 51.5 -15.5t33.5 -42.5t12 -62v-293h-130zM733 0v106q11 0 15.5 -14.5t4.5 -38.5t-4.5 -38.5t-15.5 -14.5zM165 -294q-12 3 -19.5 14
t-6.5 24t13 22.5t39 9.5q-13 6 -27 23.5t-14 42.5q0 20 11 43t35 38.5t62 15.5q20 0 35 -5t23.5 -16.5t8.5 -29.5q0 -19 -9.5 -26.5t-22.5 -7t-26 5.5q1 12 -4.5 25t-21.5 13q-7 -7 -13.5 -19.5t-6.5 -26.5q0 -15 8 -29t23.5 -23.5t35.5 -9.5q12 0 22 2.5t17 2.5
q15 0 20 -13.5t0.5 -27t-16.5 -14.5q-4 0 -22 -1t-42 -3t-47.5 -6t-39 -10t-15.5 -14z" />
    <glyph glyph-name="uniFEFB" unicode="&#xfedf;&#xfe8e;" horiz-adv-x="681" arabic-form="isolated" 
d="M98 0q-17 0 -32.5 13t-15.5 40t15.5 40t34.5 13h320q23 0 37.5 13t21.5 33.5t7 40.5v320q0 36 -9 52t-20 21t-17 8q0 9 7.5 24.5t25 28.5t46.5 13q30 0 51.5 -15.5t33.5 -42.5t12 -62v-347q0 -55 -25.5 -99t-69.5 -69t-101 -25h-322zM210 106v266q0 36 -9 52t-20 21
t-17 8q0 9 7.5 24.5t25 28.5t46.5 13q30 0 51.5 -15.5t33.5 -42.5t12 -62v-293h-130z" />
    <glyph glyph-name="uniFEFC" unicode="&#xfee0;&#xfe8e;" horiz-adv-x="733" arabic-form="final" 
d="M682 0q-56 0 -100.5 25t-70 69t-25.5 99h130q0 -20 7 -40.5t22 -33.5t37 -13h51v-106h-51zM98 0q-17 0 -32.5 13t-15.5 40t15.5 40t34.5 13h320q23 0 37.5 13t21.5 33.5t7 40.5v320q0 36 -9 52t-20 21t-17 8q0 9 7.5 24.5t25 28.5t46.5 13q30 0 51.5 -15.5t33.5 -42.5
t12 -62v-347q0 -55 -25.5 -99t-69.5 -69t-101 -25h-322zM210 106v266q0 36 -9 52t-20 21t-17 8q0 9 7.5 24.5t25 28.5t46.5 13q30 0 51.5 -15.5t33.5 -42.5t12 -62v-293h-130zM733 0v106q11 0 15.5 -14.5t4.5 -38.5t-4.5 -38.5t-15.5 -14.5z" />
    <glyph glyph-name="lam_alefWaslaar" unicode="&#xfedf;&#xfb51;" horiz-adv-x="681" 
d="M98 0q-17 0 -32.5 13t-15.5 40t15.5 40t34.5 13h320q23 0 37.5 13t21.5 33.5t7 40.5v320q0 36 -9 52t-20 21t-17 8q0 9 7.5 24.5t25 28.5t46.5 13q30 0 51.5 -15.5t33.5 -42.5t12 -62v-347q0 -55 -25.5 -99t-69.5 -69t-101 -25h-322zM210 106v266q0 36 -9 52t-20 21
t-17 8q0 9 7.5 24.5t25 28.5t46.5 13q30 0 51.5 -15.5t33.5 -42.5t12 -62v-293h-130zM143 570q-6 0 -8 11.5t0 23t8 11.5h22q0 3 6.5 17.5t19.5 32t34 30.5t50 13q16 0 34.5 -6t31.5 -21.5t13 -45.5q0 -38 -21 -52t-43 -14h-147zM187 616h90q13 0 17.5 9.5t4.5 17.5
q0 15 -11 24t-28 9q-18 0 -35 -10t-27.5 -24t-10.5 -26z" />
    <glyph glyph-name="lam_alefWaslaar.fina" unicode="&#xfee0;&#xfb51;" horiz-adv-x="733" 
d="M682 0q-56 0 -100.5 25t-70 69t-25.5 99h130q0 -20 7 -40.5t22 -33.5t37 -13h51v-106h-51zM98 0q-17 0 -32.5 13t-15.5 40t15.5 40t34.5 13h320q23 0 37.5 13t21.5 33.5t7 40.5v320q0 36 -9 52t-20 21t-17 8q0 9 7.5 24.5t25 28.5t46.5 13q30 0 51.5 -15.5t33.5 -42.5
t12 -62v-347q0 -55 -25.5 -99t-69.5 -69t-101 -25h-322zM210 106v266q0 36 -9 52t-20 21t-17 8q0 9 7.5 24.5t25 28.5t46.5 13q30 0 51.5 -15.5t33.5 -42.5t12 -62v-293h-130zM733 0v106q11 0 15.5 -14.5t4.5 -38.5t-4.5 -38.5t-15.5 -14.5zM143 570q-6 0 -8 11.5t0 23
t8 11.5h22q0 3 6.5 17.5t19.5 32t34 30.5t50 13q16 0 34.5 -6t31.5 -21.5t13 -45.5q0 -38 -21 -52t-43 -14h-147zM187 616h90q13 0 17.5 9.5t4.5 17.5q0 15 -11 24t-28 9q-18 0 -35 -10t-27.5 -24t-10.5 -26z" />
    <glyph glyph-name="uni066E.init" unicode="&#x66e;" horiz-adv-x="356" 
d="M0 0v106h92q11 0 21 6t19 17.5t15.5 30t10 44t3.5 57.5q0 49 -8.5 78t-23.5 47t-36 33q0 11 8.5 25t26 25t42.5 11q31 0 54 -18t37.5 -48.5t22 -70t7.5 -83.5q0 -121 -52 -190.5t-147 -69.5h-92zM0 0q-10 0 -15 14.5t-5 38.5t5 38.5t15 14.5v-106z" />
    <glyph glyph-name="uni066E.medi" unicode="&#x66e;" horiz-adv-x="364" 
d="M0 0v106h51q23 0 37.5 13t21.5 33.5t7 40.5v221q0 23 14 44.5t51 21.5t51 -21.5t14 -44.5v-221q0 -55 -25.5 -99t-69.5 -69t-101 -25h-51zM313 0q-56 0 -100.5 25t-70 69t-25.5 99h130q0 -20 7 -40.5t22 -33.5t37 -13h51v-106h-51zM364 0v106q11 0 15.5 -14.5t4.5 -38.5
t-4.5 -38.5t-15.5 -14.5zM0 0q-10 0 -15 14.5t-5 38.5t5 38.5t15 14.5v-106z" />
    <glyph glyph-name="uni066E.fina" unicode="&#x66e;" horiz-adv-x="860" 
d="M829 0q-56 0 -100.5 25t-70 69t-25.5 99h130q0 -20 7 -40.5t22 -33.5t37 -13h31v-106h-31zM264 0q-94 0 -146.5 69.5t-52.5 190.5q0 44 7.5 83.5t22 70t37.5 48.5t54 18q26 0 43 -11t25.5 -25t8.5 -25q-20 -15 -35.5 -33t-24 -47t-8.5 -78q0 -32 3.5 -57.5t10 -44
t15.5 -30t19 -17.5t21 -6h303q23 0 37.5 13t21.5 33.5t7 40.5v172q0 25 14 46.5t51 21.5t51 -21.5t14 -46.5v-172q0 -55 -25.5 -99t-69.5 -69t-101 -25h-303zM860 0v106q11 0 15.5 -14.5t4.5 -38.5t-4.5 -38.5t-15.5 -14.5z" />
    <glyph glyph-name="uni066F.init" unicode="&#x66f;" horiz-adv-x="537" 
d="M0 0v106h272q34 0 52 21t18 61v181q-7 2 -20 3.5t-28 1.5q-52 0 -78 -31t-26 -102q0 -64 23.5 -97t69.5 -38l-13 -105q-58 6 -105.5 33.5t-76 79t-28.5 127.5q0 113 63.5 176t170.5 63q79 0 128.5 -31.5t49.5 -79.5v-181q0 -54 -25.5 -96.5t-70.5 -67t-104 -24.5h-272z
M0 0q-10 0 -15 14.5t-5 38.5t5 38.5t15 14.5v-106z" />
    <glyph glyph-name="uni066F.medi" unicode="&#x66f;" horiz-adv-x="589" 
d="M538 0q-56 0 -100.5 25t-70 69t-25.5 99h130q0 -20 7 -40.5t22 -33.5t37 -13h51v-106h-51zM0 0v106h272q34 0 52 21t18 61v181q-7 2 -20 3.5t-28 1.5q-52 0 -78 -31t-26 -102q0 -64 23.5 -97t69.5 -38l-13 -105q-58 6 -105.5 33.5t-76 79t-28.5 127.5q0 113 63.5 176
t170.5 63q79 0 128.5 -31.5t49.5 -79.5v-181q0 -54 -25.5 -96.5t-70.5 -67t-104 -24.5h-272zM0 0q-10 0 -15 14.5t-5 38.5t5 38.5t15 14.5v-106zM589 0v106q11 0 15.5 -14.5t4.5 -38.5t-4.5 -38.5t-15.5 -14.5z" />
    <glyph glyph-name="uni066F.fina" unicode="&#x66f;" horiz-adv-x="975" 
d="M833 0v106h142v-106h-142zM489 -236q-85 0 -153.5 18t-117 52.5t-74.5 85t-26 115.5q0 34 7.5 69t22.5 64.5t38 47.5t54 18q25 0 42 -11t25.5 -25t8.5 -25q-14 -10 -30 -26.5t-27 -43.5t-11 -69q0 -59 26 -95.5t75.5 -52.5t118.5 -16q65 0 111 12t75 33t42.5 48.5
t13.5 58.5l30 -22h-88q-58 0 -105.5 28.5t-76 82.5t-28.5 130q0 113 63.5 176t170.5 63q79 0 128.5 -31.5t49.5 -79.5v-273q0 -94 -28 -158t-77.5 -102.5t-116 -55t-143.5 -16.5zM724 92v277q-7 2 -20 3.5t-27 1.5q-52 0 -78.5 -31t-26.5 -101q0 -66 23.5 -101t69.5 -35h67z
M975 0v106q11 0 15.5 -14.5t4.5 -38.5t-4.5 -38.5t-15.5 -14.5z" />
    <glyph glyph-name="uni06A1.init" unicode="&#x6a1;" horiz-adv-x="537" 
d="M0 0v106h272q34 0 52 21t18 61v181q-7 2 -20 3.5t-28 1.5q-52 0 -78 -31t-26 -102q0 -64 23.5 -97t69.5 -38l-13 -105q-58 6 -105.5 33.5t-76 79t-28.5 127.5q0 113 63.5 176t170.5 63q79 0 128.5 -31.5t49.5 -79.5v-181q0 -54 -25.5 -96.5t-70.5 -67t-104 -24.5h-272z
M0 0q-10 0 -15 14.5t-5 38.5t5 38.5t15 14.5v-106z" />
    <glyph glyph-name="uni06A1.medi" unicode="&#x6a1;" horiz-adv-x="589" 
d="M538 0q-56 0 -100.5 25t-70 69t-25.5 99h130q0 -20 7 -40.5t22 -33.5t37 -13h51v-106h-51zM0 0v106h272q34 0 52 21t18 61v181q-7 2 -20 3.5t-28 1.5q-52 0 -78 -31t-26 -102q0 -64 23.5 -97t69.5 -38l-13 -105q-58 6 -105.5 33.5t-76 79t-28.5 127.5q0 113 63.5 176
t170.5 63q79 0 128.5 -31.5t49.5 -79.5v-181q0 -54 -25.5 -96.5t-70.5 -67t-104 -24.5h-272zM0 0q-10 0 -15 14.5t-5 38.5t5 38.5t15 14.5v-106zM589 0v106q11 0 15.5 -14.5t4.5 -38.5t-4.5 -38.5t-15.5 -14.5z" />
    <glyph glyph-name="uni06A1.fina" unicode="&#x6a1;" horiz-adv-x="1038" 
d="M987 0q-56 0 -100.5 25t-70 69t-25.5 99h130q0 -20 7 -40.5t22 -33.5t37 -13h51v-106h-51zM267 0q-68 0 -113 25t-67 73.5t-22 118.5t18.5 110t47 56.5t58.5 16.5q39 0 57 -19.5t19 -38.5q-14 -7 -30.5 -25.5t-28 -48.5t-11.5 -73q0 -26 6.5 -43t17 -27t23.5 -14.5
t27 -4.5h452q34 0 52 21t18 61v181q-7 2 -20 3.5t-28 1.5q-52 0 -78 -31t-26 -102q0 -64 23.5 -97t69.5 -38l-13 -105q-58 6 -105.5 33.5t-76 79t-28.5 127.5q0 113 63.5 176t170.5 63q79 0 128.5 -31.5t49.5 -79.5v-181q0 -54 -25.5 -96.5t-70.5 -67t-104 -24.5h-454z
M1038 0v106q11 0 15.5 -14.5t4.5 -38.5t-4.5 -38.5t-15.5 -14.5z" />
    <glyph glyph-name="uni06BA.init" unicode="&#x6ba;" horiz-adv-x="356" 
d="M0 0v106h92q11 0 21 6t19 17.5t15.5 30t10 44t3.5 57.5q0 49 -8.5 78t-23.5 47t-36 33q0 11 8.5 25t26 25t42.5 11q31 0 54 -18t37.5 -48.5t22 -70t7.5 -83.5q0 -121 -52 -190.5t-147 -69.5h-92zM0 0q-10 0 -15 14.5t-5 38.5t5 38.5t15 14.5v-106z" />
    <glyph glyph-name="uni06BA.medi" unicode="&#x6ba;" horiz-adv-x="364" 
d="M0 0v106h51q23 0 37.5 13t21.5 33.5t7 40.5v221q0 23 14 44.5t51 21.5t51 -21.5t14 -44.5v-221q0 -55 -25.5 -99t-69.5 -69t-101 -25h-51zM313 0q-56 0 -100.5 25t-70 69t-25.5 99h130q0 -20 7 -40.5t22 -33.5t37 -13h51v-106h-51zM364 0v106q11 0 15.5 -14.5t4.5 -38.5
t-4.5 -38.5t-15.5 -14.5zM0 0q-10 0 -15 14.5t-5 38.5t5 38.5t15 14.5v-106z" />
    <glyph glyph-name="uni06C2.init" unicode="&#x6c2;" horiz-adv-x="356" 
d="M0 0v106h92q11 0 21 6t19 17.5t15.5 30t10 44t3.5 57.5q0 49 -8.5 78t-23.5 47t-36 33q0 11 8.5 25t26 25t42.5 11q31 0 54 -18t37.5 -48.5t22 -70t7.5 -83.5q0 -121 -52 -190.5t-147 -69.5h-92zM0 0q-10 0 -15 14.5t-5 38.5t5 38.5t15 14.5v-106zM97 -203
q-33 0 -49.5 24t-16.5 54q0 57 25.5 102.5t89.5 87.5l18 -24q-16 -11 -35.5 -29t-33 -42t-13.5 -54l15 3q29 0 45 -17t16 -44t-16 -44t-45 -17zM97 546q-12 3 -19.5 14t-6.5 24t13 22.5t39 9.5q-13 6 -27 23.5t-14 42.5q0 21 11 43.5t34.5 38t61.5 15.5q20 0 35 -5.5
t23.5 -16.5t8.5 -29q0 -19 -9.5 -26.5t-22.5 -7t-26 5.5q1 12 -4.5 25t-21.5 13q-6 -7 -12.5 -19.5t-6.5 -26.5q0 -15 8 -29t23 -23.5t35 -9.5q12 0 22 2.5t17 2.5q15 0 20 -13.5t0.5 -27t-16.5 -14.5q-4 0 -22 -1t-42 -3t-47 -6t-38.5 -10t-15.5 -14z" />
    <glyph glyph-name="uni06C2.medi" unicode="&#x6c2;" horiz-adv-x="494" 
d="M393 -246q-34 0 -81 5t-96 21t-89 48t-61 85t-11 132l42 -45h-97v105h98q23 0 34.5 -14t13.5 -34q2 -15 3.5 -42.5t10 -57.5t31 -54.5t65.5 -36t114 -0.5l-59 -50v242q0 20 14 33.5t33 13.5h136v-105h-98l45 45v-243q0 -20 -14 -34t-34 -14zM0 0q-10 0 -15 14.5t-5 38.5
t5 38.5t15 14.5v-106zM494 0v106q11 0 15.5 -14.5t4.5 -38.5t-4.5 -38.5t-15.5 -14.5zM160 362q-12 3 -19.5 14t-6.5 24t13 22.5t39 9.5q-13 6 -27 23.5t-14 42.5q0 21 11 43.5t34.5 38t61.5 15.5q20 0 35 -5.5t23.5 -16.5t8.5 -29q0 -19 -9.5 -26.5t-22.5 -7t-26 5.5
q1 12 -4.5 25t-21.5 13q-6 -7 -12.5 -19.5t-6.5 -26.5q0 -15 8 -29t23 -23.5t35 -9.5q12 0 22 2.5t17 2.5q15 0 20 -13.5t0.5 -27t-16.5 -14.5q-4 0 -22 -1t-42 -3t-47 -6t-38.5 -10t-15.5 -14z" />
    <glyph glyph-name="uni06C2.fina" unicode="&#x6c2;" horiz-adv-x="535" 
d="M270 0q-58 0 -106 28.5t-76 82.5t-28 130q0 113 63.5 176t170.5 63q79 0 128.5 -31.5t49.5 -79.5v-369h-130v369q-7 2 -20 3.5t-28 1.5q-52 0 -78 -31t-26 -102q0 -64 23.5 -99.5t69.5 -35.5h252v-106h-265zM535 0v106q11 0 15.5 -14.5t4.5 -38.5t-4.5 -38.5t-15.5 -14.5
zM190 536q-12 3 -19.5 14t-6.5 24t13 22.5t39 9.5q-13 6 -27 23.5t-14 42.5q0 21 11 43.5t34.5 38t61.5 15.5q20 0 35 -5.5t23.5 -16.5t8.5 -29q0 -19 -9.5 -26.5t-22.5 -7t-26 5.5q1 12 -4.5 25t-21.5 13q-6 -7 -12.5 -19.5t-6.5 -26.5q0 -15 8 -29t23 -23.5t35 -9.5
q12 0 22 2.5t17 2.5q15 0 20 -13.5t0.5 -27t-16.5 -14.5q-4 0 -22 -1t-42 -3t-47 -6t-38.5 -10t-15.5 -14z" />
    <glyph glyph-name="uni06C3.fina" unicode="&#x6c3;" horiz-adv-x="669" 
d="M65 0q0 101 31 193.5t91 165t146.5 115t198.5 42.5q11 0 19 -8.5t8 -20.5v-381h108v-106h-238v487l103 -77q-78 0 -140 -31.5t-106 -87.5t-67.5 -130.5t-23.5 -160.5h-130zM667 0v106q11 0 15.5 -14.5t4.5 -38.5t-4.5 -38.5t-15.5 -14.5zM495 550q-26 0 -45.5 19
t-19.5 46t19.5 46t45.5 19q28 0 46.5 -19t18.5 -46t-18.5 -46t-46.5 -19zM333 550q-26 0 -45.5 19t-19.5 46t19.5 46t45.5 19q27 0 46 -19t19 -46t-19 -46t-46 -19z" />
    <glyph glyph-name="uniFB51" unicode="&#x671;" horiz-adv-x="319" arabic-form="final" 
d="M292 0q-56 0 -100.5 25t-70 69t-25.5 99v258q0 36 -9 52t-20 21t-17 8q0 8 7.5 24t25 29t47.5 13q29 0 50.5 -15.5t33.5 -42.5t12 -62v-285q0 -20 7 -40.5t22 -33.5t37 -13h27v-106h-27zM319 0v106q11 0 15.5 -14.5t4.5 -38.5t-4.5 -38.5t-15.5 -14.5zM29 640
q-6 0 -8 11.5t0 23t8 11.5h22q0 3 6.5 17.5t19.5 32t34 30.5t50 13q16 0 34.5 -6t31.5 -21.5t13 -45.5q0 -38 -21 -52t-43 -14h-147zM73 686h90q13 0 17.5 9.5t4.5 17.5q0 15 -11 24t-28 9q-18 0 -35 -10t-27.5 -24t-10.5 -26z" />
    <glyph glyph-name="uniFB57" unicode="&#x67e;" horiz-adv-x="860" arabic-form="final" 
d="M829 0q-56 0 -100.5 25t-70 69t-25.5 99h130q0 -20 7 -40.5t22 -33.5t37 -13h31v-106h-31zM264 0q-94 0 -146.5 69.5t-52.5 190.5q0 44 7.5 83.5t22 70t37.5 48.5t54 18q26 0 43 -11t25.5 -25t8.5 -25q-20 -15 -35.5 -33t-24 -47t-8.5 -78q0 -32 3.5 -57.5t10 -44
t15.5 -30t19 -17.5t21 -6h303q23 0 37.5 13t21.5 33.5t7 40.5v172q0 25 14 46.5t51 21.5t51 -21.5t14 -46.5v-172q0 -55 -25.5 -99t-69.5 -69t-101 -25h-303zM860 0v106q11 0 15.5 -14.5t4.5 -38.5t-4.5 -38.5t-15.5 -14.5zM495 -210q-26 0 -45.5 19t-19.5 46t19.5 46
t45.5 19q28 0 46.5 -19t18.5 -46t-18.5 -46t-46.5 -19zM414 -349q-26 0 -43 17t-17 43q0 25 17 42.5t43 17.5q25 0 42.5 -17.5t17.5 -42.5q0 -26 -17.5 -43t-42.5 -17zM333 -210q-26 0 -45.5 19t-19.5 46t19.5 46t45.5 19q27 0 46 -19t19 -46t-19 -46t-46 -19z" />
    <glyph glyph-name="uniFB58" unicode="&#x67e;" horiz-adv-x="356" arabic-form="initial" 
d="M0 0v106h92q11 0 21 6t19 17.5t15.5 30t10 44t3.5 57.5q0 49 -8.5 78t-23.5 47t-36 33q0 11 8.5 25t26 25t42.5 11q31 0 54 -18t37.5 -48.5t22 -70t7.5 -83.5q0 -121 -52 -190.5t-147 -69.5h-92zM0 0q-10 0 -15 14.5t-5 38.5t5 38.5t15 14.5v-106zM251 -210
q-26 0 -45.5 19t-19.5 46t19.5 46t45.5 19q28 0 46.5 -19t18.5 -46t-18.5 -46t-46.5 -19zM170 -349q-26 0 -43 17t-17 43q0 25 17 42.5t43 17.5q25 0 42.5 -17.5t17.5 -42.5q0 -26 -17.5 -43t-42.5 -17zM89 -210q-26 0 -45.5 19t-19.5 46t19.5 46t45.5 19q27 0 46 -19
t19 -46t-19 -46t-46 -19z" />
    <glyph glyph-name="uniFB59" unicode="&#x67e;" horiz-adv-x="364" arabic-form="medial" 
d="M0 0v106h51q23 0 37.5 13t21.5 33.5t7 40.5v221q0 23 14 44.5t51 21.5t51 -21.5t14 -44.5v-221q0 -55 -25.5 -99t-69.5 -69t-101 -25h-51zM313 0q-56 0 -100.5 25t-70 69t-25.5 99h130q0 -20 7 -40.5t22 -33.5t37 -13h51v-106h-51zM364 0v106q11 0 15.5 -14.5t4.5 -38.5
t-4.5 -38.5t-15.5 -14.5zM0 0q-10 0 -15 14.5t-5 38.5t5 38.5t15 14.5v-106zM263 -210q-26 0 -45.5 19t-19.5 46t19.5 46t45.5 19q28 0 46.5 -19t18.5 -46t-18.5 -46t-46.5 -19zM182 -349q-26 0 -43 17t-17 43q0 25 17 42.5t43 17.5q25 0 42.5 -17.5t17.5 -42.5
q0 -26 -17.5 -43t-42.5 -17zM101 -210q-26 0 -45.5 19t-19.5 46t19.5 46t45.5 19q27 0 46 -19t19 -46t-19 -46t-46 -19z" />
    <glyph glyph-name="uniFB67" unicode="&#x679;" horiz-adv-x="860" arabic-form="final" 
d="M829 0q-56 0 -100.5 25t-70 69t-25.5 99h130q0 -20 7 -40.5t22 -33.5t37 -13h31v-106h-31zM264 0q-94 0 -146.5 69.5t-52.5 190.5q0 44 7.5 83.5t22 70t37.5 48.5t54 18q26 0 43 -11t25.5 -25t8.5 -25q-20 -15 -35.5 -33t-24 -47t-8.5 -78q0 -32 3.5 -57.5t10 -44
t15.5 -30t19 -17.5t21 -6h303q23 0 37.5 13t21.5 33.5t7 40.5v172q0 25 14 46.5t51 21.5t51 -21.5t14 -46.5v-172q0 -55 -25.5 -99t-69.5 -69t-101 -25h-303zM860 0v106q11 0 15.5 -14.5t4.5 -38.5t-4.5 -38.5t-15.5 -14.5zM310 500q-6 0 -8 11.5t0 23t8 11.5h10v126
q0 10 -4 15t-8 6q-1 6 3.5 12t17.5 6q17 0 21.5 -11t4.5 -26v-88q13 20 35.5 36.5t56.5 16.5q16 0 34.5 -6t31.5 -21.5t13 -45.5q0 -38 -21 -52t-43 -14h-152zM358 546h91q13 0 17.5 9.5t4.5 17.5q0 15 -11 24t-28 9q-19 0 -36 -10t-27.5 -24t-10.5 -26z" />
    <glyph glyph-name="uniFB68" unicode="&#x679;" horiz-adv-x="356" arabic-form="initial" 
d="M0 0v106h92q11 0 21 6t19 17.5t15.5 30t10 44t3.5 57.5q0 49 -8.5 78t-23.5 47t-36 33q0 11 8.5 25t26 25t42.5 11q31 0 54 -18t37.5 -48.5t22 -70t7.5 -83.5q0 -121 -52 -190.5t-147 -69.5h-92zM0 0q-10 0 -15 14.5t-5 38.5t5 38.5t15 14.5v-106zM66 545q-6 0 -8 11.5
t0 23t8 11.5h10v126q0 10 -4 15t-8 6q-1 6 3.5 12t17.5 6q17 0 21.5 -11t4.5 -26v-88q13 20 35.5 36.5t56.5 16.5q16 0 34.5 -6t31.5 -21.5t13 -45.5q0 -38 -21 -52t-43 -14h-152zM114 591h91q13 0 17.5 9.5t4.5 17.5q0 15 -11 24t-28 9q-19 0 -36 -10t-27.5 -24t-10.5 -26z
" />
    <glyph glyph-name="uniFB69" unicode="&#x679;" horiz-adv-x="364" arabic-form="medial" 
d="M0 0v106h51q23 0 37.5 13t21.5 33.5t7 40.5v221q0 23 14 44.5t51 21.5t51 -21.5t14 -44.5v-221q0 -55 -25.5 -99t-69.5 -69t-101 -25h-51zM313 0q-56 0 -100.5 25t-70 69t-25.5 99h130q0 -20 7 -40.5t22 -33.5t37 -13h51v-106h-51zM364 0v106q11 0 15.5 -14.5t4.5 -38.5
t-4.5 -38.5t-15.5 -14.5zM0 0q-10 0 -15 14.5t-5 38.5t5 38.5t15 14.5v-106zM78 545q-6 0 -8 11.5t0 23t8 11.5h10v126q0 10 -4 15t-8 6q-1 6 3.5 12t17.5 6q17 0 21.5 -11t4.5 -26v-88q13 20 35.5 36.5t56.5 16.5q16 0 34.5 -6t31.5 -21.5t13 -45.5q0 -38 -21 -52t-43 -14
h-152zM126 591h91q13 0 17.5 9.5t4.5 17.5q0 15 -11 24t-28 9q-19 0 -36 -10t-27.5 -24t-10.5 -26z" />
    <glyph glyph-name="uniFB6B" unicode="&#x6a4;" horiz-adv-x="1038" arabic-form="final" 
d="M987 0q-56 0 -100.5 25t-70 69t-25.5 99h130q0 -20 7 -40.5t22 -33.5t37 -13h51v-106h-51zM267 0q-68 0 -113 25t-67 73.5t-22 118.5t18.5 110t47 56.5t58.5 16.5q39 0 57 -19.5t19 -38.5q-14 -7 -30.5 -25.5t-28 -48.5t-11.5 -73q0 -26 6.5 -43t17 -27t23.5 -14.5
t27 -4.5h452q34 0 52 21t18 61v181q-7 2 -20 3.5t-28 1.5q-52 0 -78 -31t-26 -102q0 -64 23.5 -97t69.5 -38l-13 -105q-58 6 -105.5 33.5t-76 79t-28.5 127.5q0 113 63.5 176t170.5 63q79 0 128.5 -31.5t49.5 -79.5v-181q0 -54 -25.5 -96.5t-70.5 -67t-104 -24.5h-454z
M1038 0v106q11 0 15.5 -14.5t4.5 -38.5t-4.5 -38.5t-15.5 -14.5zM824 545q-26 0 -45.5 19t-19.5 46t19.5 46t45.5 19q28 0 46.5 -19t18.5 -46t-18.5 -46t-46.5 -19zM662 545q-26 0 -45.5 19t-19.5 46t19.5 46t45.5 19q27 0 46 -19t19 -46t-19 -46t-46 -19zM743 694
q-26 0 -43 17.5t-17 42.5q0 26 17 43t43 17q25 0 42.5 -17t17.5 -42q0 -26 -17.5 -43.5t-42.5 -17.5z" />
    <glyph glyph-name="uniFB6C" unicode="&#x6a4;" horiz-adv-x="537" arabic-form="initial" 
d="M0 0v106h272q34 0 52 21t18 61v181q-7 2 -20 3.5t-28 1.5q-52 0 -78 -31t-26 -102q0 -64 23.5 -97t69.5 -38l-13 -105q-58 6 -105.5 33.5t-76 79t-28.5 127.5q0 113 63.5 176t170.5 63q79 0 128.5 -31.5t49.5 -79.5v-181q0 -54 -25.5 -96.5t-70.5 -67t-104 -24.5h-272z
M0 0q-10 0 -15 14.5t-5 38.5t5 38.5t15 14.5v-106zM375 545q-26 0 -45.5 19t-19.5 46t19.5 46t45.5 19q28 0 46.5 -19t18.5 -46t-18.5 -46t-46.5 -19zM213 545q-26 0 -45.5 19t-19.5 46t19.5 46t45.5 19q27 0 46 -19t19 -46t-19 -46t-46 -19zM294 694q-26 0 -43 17.5
t-17 42.5q0 26 17 43t43 17q25 0 42.5 -17t17.5 -42q0 -26 -17.5 -43.5t-42.5 -17.5z" />
    <glyph glyph-name="uniFB6D" unicode="&#x6a4;" horiz-adv-x="589" arabic-form="medial" 
d="M538 0q-56 0 -100.5 25t-70 69t-25.5 99h130q0 -20 7 -40.5t22 -33.5t37 -13h51v-106h-51zM0 0v106h272q34 0 52 21t18 61v181q-7 2 -20 3.5t-28 1.5q-52 0 -78 -31t-26 -102q0 -64 23.5 -97t69.5 -38l-13 -105q-58 6 -105.5 33.5t-76 79t-28.5 127.5q0 113 63.5 176
t170.5 63q79 0 128.5 -31.5t49.5 -79.5v-181q0 -54 -25.5 -96.5t-70.5 -67t-104 -24.5h-272zM0 0q-10 0 -15 14.5t-5 38.5t5 38.5t15 14.5v-106zM589 0v106q11 0 15.5 -14.5t4.5 -38.5t-4.5 -38.5t-15.5 -14.5zM375 545q-26 0 -45.5 19t-19.5 46t19.5 46t45.5 19
q28 0 46.5 -19t18.5 -46t-18.5 -46t-46.5 -19zM213 545q-26 0 -45.5 19t-19.5 46t19.5 46t45.5 19q27 0 46 -19t19 -46t-19 -46t-46 -19zM294 694q-26 0 -43 17.5t-17 42.5q0 26 17 43t43 17q25 0 42.5 -17t17.5 -42q0 -26 -17.5 -43.5t-42.5 -17.5z" />
    <glyph glyph-name="uniFB7B" unicode="&#x686;" horiz-adv-x="721" arabic-form="final" 
d="M670 0q-56 0 -100.5 25t-70 69t-25.5 99v16h130v-16q0 -20 7 -40.5t22 -33.5t37 -13h51v-106h-51zM184 -266q-31 0 -54 18t-37.5 48.5t-22 70.5t-7.5 83q0 80 36 116t103 36h206q32 0 49 23t17 79q0 83 -40 124.5t-121 41.5h-31t-38 -0.5t-32 -0.5q-33 0 -54 15.5
t-31.5 40.5t-10.5 51q0 21 8.5 29.5t16.5 7.5q5 -16 25 -27.5t60 -11.5q10 0 28 0.5t35.5 1t23.5 0.5q78 0 133 -22.5t90 -61.5t51.5 -87.5t16.5 -100.5q0 -75 -29 -121t-74 -66.5t-93 -20.5h-255l49 37q-4 -16 -6.5 -37t-2.5 -47q0 -49 8.5 -78t24 -46.5t35.5 -33.5
q0 -10 -8.5 -24.5t-25.5 -25.5t-43 -11zM721 0v106q11 0 15.5 -14.5t4.5 -38.5t-4.5 -38.5t-15.5 -14.5zM483 -183q-26 0 -45.5 19t-19.5 46t19.5 46t45.5 19q28 0 46.5 -19t18.5 -46t-18.5 -46t-46.5 -19zM402 -322q-26 0 -43 17t-17 43q0 25 17 42.5t43 17.5
q25 0 42.5 -17.5t17.5 -42.5q0 -26 -17.5 -43t-42.5 -17zM321 -183q-26 0 -45.5 19t-19.5 46t19.5 46t45.5 19q27 0 46 -19t19 -46t-19 -46t-46 -19z" />
    <glyph glyph-name="uniFB7C" unicode="&#x686;" horiz-adv-x="576" arabic-form="initial" 
d="M0 0v106h315q32 0 49 23t17 79q0 83 -40 124.5t-121 41.5h-31t-38 -0.5t-32 -0.5q-33 0 -54 15.5t-31.5 40.5t-10.5 51q0 21 8.5 29.5t16.5 7.5q5 -16 25 -27.5t60 -11.5q10 0 28 0.5t35.5 1t23.5 0.5q78 0 133 -22.5t90 -61.5t51.5 -87.5t16.5 -100.5q0 -75 -29 -121
t-74 -66.5t-93 -20.5h-315zM0 0q-10 0 -15 14.5t-5 38.5t5 38.5t15 14.5v-106zM318 -210q-26 0 -45.5 19t-19.5 46t19.5 46t45.5 19q28 0 46.5 -19t18.5 -46t-18.5 -46t-46.5 -19zM237 -349q-26 0 -43 17t-17 43q0 25 17 42.5t43 17.5q25 0 42.5 -17.5t17.5 -42.5
q0 -26 -17.5 -43t-42.5 -17zM156 -210q-26 0 -45.5 19t-19.5 46t19.5 46t45.5 19q27 0 46 -19t19 -46t-19 -46t-46 -19z" />
    <glyph glyph-name="uniFB7D" unicode="&#x686;" horiz-adv-x="628" arabic-form="medial" 
d="M577 0q-56 0 -100.5 25t-70 69t-25.5 99v16h130v-16q0 -20 7 -40.5t22 -33.5t37 -13h51v-106h-51zM0 0v106h315q32 0 49 23t17 79q0 83 -40 124.5t-121 41.5h-31t-38 -0.5t-32 -0.5q-33 0 -54 15.5t-31.5 40.5t-10.5 51q0 21 8.5 29.5t16.5 7.5q5 -16 25 -27.5t60 -11.5
q10 0 28 0.5t35.5 1t23.5 0.5q78 0 133 -22.5t90 -61.5t51.5 -87.5t16.5 -100.5q0 -75 -29 -121t-74 -66.5t-93 -20.5h-315zM0 0q-10 0 -15 14.5t-5 38.5t5 38.5t15 14.5v-106zM628 0v106q11 0 15.5 -14.5t4.5 -38.5t-4.5 -38.5t-15.5 -14.5zM318 -210q-26 0 -45.5 19
t-19.5 46t19.5 46t45.5 19q28 0 46.5 -19t18.5 -46t-18.5 -46t-46.5 -19zM237 -349q-26 0 -43 17t-17 43q0 25 17 42.5t43 17.5q25 0 42.5 -17.5t17.5 -42.5q0 -26 -17.5 -43t-42.5 -17zM156 -210q-26 0 -45.5 19t-19.5 46t19.5 46t45.5 19q27 0 46 -19t19 -46t-19 -46
t-46 -19z" />
    <glyph glyph-name="uniFB89" unicode="&#x688;" horiz-adv-x="569" arabic-form="final" 
d="M518 0q-56 0 -100.5 25t-70 69t-25.5 99v44h130v-44q0 -20 7 -40.5t22 -33.5t37 -13h51v-106h-51zM121 0q-20 0 -38 11.5t-18 41.5t18 41.5t38 11.5h96q51 0 78 35.5t27 98.5q0 47 -12.5 77t-30 47t-32.5 24l18 -4q-10 4 -25.5 -2t-28 -24t-12.5 -51q-11 -4 -29.5 -9
t-33.5 -5q-26 0 -48.5 18t-22.5 56q0 35 20 57.5t48.5 34.5t55.5 16.5t41 4.5q27 0 64 -13t73.5 -41.5t60.5 -75t24 -114.5q0 -78 -33.5 -130.5t-87 -79t-114.5 -26.5h-96zM569 0v106q11 0 15.5 -14.5t4.5 -38.5t-4.5 -38.5t-15.5 -14.5zM126 545q-6 0 -8 11.5t0 23t8 11.5
h10v126q0 10 -4 15t-8 6q-1 6 3.5 12t17.5 6q17 0 21.5 -11t4.5 -26v-88q13 20 35.5 36.5t56.5 16.5q16 0 34.5 -6t31.5 -21.5t13 -45.5q0 -38 -21 -52t-43 -14h-152zM174 591h91q13 0 17.5 9.5t4.5 17.5q0 15 -11 24t-28 9q-19 0 -36 -10t-27.5 -24t-10.5 -26z" />
    <glyph glyph-name="uniFB8B" unicode="&#x698;" horiz-adv-x="321" arabic-form="final" 
d="M218 0v106h103v-106h-103zM96 -229q-25 0 -42 11t-25.5 25.5t-8.5 24.5q21 16 36 36t23.5 51.5t8.5 80.5v418q0 29 18.5 45.5t46.5 16.5q29 0 47 -16.5t18 -45.5v-418q0 -44 -7.5 -85t-22 -73.5t-37.5 -51.5t-55 -19zM321 0v106q11 0 15.5 -14.5t4.5 -38.5t-4.5 -38.5
t-15.5 -14.5zM234 545q-26 0 -45.5 19t-19.5 46t19.5 46t45.5 19q28 0 46.5 -19t18.5 -46t-18.5 -46t-46.5 -19zM72 545q-26 0 -45.5 19t-19.5 46t19.5 46t45.5 19q27 0 46 -19t19 -46t-19 -46t-46 -19zM153 694q-26 0 -43 17.5t-17 42.5q0 26 17 43t43 17q25 0 42.5 -17
t17.5 -42q0 -26 -17.5 -43.5t-42.5 -17.5z" />
    <glyph glyph-name="uniFB8D" unicode="&#x691;" horiz-adv-x="321" arabic-form="final" 
d="M218 0v106h103v-106h-103zM96 -229q-25 0 -42 11t-25.5 25.5t-8.5 24.5q21 16 36 36t23.5 51.5t8.5 80.5v418q0 29 18.5 45.5t46.5 16.5q29 0 47 -16.5t18 -45.5v-418q0 -44 -7.5 -85t-22 -73.5t-37.5 -51.5t-55 -19zM321 0v106q11 0 15.5 -14.5t4.5 -38.5t-4.5 -38.5
t-15.5 -14.5zM49 545q-6 0 -8 11.5t0 23t8 11.5h10v126q0 10 -4 15t-8 6q-1 6 3.5 12t17.5 6q17 0 21.5 -11t4.5 -26v-88q13 20 35.5 36.5t56.5 16.5q16 0 34.5 -6t31.5 -21.5t13 -45.5q0 -38 -21 -52t-43 -14h-152zM97 591h91q13 0 17.5 9.5t4.5 17.5q0 15 -11 24t-28 9
q-19 0 -36 -10t-27.5 -24t-10.5 -26z" />
    <glyph glyph-name="uniFB8F" unicode="&#x6a9;" horiz-adv-x="877" arabic-form="final" 
d="M826 0q-53 0 -95 22t-68.5 61t-31.5 89l129 18q1 -30 17 -57t49 -27h51v-106h-51zM195 0q-44 0 -73 22.5t-43 58.5t-14 79v93q0 23 14 44.5t51 21.5t51 -21.5t14 -46.5v-81q0 -32 11.5 -48t31.5 -16h345q19 0 33.5 15t14.5 49q0 35 -14.5 50.5t-33.5 15.5h-105
q-62 0 -113 22.5t-81.5 62t-30.5 89.5q0 51 30.5 90.5t81.5 62t113 22.5h152q44 0 68 13.5t36 23.5q3 -19 -1.5 -43t-17 -47t-33.5 -38t-52 -15h-152q-42 0 -68.5 -19.5t-26.5 -49.5q0 -29 26.5 -48.5t68.5 -19.5h125q47 0 82.5 -22.5t55.5 -61t20 -88.5q0 -49 -20 -87.5
t-55.5 -60.5t-82.5 -22h-408zM877 0v106q11 0 15.5 -14.5t4.5 -38.5t-4.5 -38.5t-15.5 -14.5z" />
    <glyph glyph-name="uniFB90" unicode="&#x6a9;" horiz-adv-x="656" arabic-form="initial" 
d="M0 0v106h392q19 0 33.5 15t14.5 49q0 35 -14.5 50.5t-33.5 15.5h-155q-62 0 -113 22.5t-81.5 62t-30.5 89.5q0 51 30.5 90.5t81.5 62t113 22.5h202q44 0 68 13.5t36 23.5q3 -19 -1.5 -43t-17 -47t-33.5 -38t-52 -15h-202q-42 0 -68.5 -19.5t-26.5 -49.5q0 -29 26.5 -48.5
t68.5 -19.5h175q47 0 82.5 -22.5t55.5 -61t20 -88.5q0 -49 -20 -87.5t-55.5 -60.5t-82.5 -22h-412zM0 0q-10 0 -15 14.5t-5 38.5t5 38.5t15 14.5v-106z" />
    <glyph glyph-name="uniFB91" unicode="&#x6a9;" horiz-adv-x="686" arabic-form="medial" 
d="M635 0q-53 0 -95 22t-68.5 61t-31.5 89l129 18q1 -30 17 -57t49 -27h51v-106h-51zM0 0v106h392q19 0 33.5 15t14.5 49q0 35 -14.5 50.5t-33.5 15.5h-155q-62 0 -113 22.5t-81.5 62t-30.5 89.5q0 51 30.5 90.5t81.5 62t113 22.5h202q44 0 68 13.5t36 23.5q3 -19 -1.5 -43
t-17 -47t-33.5 -38t-52 -15h-202q-42 0 -68.5 -19.5t-26.5 -49.5q0 -29 26.5 -48.5t68.5 -19.5h175q47 0 82.5 -22.5t55.5 -61t20 -88.5q0 -49 -20 -87.5t-55.5 -60.5t-82.5 -22h-412zM0 0q-10 0 -15 14.5t-5 38.5t5 38.5t15 14.5v-106zM686 0v106q11 0 15.5 -14.5
t4.5 -38.5t-4.5 -38.5t-15.5 -14.5z" />
    <glyph glyph-name="uniFB93" unicode="&#x6af;" horiz-adv-x="909" arabic-form="final" 
d="M371 596q-7 0 -16 7t-9 33q0 25 10.5 48.5t31.5 39t54 15.5q7 0 22 -0.5t35 -1t41 -1t39 -0.5q52 0 79 13.5t33 26.5q8 0 16.5 -7t8.5 -33q0 -24 -10.5 -48t-31.5 -39.5t-54 -15.5q-9 0 -32.5 0.5t-52 1.5t-52.5 1q-52 0 -79 -13.5t-33 -26.5zM195 0q-44 0 -73 22.5
t-43 58.5t-14 79v93q0 23 14 44.5t51 21.5t51 -21.5t14 -46.5v-81q0 -32 11.5 -48t31.5 -16h345q19 0 33.5 15t14.5 49q0 35 -14.5 50.5t-33.5 15.5h-105q-62 0 -113 22.5t-81.5 62t-30.5 89.5q0 51 30.5 90.5t81.5 62t113 22.5h152q44 0 68 13.5t36 23.5q3 -19 -1.5 -43
t-17 -47t-33.5 -38t-52 -15h-152q-42 0 -68.5 -19.5t-26.5 -49.5q0 -29 26.5 -48.5t68.5 -19.5h125q47 0 82.5 -22.5t55.5 -61t20 -88.5q0 -49 -20 -87.5t-55.5 -60.5t-82.5 -22h-408zM877 0v106q11 0 15.5 -14.5t4.5 -38.5t-4.5 -38.5t-15.5 -14.5zM826 0q-53 0 -95 22
t-68.5 61t-31.5 89l129 18q1 -30 17 -57t49 -27h51v-106h-51z" />
    <glyph glyph-name="uniFB94" unicode="&#x6af;" horiz-adv-x="586" arabic-form="initial" 
d="M133 594q-7 0 -16 7t-9 33q0 25 10.5 48.5t31.5 39t54 15.5q7 0 22 -0.5t35 -1t41 -1t39 -0.5q52 0 79 13.5t33 26.5q8 0 16.5 -7t8.5 -33q0 -24 -10 -48t-31.5 -39.5t-54.5 -15.5q-9 0 -32.5 0.5t-52 1.5t-52.5 1q-52 0 -79 -13.5t-33 -26.5zM0 0q-10 0 -15 14.5
t-5 38.5t5 38.5t15 14.5v-106zM0 0v106h392q19 0 33.5 15t14.5 49q0 35 -14.5 50.5t-33.5 15.5h-155q-62 0 -113 22.5t-81.5 62t-30.5 89.5q0 51 30.5 90.5t81.5 62t113 22.5h202q44 0 68 13.5t36 23.5q3 -19 -1.5 -43t-17 -47t-33.5 -38t-52 -15h-202q-42 0 -68.5 -19.5
t-26.5 -49.5q0 -29 26.5 -48.5t68.5 -19.5h175q47 0 82.5 -22.5t55.5 -61t20 -88.5q0 -49 -20 -87.5t-55.5 -60.5t-82.5 -22h-412z" />
    <glyph glyph-name="uniFB95" unicode="&#x6af;" horiz-adv-x="686" arabic-form="medial" 
d="M153 593q-7 0 -16 7t-9 33q0 25 10.5 48.5t31.5 39t54 15.5q7 0 22 -0.5t35 -1t41 -1t39 -0.5q52 0 79 13.5t33 26.5q8 0 16.5 -7t8.5 -33q0 -24 -10 -48t-31.5 -39.5t-54.5 -15.5q-9 0 -32.5 0.5t-52 1.5t-52.5 1q-52 0 -79 -13.5t-33 -26.5zM0 0q-10 0 -15 14.5
t-5 38.5t5 38.5t15 14.5v-106zM0 0v106h392q19 0 33.5 15t14.5 49q0 35 -14.5 50.5t-33.5 15.5h-155q-62 0 -113 22.5t-81.5 62t-30.5 89.5q0 51 30.5 90.5t81.5 62t113 22.5h202q44 0 68 13.5t36 23.5q3 -19 -1.5 -43t-17 -47t-33.5 -38t-52 -15h-202q-42 0 -68.5 -19.5
t-26.5 -49.5q0 -29 26.5 -48.5t68.5 -19.5h175q47 0 82.5 -22.5t55.5 -61t20 -88.5q0 -49 -20 -87.5t-55.5 -60.5t-82.5 -22h-412zM686 0v106q11 0 15.5 -14.5t4.5 -38.5t-4.5 -38.5t-15.5 -14.5zM635 0q-53 0 -95 22t-68.5 61t-31.5 89l129 18q1 -30 17 -57t49 -27h51v-106
h-51z" />
    <glyph glyph-name="uniFB9F" unicode="&#x6ba;" horiz-adv-x="760" arabic-form="final" 
d="M709 0q-56 0 -100.5 25t-70 69t-25.5 99h130q0 -20 7 -40.5t22 -33.5t37 -13h51v-106h-51zM372 -236q-94 0 -163 31.5t-106.5 91t-37.5 143.5q0 36 7.5 72t22.5 66t37.5 48t53.5 18q26 0 43 -11t25.5 -25t8.5 -25q-20 -15 -35.5 -32.5t-24 -46t-8.5 -76.5
q0 -72 45.5 -110t133.5 -38q76 0 107.5 33.5t31.5 118.5v390q0 25 14 46.5t51 21.5t51 -21.5t14 -46.5v-390q0 -118 -64 -188t-207 -70zM760 0v106q11 0 15.5 -14.5t4.5 -38.5t-4.5 -38.5t-15.5 -14.5z" />
    <glyph glyph-name="uniFBA7" unicode="&#x6c1;" horiz-adv-x="669" arabic-form="final" 
d="M65 0q0 101 31 193.5t91 165t146.5 115t198.5 42.5q11 0 19 -8.5t8 -20.5v-381h108v-106h-238v487l103 -77q-78 0 -140 -31.5t-106 -87.5t-67.5 -130.5t-23.5 -160.5h-130zM667 0v106q11 0 15.5 -14.5t4.5 -38.5t-4.5 -38.5t-15.5 -14.5z" />
    <glyph glyph-name="uniFBA8" unicode="&#x6c1;" horiz-adv-x="356" arabic-form="initial" 
d="M0 0v106h92q11 0 21 6t19 17.5t15.5 30t10 44t3.5 57.5q0 49 -8.5 78t-23.5 47t-36 33q0 11 8.5 25t26 25t42.5 11q31 0 54 -18t37.5 -48.5t22 -70t7.5 -83.5q0 -121 -52 -190.5t-147 -69.5h-92zM0 0q-10 0 -15 14.5t-5 38.5t5 38.5t15 14.5v-106zM97 -203
q-33 0 -49.5 24t-16.5 54q0 57 25.5 102.5t89.5 87.5l18 -24q-16 -11 -35.5 -29t-33 -42t-13.5 -54l15 3q29 0 45 -17t16 -44t-16 -44t-45 -17z" />
    <glyph glyph-name="uniFBA9" unicode="&#x6c1;" horiz-adv-x="494" arabic-form="medial" 
d="M393 -246q-34 0 -81 5t-96 21t-89 48t-61 85t-11 132l42 -45h-97v105h98q23 0 34.5 -14t13.5 -34q2 -15 3.5 -42.5t10 -57.5t31 -54.5t65.5 -36t114 -0.5l-59 -50v242q0 20 14 33.5t33 13.5h136v-105h-98l45 45v-243q0 -20 -14 -34t-34 -14zM0 0q-10 0 -15 14.5t-5 38.5
t5 38.5t15 14.5v-106zM494 0v106q11 0 15.5 -14.5t4.5 -38.5t-4.5 -38.5t-15.5 -14.5z" />
    <glyph glyph-name="uniFBAB" unicode="&#x6be;" horiz-adv-x="814" arabic-form="final" 
d="M763 0q-56 0 -100.5 25t-70 69t-25.5 99v44l130 44v-88q0 -20 7 -40.5t22 -33.5t37 -13h51v-106h-51zM40 0v106h93q101 0 139.5 33.5t38.5 110.5q0 44 -10.5 56t-32.5 12t-32.5 -12t-10.5 -56q0 -77 38.5 -110.5t139.5 -33.5h51q51 0 82 46.5t31 135.5q0 68 -23 108
t-79.5 57.5t-157.5 17.5q-22 0 -40.5 -0.5t-26.5 -0.5q-38 0 -61 15.5t-33 39.5t-10 48q0 25 7.5 33t17.5 8q5 -16 25 -27.5t63 -11.5q14 0 26 1t40 1q201 0 291.5 -74.5t90.5 -217.5q0 -95 -34 -158.5t-89 -95t-120 -31.5h-51q-85 0 -155 24t-111.5 77.5t-41.5 139.5
q0 52 17.5 93t55.5 65.5t100 24.5t100 -24.5t55.5 -65.5t17.5 -93q0 -86 -41.5 -139.5t-111.5 -77.5t-155 -24h-93zM814 0v106q11 0 15.5 -14.5t4.5 -38.5t-4.5 -38.5t-15.5 -14.5z" />
    <glyph glyph-name="uniFBAC" unicode="&#x6be;" horiz-adv-x="722" arabic-form="initial" 
d="M0 0v106h93q101 0 139.5 33.5t38.5 110.5q0 44 -10.5 56t-32.5 12t-32.5 -12t-10.5 -56q0 -77 38.5 -110.5t139.5 -33.5h51q51 0 82 46.5t31 135.5q0 68 -23 108t-79.5 57.5t-157.5 17.5q-22 0 -40.5 -0.5t-26.5 -0.5q-38 0 -61 15.5t-33 39.5t-10 48q0 25 7.5 33t17.5 8
q5 -16 25 -27.5t63 -11.5q14 0 26 1t40 1q201 0 291.5 -74.5t90.5 -217.5q0 -95 -34 -158.5t-89 -95t-120 -31.5h-51q-85 0 -155 24t-111.5 77.5t-41.5 139.5q0 52 17.5 93t55.5 65.5t100 24.5t100 -24.5t55.5 -65.5t17.5 -93q0 -86 -41.5 -139.5t-111.5 -77.5t-155 -24h-93
zM0 0q-10 0 -15 14.5t-5 38.5t5 38.5t15 14.5v-106z" />
    <glyph glyph-name="uniFBAD" unicode="&#x6be;" horiz-adv-x="774" arabic-form="medial" 
d="M723 0q-56 0 -100.5 25t-70 69t-25.5 99v44l130 44v-88q0 -20 7 -40.5t22 -33.5t37 -13h51v-106h-51zM0 0v106h93q101 0 139.5 33.5t38.5 110.5q0 44 -10.5 56t-32.5 12t-32.5 -12t-10.5 -56q0 -77 38.5 -110.5t139.5 -33.5h51q51 0 82 46.5t31 135.5q0 68 -23 108
t-79.5 57.5t-157.5 17.5q-22 0 -40.5 -0.5t-26.5 -0.5q-38 0 -61 15.5t-33 39.5t-10 48q0 25 7.5 33t17.5 8q5 -16 25 -27.5t63 -11.5q14 0 26 1t40 1q201 0 291.5 -74.5t90.5 -217.5q0 -95 -34 -158.5t-89 -95t-120 -31.5h-51q-85 0 -155 24t-111.5 77.5t-41.5 139.5
q0 52 17.5 93t55.5 65.5t100 24.5t100 -24.5t55.5 -65.5t17.5 -93q0 -86 -41.5 -139.5t-111.5 -77.5t-155 -24h-93zM0 0q-10 0 -15 14.5t-5 38.5t5 38.5t15 14.5v-106zM774 0v106q11 0 15.5 -14.5t4.5 -38.5t-4.5 -38.5t-15.5 -14.5z" />
    <glyph glyph-name="uniFBAF" unicode="&#x6d2;" horiz-adv-x="561" arabic-form="final" 
d="M653 -303q-10 15 -27 30t-45.5 25.5t-73.5 10.5h-227q-63 0 -111.5 21.5t-76 60.5t-27.5 91q0 78 59 124t156 46h281v-106h-281q-14 0 -29 -2t-27.5 -8.5t-20.5 -19t-8 -34.5q0 -39 25 -53t60 -14h271q51 0 79.5 -14.5t40 -36t11.5 -43.5q0 -28 -10.5 -49.5t-18.5 -28.5z
M561 0v106q11 0 15.5 -14.5t4.5 -38.5t-4.5 -38.5t-15.5 -14.5z" />
    <glyph glyph-name="uniFBB1" unicode="&#x6d3;" horiz-adv-x="561" arabic-form="final" 
d="M653 -303q-10 15 -27 30t-45.5 25.5t-73.5 10.5h-227q-63 0 -111.5 21.5t-76 60.5t-27.5 91q0 78 59 124t156 46h281v-106h-281q-14 0 -29 -2t-27.5 -8.5t-20.5 -19t-8 -34.5q0 -39 25 -53t60 -14h271q51 0 79.5 -14.5t40 -36t11.5 -43.5q0 -28 -10.5 -49.5t-18.5 -28.5z
M561 0v106q11 0 15.5 -14.5t4.5 -38.5t-4.5 -38.5t-15.5 -14.5zM129 161q-12 3 -19.5 14t-6.5 24t13 22.5t39 9.5q-13 6 -27 23.5t-14 42.5q0 21 11 43.5t34.5 38t61.5 15.5q20 0 35 -5.5t23.5 -16.5t8.5 -29q0 -19 -9.5 -26.5t-22.5 -7t-26 5.5q1 12 -4.5 25t-21.5 13
q-6 -7 -12.5 -19.5t-6.5 -26.5q0 -15 8 -29t23 -23.5t35 -9.5q12 0 22 2.5t17 2.5q15 0 20 -13.5t0.5 -27t-16.5 -14.5q-4 0 -22 -1t-42 -3t-47 -6t-38.5 -10t-15.5 -14z" />
    <glyph glyph-name="uniFBE8" unicode="&#x649;" horiz-adv-x="356" arabic-form="initial" 
d="M0 0v106h92q11 0 21 6t19 17.5t15.5 30t10 44t3.5 57.5q0 49 -8.5 78t-23.5 47t-36 33q0 11 8.5 25t26 25t42.5 11q31 0 54 -18t37.5 -48.5t22 -70t7.5 -83.5q0 -121 -52 -190.5t-147 -69.5h-92zM0 0q-10 0 -15 14.5t-5 38.5t5 38.5t15 14.5v-106z" />
    <glyph glyph-name="uniFBE9" unicode="&#x649;" horiz-adv-x="364" arabic-form="medial" 
d="M0 0v106h51q23 0 37.5 13t21.5 33.5t7 40.5v221q0 23 14 44.5t51 21.5t51 -21.5t14 -44.5v-221q0 -55 -25.5 -99t-69.5 -69t-101 -25h-51zM313 0q-56 0 -100.5 25t-70 69t-25.5 99h130q0 -20 7 -40.5t22 -33.5t37 -13h51v-106h-51zM364 0v106q11 0 15.5 -14.5t4.5 -38.5
t-4.5 -38.5t-15.5 -14.5zM0 0q-10 0 -15 14.5t-5 38.5t5 38.5t15 14.5v-106z" />
    <glyph glyph-name="uniFBFD" unicode="&#x6cc;" horiz-adv-x="923" arabic-form="final" 
d="M437 -236q-115 0 -198.5 32t-128.5 94t-45 152q0 36 7.5 73t22.5 68t38 50.5t54 19.5q25 0 41.5 -11t25.5 -25t9 -25q-30 -22 -49 -53.5t-19 -93.5q0 -27 7 -57.5t31 -57t72.5 -43.5t130.5 -17q70 0 116 12.5t72.5 33t37.5 45t11 48.5l130 10q0 -83 -46 -140t-128.5 -86
t-191.5 -29zM659 0q-45 0 -69.5 14t-34 35.5t-6.5 46t13 45.5q11 -11 36 -23t60 -12h265v-106h-264zM923 0v106q11 0 15.5 -14.5t4.5 -38.5t-4.5 -38.5t-15.5 -14.5z" />
    <glyph glyph-name="uniFBFE" unicode="&#x6cc;" horiz-adv-x="356" arabic-form="initial" 
d="M0 0v106h92q11 0 21 6t19 17.5t15.5 30t10 44t3.5 57.5q0 49 -8.5 78t-23.5 47t-36 33q0 11 8.5 25t26 25t42.5 11q31 0 54 -18t37.5 -48.5t22 -70t7.5 -83.5q0 -121 -52 -190.5t-147 -69.5h-92zM0 0q-10 0 -15 14.5t-5 38.5t5 38.5t15 14.5v-106zM251 -215
q-26 0 -45.5 19t-19.5 46t19.5 46t45.5 19q28 0 46.5 -19t18.5 -46t-18.5 -46t-46.5 -19zM89 -215q-26 0 -45.5 19t-19.5 46t19.5 46t45.5 19q27 0 46 -19t19 -46t-19 -46t-46 -19z" />
    <glyph glyph-name="uniFBFF" unicode="&#x6cc;" horiz-adv-x="364" arabic-form="medial" 
d="M0 0v106h51q23 0 37.5 13t21.5 33.5t7 40.5v221q0 23 14 44.5t51 21.5t51 -21.5t14 -44.5v-221q0 -55 -25.5 -99t-69.5 -69t-101 -25h-51zM313 0q-56 0 -100.5 25t-70 69t-25.5 99h130q0 -20 7 -40.5t22 -33.5t37 -13h51v-106h-51zM364 0v106q11 0 15.5 -14.5t4.5 -38.5
t-4.5 -38.5t-15.5 -14.5zM0 0q-10 0 -15 14.5t-5 38.5t5 38.5t15 14.5v-106zM263 -215q-26 0 -45.5 19t-19.5 46t19.5 46t45.5 19q28 0 46.5 -19t18.5 -46t-18.5 -46t-46.5 -19zM101 -215q-26 0 -45.5 19t-19.5 46t19.5 46t45.5 19q27 0 46 -19t19 -46t-19 -46t-46 -19z" />
    <glyph glyph-name="uniFC64" unicode="&#xfc64;" horiz-adv-x="675" arabic-form="final" 
d="M624 0q-56 0 -100.5 25t-70 69t-25.5 99v221q0 23 14 44.5t51 21.5t51 -21.5t14 -44.5v-221q0 -20 7 -40.5t22 -33.5t37 -13h51v-106h-51zM328 234q-45 0 -87.5 8.5t-80.5 24.5l49 98q35 -14 61 -19.5t58 -5.5t57.5 5.5t59.5 19.5l50 -98q-37 -16 -79 -24.5t-88 -8.5z
M106 -229q-25 0 -42 11t-25.5 25.5t-8.5 24.5q21 16 36 36t23.5 51.5t8.5 80.5v418q0 29 18.5 45.5t46.5 16.5q29 0 47 -16.5t18 -45.5v-418q0 -44 -7.5 -85t-22 -73.5t-37.5 -51.5t-55 -19zM675 0v106q11 0 15.5 -14.5t4.5 -38.5t-4.5 -38.5t-15.5 -14.5zM417 536
q-12 3 -19.5 14t-6.5 24t13 22.5t39 9.5q-13 6 -27 23.5t-14 42.5q0 21 11 43.5t34.5 38t61.5 15.5q20 0 35 -5.5t23.5 -16.5t8.5 -29q0 -19 -9.5 -26.5t-22.5 -7t-26 5.5q1 12 -4.5 25t-21.5 13q-6 -7 -12.5 -19.5t-6.5 -26.5q0 -15 8 -29t23 -23.5t35 -9.5q12 0 22 2.5
t17 2.5q15 0 20 -13.5t0.5 -27t-16.5 -14.5q-4 0 -22 -1t-42 -3t-47 -6t-38.5 -10t-15.5 -14z" />
    <glyph glyph-name="uniFC65" unicode="&#xfc65;" horiz-adv-x="675" arabic-form="final" 
d="M624 0q-56 0 -100.5 25t-70 69t-25.5 99v221q0 23 14 44.5t51 21.5t51 -21.5t14 -44.5v-221q0 -20 7 -40.5t22 -33.5t37 -13h51v-106h-51zM328 234q-45 0 -87.5 8.5t-80.5 24.5l49 98q35 -14 61 -19.5t58 -5.5t57.5 5.5t59.5 19.5l50 -98q-37 -16 -79 -24.5t-88 -8.5z
M106 -229q-25 0 -42 11t-25.5 25.5t-8.5 24.5q21 16 36 36t23.5 51.5t8.5 80.5v418q0 29 18.5 45.5t46.5 16.5q29 0 47 -16.5t18 -45.5v-418q0 -44 -7.5 -85t-22 -73.5t-37.5 -51.5t-55 -19zM675 0v106q11 0 15.5 -14.5t4.5 -38.5t-4.5 -38.5t-15.5 -14.5zM417 536
q-12 3 -19.5 14t-6.5 24t13 22.5t39 9.5q-13 6 -27 23.5t-14 42.5q0 21 11 43.5t34.5 38t61.5 15.5q20 0 35 -5.5t23.5 -16.5t8.5 -29q0 -19 -9.5 -26.5t-22.5 -7t-26 5.5q1 12 -4.5 25t-21.5 13q-6 -7 -12.5 -19.5t-6.5 -26.5q0 -15 8 -29t23 -23.5t35 -9.5q12 0 22 2.5
t17 2.5q15 0 20 -13.5t0.5 -27t-16.5 -14.5q-4 0 -22 -1t-42 -3t-47 -6t-38.5 -10t-15.5 -14zM161 545q-31 0 -52.5 21.5t-21.5 50.5q0 30 21.5 51t52.5 21q29 0 50.5 -21t21.5 -51q0 -29 -21.5 -50.5t-50.5 -21.5z" />
    <glyph glyph-name="uniFC6A" unicode="&#xfc6a;" horiz-adv-x="675" arabic-form="final" 
d="M624 0q-56 0 -100.5 25t-70 69t-25.5 99v221q0 23 14 44.5t51 21.5t51 -21.5t14 -44.5v-221q0 -20 7 -40.5t22 -33.5t37 -13h51v-106h-51zM328 234q-45 0 -87.5 8.5t-80.5 24.5l49 98q35 -14 61 -19.5t58 -5.5t57.5 5.5t59.5 19.5l50 -98q-37 -16 -79 -24.5t-88 -8.5z
M106 -229q-25 0 -42 11t-25.5 25.5t-8.5 24.5q21 16 36 36t23.5 51.5t8.5 80.5v418q0 29 18.5 45.5t46.5 16.5q29 0 47 -16.5t18 -45.5v-418q0 -44 -7.5 -85t-22 -73.5t-37.5 -51.5t-55 -19zM675 0v106q11 0 15.5 -14.5t4.5 -38.5t-4.5 -38.5t-15.5 -14.5zM504 -225
q-31 0 -52.5 21.5t-21.5 50.5q0 30 21.5 51t52.5 21q29 0 50.5 -21t21.5 -51q0 -29 -21.5 -50.5t-50.5 -21.5z" />
    <glyph glyph-name="uniFC6B" unicode="&#xfc6b;" horiz-adv-x="675" arabic-form="final" 
d="M624 0q-56 0 -100.5 25t-70 69t-25.5 99v221q0 23 14 44.5t51 21.5t51 -21.5t14 -44.5v-221q0 -20 7 -40.5t22 -33.5t37 -13h51v-106h-51zM328 234q-45 0 -87.5 8.5t-80.5 24.5l49 98q35 -14 61 -19.5t58 -5.5t57.5 5.5t59.5 19.5l50 -98q-37 -16 -79 -24.5t-88 -8.5z
M106 -229q-25 0 -42 11t-25.5 25.5t-8.5 24.5q21 16 36 36t23.5 51.5t8.5 80.5v418q0 29 18.5 45.5t46.5 16.5q29 0 47 -16.5t18 -45.5v-418q0 -44 -7.5 -85t-22 -73.5t-37.5 -51.5t-55 -19zM675 0v106q11 0 15.5 -14.5t4.5 -38.5t-4.5 -38.5t-15.5 -14.5zM504 -225
q-31 0 -52.5 21.5t-21.5 50.5q0 30 21.5 51t52.5 21q29 0 50.5 -21t21.5 -51q0 -29 -21.5 -50.5t-50.5 -21.5zM161 545q-31 0 -52.5 21.5t-21.5 50.5q0 30 21.5 51t52.5 21q29 0 50.5 -21t21.5 -51q0 -29 -21.5 -50.5t-50.5 -21.5z" />
    <glyph glyph-name="uniFC70" unicode="&#xfc70;" horiz-adv-x="675" arabic-form="final" 
d="M624 0q-56 0 -100.5 25t-70 69t-25.5 99v221q0 23 14 44.5t51 21.5t51 -21.5t14 -44.5v-221q0 -20 7 -40.5t22 -33.5t37 -13h51v-106h-51zM328 234q-45 0 -87.5 8.5t-80.5 24.5l49 98q35 -14 61 -19.5t58 -5.5t57.5 5.5t59.5 19.5l50 -98q-37 -16 -79 -24.5t-88 -8.5z
M106 -229q-25 0 -42 11t-25.5 25.5t-8.5 24.5q21 16 36 36t23.5 51.5t8.5 80.5v418q0 29 18.5 45.5t46.5 16.5q29 0 47 -16.5t18 -45.5v-418q0 -44 -7.5 -85t-22 -73.5t-37.5 -51.5t-55 -19zM675 0v106q11 0 15.5 -14.5t4.5 -38.5t-4.5 -38.5t-15.5 -14.5zM576 550
q-26 0 -45.5 19t-19.5 46t19.5 46t45.5 19q28 0 46.5 -19t18.5 -46t-18.5 -46t-46.5 -19zM414 550q-26 0 -45.5 19t-19.5 46t19.5 46t45.5 19q27 0 46 -19t19 -46t-19 -46t-46 -19z" />
    <glyph glyph-name="uniFC71" unicode="&#xfc71;" horiz-adv-x="675" arabic-form="final" 
d="M624 0q-56 0 -100.5 25t-70 69t-25.5 99v221q0 23 14 44.5t51 21.5t51 -21.5t14 -44.5v-221q0 -20 7 -40.5t22 -33.5t37 -13h51v-106h-51zM328 234q-45 0 -87.5 8.5t-80.5 24.5l49 98q35 -14 61 -19.5t58 -5.5t57.5 5.5t59.5 19.5l50 -98q-37 -16 -79 -24.5t-88 -8.5z
M106 -229q-25 0 -42 11t-25.5 25.5t-8.5 24.5q21 16 36 36t23.5 51.5t8.5 80.5v418q0 29 18.5 45.5t46.5 16.5q29 0 47 -16.5t18 -45.5v-418q0 -44 -7.5 -85t-22 -73.5t-37.5 -51.5t-55 -19zM675 0v106q11 0 15.5 -14.5t4.5 -38.5t-4.5 -38.5t-15.5 -14.5zM576 550
q-26 0 -45.5 19t-19.5 46t19.5 46t45.5 19q28 0 46.5 -19t18.5 -46t-18.5 -46t-46.5 -19zM414 550q-26 0 -45.5 19t-19.5 46t19.5 46t45.5 19q27 0 46 -19t19 -46t-19 -46t-46 -19zM161 545q-31 0 -52.5 21.5t-21.5 50.5q0 30 21.5 51t52.5 21q29 0 50.5 -21t21.5 -51
q0 -29 -21.5 -50.5t-50.5 -21.5z" />
    <glyph glyph-name="uniFC76" unicode="&#xfc76;" horiz-adv-x="675" arabic-form="final" 
d="M624 0q-56 0 -100.5 25t-70 69t-25.5 99v221q0 23 14 44.5t51 21.5t51 -21.5t14 -44.5v-221q0 -20 7 -40.5t22 -33.5t37 -13h51v-106h-51zM328 234q-45 0 -87.5 8.5t-80.5 24.5l49 98q35 -14 61 -19.5t58 -5.5t57.5 5.5t59.5 19.5l50 -98q-37 -16 -79 -24.5t-88 -8.5z
M106 -229q-25 0 -42 11t-25.5 25.5t-8.5 24.5q21 16 36 36t23.5 51.5t8.5 80.5v418q0 29 18.5 45.5t46.5 16.5q29 0 47 -16.5t18 -45.5v-418q0 -44 -7.5 -85t-22 -73.5t-37.5 -51.5t-55 -19zM675 0v106q11 0 15.5 -14.5t4.5 -38.5t-4.5 -38.5t-15.5 -14.5zM576 545
q-26 0 -45.5 19t-19.5 46t19.5 46t45.5 19q28 0 46.5 -19t18.5 -46t-18.5 -46t-46.5 -19zM414 545q-26 0 -45.5 19t-19.5 46t19.5 46t45.5 19q27 0 46 -19t19 -46t-19 -46t-46 -19zM495 694q-26 0 -43 17.5t-17 42.5q0 26 17 43t43 17q25 0 42.5 -17t17.5 -42
q0 -26 -17.5 -43.5t-42.5 -17.5z" />
    <glyph glyph-name="uniFC77" unicode="&#xfc77;" horiz-adv-x="675" arabic-form="final" 
d="M624 0q-56 0 -100.5 25t-70 69t-25.5 99v221q0 23 14 44.5t51 21.5t51 -21.5t14 -44.5v-221q0 -20 7 -40.5t22 -33.5t37 -13h51v-106h-51zM328 234q-45 0 -87.5 8.5t-80.5 24.5l49 98q35 -14 61 -19.5t58 -5.5t57.5 5.5t59.5 19.5l50 -98q-37 -16 -79 -24.5t-88 -8.5z
M106 -229q-25 0 -42 11t-25.5 25.5t-8.5 24.5q21 16 36 36t23.5 51.5t8.5 80.5v418q0 29 18.5 45.5t46.5 16.5q29 0 47 -16.5t18 -45.5v-418q0 -44 -7.5 -85t-22 -73.5t-37.5 -51.5t-55 -19zM675 0v106q11 0 15.5 -14.5t4.5 -38.5t-4.5 -38.5t-15.5 -14.5zM576 545
q-26 0 -45.5 19t-19.5 46t19.5 46t45.5 19q28 0 46.5 -19t18.5 -46t-18.5 -46t-46.5 -19zM414 545q-26 0 -45.5 19t-19.5 46t19.5 46t45.5 19q27 0 46 -19t19 -46t-19 -46t-46 -19zM495 694q-26 0 -43 17.5t-17 42.5q0 26 17 43t43 17q25 0 42.5 -17t17.5 -42
q0 -26 -17.5 -43.5t-42.5 -17.5zM161 545q-31 0 -52.5 21.5t-21.5 50.5q0 30 21.5 51t52.5 21q29 0 50.5 -21t21.5 -51q0 -29 -21.5 -50.5t-50.5 -21.5z" />
    <glyph glyph-name="uniFC8A" unicode="&#xfc8a;" horiz-adv-x="675" arabic-form="final" 
d="M624 0q-56 0 -100.5 25t-70 69t-25.5 99v221q0 23 14 44.5t51 21.5t51 -21.5t14 -44.5v-221q0 -20 7 -40.5t22 -33.5t37 -13h51v-106h-51zM328 234q-45 0 -87.5 8.5t-80.5 24.5l49 98q35 -14 61 -19.5t58 -5.5t57.5 5.5t59.5 19.5l50 -98q-37 -16 -79 -24.5t-88 -8.5z
M106 -229q-25 0 -42 11t-25.5 25.5t-8.5 24.5q21 16 36 36t23.5 51.5t8.5 80.5v418q0 29 18.5 45.5t46.5 16.5q29 0 47 -16.5t18 -45.5v-418q0 -44 -7.5 -85t-22 -73.5t-37.5 -51.5t-55 -19zM675 0v106q11 0 15.5 -14.5t4.5 -38.5t-4.5 -38.5t-15.5 -14.5zM496 545
q-31 0 -52.5 21.5t-21.5 50.5q0 30 21.5 51t52.5 21q29 0 50.5 -21t21.5 -51q0 -29 -21.5 -50.5t-50.5 -21.5z" />
    <glyph glyph-name="uniFC8B" unicode="&#xfc8b;" horiz-adv-x="675" arabic-form="final" 
d="M624 0q-56 0 -100.5 25t-70 69t-25.5 99v221q0 23 14 44.5t51 21.5t51 -21.5t14 -44.5v-221q0 -20 7 -40.5t22 -33.5t37 -13h51v-106h-51zM328 234q-45 0 -87.5 8.5t-80.5 24.5l49 98q35 -14 61 -19.5t58 -5.5t57.5 5.5t59.5 19.5l50 -98q-37 -16 -79 -24.5t-88 -8.5z
M106 -229q-25 0 -42 11t-25.5 25.5t-8.5 24.5q21 16 36 36t23.5 51.5t8.5 80.5v418q0 29 18.5 45.5t46.5 16.5q29 0 47 -16.5t18 -45.5v-418q0 -44 -7.5 -85t-22 -73.5t-37.5 -51.5t-55 -19zM675 0v106q11 0 15.5 -14.5t4.5 -38.5t-4.5 -38.5t-15.5 -14.5zM496 545
q-31 0 -52.5 21.5t-21.5 50.5q0 30 21.5 51t52.5 21q29 0 50.5 -21t21.5 -51q0 -29 -21.5 -50.5t-50.5 -21.5zM161 545q-31 0 -52.5 21.5t-21.5 50.5q0 30 21.5 51t52.5 21q29 0 50.5 -21t21.5 -51q0 -29 -21.5 -50.5t-50.5 -21.5z" />
    <glyph glyph-name="uniFC91" unicode="&#xfc91;" horiz-adv-x="675" arabic-form="final" 
d="M624 0q-56 0 -100.5 25t-70 69t-25.5 99v221q0 23 14 44.5t51 21.5t51 -21.5t14 -44.5v-221q0 -20 7 -40.5t22 -33.5t37 -13h51v-106h-51zM328 234q-45 0 -87.5 8.5t-80.5 24.5l49 98q35 -14 61 -19.5t58 -5.5t57.5 5.5t59.5 19.5l50 -98q-37 -16 -79 -24.5t-88 -8.5z
M106 -229q-25 0 -42 11t-25.5 25.5t-8.5 24.5q21 16 36 36t23.5 51.5t8.5 80.5v418q0 29 18.5 45.5t46.5 16.5q29 0 47 -16.5t18 -45.5v-418q0 -44 -7.5 -85t-22 -73.5t-37.5 -51.5t-55 -19zM675 0v106q11 0 15.5 -14.5t4.5 -38.5t-4.5 -38.5t-15.5 -14.5zM584 -216
q-26 0 -45.5 19t-19.5 46t19.5 46t45.5 19q28 0 46.5 -19t18.5 -46t-18.5 -46t-46.5 -19zM422 -216q-26 0 -45.5 19t-19.5 46t19.5 46t45.5 19q27 0 46 -19t19 -46t-19 -46t-46 -19z" />
    <glyph glyph-name="uniFC92" unicode="&#xfc92;" horiz-adv-x="675" arabic-form="final" 
d="M624 0q-56 0 -100.5 25t-70 69t-25.5 99v221q0 23 14 44.5t51 21.5t51 -21.5t14 -44.5v-221q0 -20 7 -40.5t22 -33.5t37 -13h51v-106h-51zM328 234q-45 0 -87.5 8.5t-80.5 24.5l49 98q35 -14 61 -19.5t58 -5.5t57.5 5.5t59.5 19.5l50 -98q-37 -16 -79 -24.5t-88 -8.5z
M106 -229q-25 0 -42 11t-25.5 25.5t-8.5 24.5q21 16 36 36t23.5 51.5t8.5 80.5v418q0 29 18.5 45.5t46.5 16.5q29 0 47 -16.5t18 -45.5v-418q0 -44 -7.5 -85t-22 -73.5t-37.5 -51.5t-55 -19zM675 0v106q11 0 15.5 -14.5t4.5 -38.5t-4.5 -38.5t-15.5 -14.5zM584 -216
q-26 0 -45.5 19t-19.5 46t19.5 46t45.5 19q28 0 46.5 -19t18.5 -46t-18.5 -46t-46.5 -19zM422 -216q-26 0 -45.5 19t-19.5 46t19.5 46t45.5 19q27 0 46 -19t19 -46t-19 -46t-46 -19zM161 545q-31 0 -52.5 21.5t-21.5 50.5q0 30 21.5 51t52.5 21q29 0 50.5 -21t21.5 -51
q0 -29 -21.5 -50.5t-50.5 -21.5z" />
    <glyph glyph-name="uniFD0D" unicode="&#xfd0d;" horiz-adv-x="1281" arabic-form="isolated" 
d="M989 0v106h28q11 0 21 6t19 17.5t15.5 30t10 44t3.5 57.5q0 49 -8.5 78t-23.5 47t-36 33q0 11 8.5 25t26 25t42.5 11q31 0 54 -18t37.5 -48.5t22 -70t7.5 -83.5q0 -121 -52 -190.5t-147 -69.5h-28zM328 234q-45 0 -87.5 8.5t-80.5 24.5l49 98q35 -14 61 -19.5t58 -5.5
t57.5 5.5t59.5 19.5l50 -98q-37 -16 -79 -24.5t-88 -8.5zM625 0q-56 0 -100.5 25t-70 69t-25.5 99v221q0 23 14 44.5t51 21.5t51 -21.5t14 -44.5v-221q0 -20 7 -40.5t22 -33.5t37 -13h22v-106h-22zM947 0q-56 0 -100.5 25t-70 69t-25.5 99h130q0 -20 7 -40.5t22 -33.5
t37 -13h42v-106h-42zM647 0v106h38q23 0 37.5 13t21.5 33.5t7 40.5v190q0 23 14 44.5t51 21.5t51 -21.5t14 -44.5v-190q0 -55 -25.5 -99t-69.5 -69t-101 -25h-38zM106 -229q-25 0 -42 11t-25.5 25.5t-8.5 24.5q21 16 36 36t23.5 51.5t8.5 80.5v418q0 29 18.5 45.5t46.5 16.5
q29 0 47 -16.5t18 -45.5v-418q0 -44 -7.5 -85t-22 -73.5t-37.5 -51.5t-55 -19zM897 545q-26 0 -45.5 19t-19.5 46t19.5 46t45.5 19q28 0 46.5 -19t18.5 -46t-18.5 -46t-46.5 -19zM735 545q-26 0 -45.5 19t-19.5 46t19.5 46t45.5 19q27 0 46 -19t19 -46t-19 -46t-46 -19z
M816 694q-26 0 -43 17.5t-17 42.5q0 26 17 43t43 17q25 0 42.5 -17t17.5 -42q0 -26 -17.5 -43.5t-42.5 -17.5z" />
    <glyph glyph-name="uniFD0E" unicode="&#xfd0e;" horiz-adv-x="1281" arabic-form="isolated" 
d="M989 0v106h28q11 0 21 6t19 17.5t15.5 30t10 44t3.5 57.5q0 49 -8.5 78t-23.5 47t-36 33q0 11 8.5 25t26 25t42.5 11q31 0 54 -18t37.5 -48.5t22 -70t7.5 -83.5q0 -121 -52 -190.5t-147 -69.5h-28zM328 234q-45 0 -87.5 8.5t-80.5 24.5l49 98q35 -14 61 -19.5t58 -5.5
t57.5 5.5t59.5 19.5l50 -98q-37 -16 -79 -24.5t-88 -8.5zM625 0q-56 0 -100.5 25t-70 69t-25.5 99v221q0 23 14 44.5t51 21.5t51 -21.5t14 -44.5v-221q0 -20 7 -40.5t22 -33.5t37 -13h22v-106h-22zM947 0q-56 0 -100.5 25t-70 69t-25.5 99h130q0 -20 7 -40.5t22 -33.5
t37 -13h42v-106h-42zM647 0v106h38q23 0 37.5 13t21.5 33.5t7 40.5v190q0 23 14 44.5t51 21.5t51 -21.5t14 -44.5v-190q0 -55 -25.5 -99t-69.5 -69t-101 -25h-38zM106 -229q-25 0 -42 11t-25.5 25.5t-8.5 24.5q21 16 36 36t23.5 51.5t8.5 80.5v418q0 29 18.5 45.5t46.5 16.5
q29 0 47 -16.5t18 -45.5v-418q0 -44 -7.5 -85t-22 -73.5t-37.5 -51.5t-55 -19z" />
    <glyph glyph-name="uniFD0F" unicode="&#xfd0f;" horiz-adv-x="1157" arabic-form="isolated" 
d="M429 0v106h440q32 0 51.5 26t19.5 85q0 83 -39.5 120t-111.5 37q-56 0 -95.5 -18.5t-66 -48t-42.5 -64t-26 -66.5h-64q16 65 35 114.5t42.5 85.5t54 58.5t69.5 33.5t89 11q134 0 209.5 -70t75.5 -191q0 -102 -53.5 -160.5t-147.5 -58.5h-440zM328 234q-45 0 -87.5 8.5
t-80.5 24.5l49 98q35 -14 61 -19.5t58 -5.5t57.5 5.5t59.5 19.5l50 -98q-37 -16 -79 -24.5t-88 -8.5zM429 0v414q0 23 14 44.5t51 21.5t51 -21.5t14 -44.5v-414h-130zM106 -229q-25 0 -42 11t-25.5 25.5t-8.5 24.5q21 16 36 36t23.5 51.5t8.5 80.5v418q0 29 18.5 45.5
t46.5 16.5q29 0 47 -16.5t18 -45.5v-418q0 -44 -7.5 -85t-22 -73.5t-37.5 -51.5t-55 -19z" />
    <glyph glyph-name="uniFD10" unicode="&#xfd10;" horiz-adv-x="1157" arabic-form="isolated" 
d="M429 0v106h440q32 0 51.5 26t19.5 85q0 83 -39.5 120t-111.5 37q-56 0 -95.5 -18.5t-66 -48t-42.5 -64t-26 -66.5h-64q16 65 35 114.5t42.5 85.5t54 58.5t69.5 33.5t89 11q134 0 209.5 -70t75.5 -191q0 -102 -53.5 -160.5t-147.5 -58.5h-440zM328 234q-45 0 -87.5 8.5
t-80.5 24.5l49 98q35 -14 61 -19.5t58 -5.5t57.5 5.5t59.5 19.5l50 -98q-37 -16 -79 -24.5t-88 -8.5zM429 0v414q0 23 14 44.5t51 21.5t51 -21.5t14 -44.5v-414h-130zM106 -229q-25 0 -42 11t-25.5 25.5t-8.5 24.5q21 16 36 36t23.5 51.5t8.5 80.5v418q0 29 18.5 45.5
t46.5 16.5q29 0 47 -16.5t18 -45.5v-418q0 -44 -7.5 -85t-22 -73.5t-37.5 -51.5t-55 -19zM748 545q-31 0 -52.5 21.5t-21.5 50.5q0 30 21.5 51t52.5 21q29 0 50.5 -21t21.5 -51q0 -29 -21.5 -50.5t-50.5 -21.5z" />
    <glyph glyph-name="uniFD29" unicode="&#xfd29;" horiz-adv-x="1320" arabic-form="final" 
d="M969 0v106h38q23 0 37.5 13t21.5 33.5t7 40.5v221q0 23 14 44.5t51 21.5t51 -21.5t14 -44.5v-221q0 -55 -25.5 -99t-69.5 -69t-101 -25h-38zM625 0q-56 0 -100.5 25t-70 69t-25.5 99v221q0 23 14 44.5t51 21.5t51 -21.5t14 -44.5v-221q0 -20 7 -40.5t22 -33.5t37 -13h22
v-106h-22zM328 234q-45 0 -87.5 8.5t-80.5 24.5l49 98q35 -14 61 -19.5t58 -5.5t57.5 5.5t59.5 19.5l50 -98q-37 -16 -79 -24.5t-88 -8.5zM947 0q-56 0 -100.5 25t-70 69t-25.5 99h130q0 -21 7 -41t22 -33t37 -13h22v-106h-22zM647 0v106h38q23 0 37.5 13t21.5 33.5t7 40.5
v190q0 23 14 44.5t51 21.5t51 -21.5t14 -44.5v-190q0 -55 -25.5 -99t-69.5 -69t-101 -25h-38zM1269 0q-56 0 -100.5 25t-70 69t-25.5 99h130q0 -20 7 -40.5t22 -33.5t37 -13h51v-106h-51zM106 -229q-25 0 -42 11t-25.5 25.5t-8.5 24.5q21 16 36 36t23.5 51.5t8.5 80.5v418
q0 29 18.5 45.5t46.5 16.5q29 0 47 -16.5t18 -45.5v-418q0 -44 -7.5 -85t-22 -73.5t-37.5 -51.5t-55 -19zM1320 0v106q11 0 15.5 -14.5t4.5 -38.5t-4.5 -38.5t-15.5 -14.5zM897 545q-26 0 -45.5 19t-19.5 46t19.5 46t45.5 19q28 0 46.5 -19t18.5 -46t-18.5 -46t-46.5 -19z
M735 545q-26 0 -45.5 19t-19.5 46t19.5 46t45.5 19q27 0 46 -19t19 -46t-19 -46t-46 -19zM816 694q-26 0 -43 17.5t-17 42.5q0 26 17 43t43 17q25 0 42.5 -17t17.5 -42q0 -26 -17.5 -43.5t-42.5 -17.5z" />
    <glyph glyph-name="uniFD2A" unicode="&#xfd2a;" horiz-adv-x="1320" arabic-form="final" 
d="M969 0v106h38q23 0 37.5 13t21.5 33.5t7 40.5v221q0 23 14 44.5t51 21.5t51 -21.5t14 -44.5v-221q0 -55 -25.5 -99t-69.5 -69t-101 -25h-38zM625 0q-56 0 -100.5 25t-70 69t-25.5 99v221q0 23 14 44.5t51 21.5t51 -21.5t14 -44.5v-221q0 -20 7 -40.5t22 -33.5t37 -13h22
v-106h-22zM328 234q-45 0 -87.5 8.5t-80.5 24.5l49 98q35 -14 61 -19.5t58 -5.5t57.5 5.5t59.5 19.5l50 -98q-37 -16 -79 -24.5t-88 -8.5zM947 0q-56 0 -100.5 25t-70 69t-25.5 99h130q0 -21 7 -41t22 -33t37 -13h22v-106h-22zM647 0v106h38q23 0 37.5 13t21.5 33.5t7 40.5
v190q0 23 14 44.5t51 21.5t51 -21.5t14 -44.5v-190q0 -55 -25.5 -99t-69.5 -69t-101 -25h-38zM1269 0q-56 0 -100.5 25t-70 69t-25.5 99h130q0 -20 7 -40.5t22 -33.5t37 -13h51v-106h-51zM106 -229q-25 0 -42 11t-25.5 25.5t-8.5 24.5q21 16 36 36t23.5 51.5t8.5 80.5v418
q0 29 18.5 45.5t46.5 16.5q29 0 47 -16.5t18 -45.5v-418q0 -44 -7.5 -85t-22 -73.5t-37.5 -51.5t-55 -19zM1320 0v106q11 0 15.5 -14.5t4.5 -38.5t-4.5 -38.5t-15.5 -14.5z" />
    <glyph glyph-name="uniFD2B" unicode="&#xfd2b;" horiz-adv-x="1187" arabic-form="final" 
d="M1136 0q-56 0 -100.5 25t-70 69t-25.5 99l130 25v-25q0 -20 7 -40.5t22 -33.5t37 -13h51v-106h-51zM429 0v106h440q32 0 51.5 26t19.5 85q0 83 -39.5 120t-111.5 37q-56 0 -95.5 -18.5t-66 -48t-42.5 -64t-26 -66.5h-64q16 65 35 114.5t42.5 85.5t54 58.5t69.5 33.5
t89 11q134 0 209.5 -70t75.5 -191q0 -102 -53.5 -160.5t-147.5 -58.5h-440zM328 234q-45 0 -87.5 8.5t-80.5 24.5l49 98q35 -14 61 -19.5t58 -5.5t57.5 5.5t59.5 19.5l50 -98q-37 -16 -79 -24.5t-88 -8.5zM429 0v414q0 23 14 44.5t51 21.5t51 -21.5t14 -44.5v-414h-130z
M106 -229q-25 0 -42 11t-25.5 25.5t-8.5 24.5q21 16 36 36t23.5 51.5t8.5 80.5v418q0 29 18.5 45.5t46.5 16.5q29 0 47 -16.5t18 -45.5v-418q0 -44 -7.5 -85t-22 -73.5t-37.5 -51.5t-55 -19zM1187 0v106q11 0 15.5 -14.5t4.5 -38.5t-4.5 -38.5t-15.5 -14.5z" />
    <glyph glyph-name="uniFD2C" unicode="&#xfd2c;" horiz-adv-x="1187" arabic-form="final" 
d="M1136 0q-56 0 -100.5 25t-70 69t-25.5 99l130 25v-25q0 -20 7 -40.5t22 -33.5t37 -13h51v-106h-51zM429 0v106h440q32 0 51.5 26t19.5 85q0 83 -39.5 120t-111.5 37q-56 0 -95.5 -18.5t-66 -48t-42.5 -64t-26 -66.5h-64q16 65 35 114.5t42.5 85.5t54 58.5t69.5 33.5
t89 11q134 0 209.5 -70t75.5 -191q0 -102 -53.5 -160.5t-147.5 -58.5h-440zM328 234q-45 0 -87.5 8.5t-80.5 24.5l49 98q35 -14 61 -19.5t58 -5.5t57.5 5.5t59.5 19.5l50 -98q-37 -16 -79 -24.5t-88 -8.5zM429 0v414q0 23 14 44.5t51 21.5t51 -21.5t14 -44.5v-414h-130z
M106 -229q-25 0 -42 11t-25.5 25.5t-8.5 24.5q21 16 36 36t23.5 51.5t8.5 80.5v418q0 29 18.5 45.5t46.5 16.5q29 0 47 -16.5t18 -45.5v-418q0 -44 -7.5 -85t-22 -73.5t-37.5 -51.5t-55 -19zM1187 0v106q11 0 15.5 -14.5t4.5 -38.5t-4.5 -38.5t-15.5 -14.5zM748 545
q-31 0 -52.5 21.5t-21.5 50.5q0 30 21.5 51t52.5 21q29 0 50.5 -21t21.5 -51q0 -29 -21.5 -50.5t-50.5 -21.5z" />
    <glyph glyph-name="uniFE82" unicode="&#x622;" horiz-adv-x="319" arabic-form="final" 
d="M292 0q-56 0 -100.5 25t-70 69t-25.5 99v258q0 36 -9 52t-20 21t-17 8q0 8 7.5 24t25 29t47.5 13q29 0 50.5 -15.5t33.5 -42.5t12 -62v-285q0 -20 7 -40.5t22 -33.5t37 -13h27v-106h-27zM319 0v106q11 0 15.5 -14.5t4.5 -38.5t-4.5 -38.5t-15.5 -14.5zM188 640
q-31 0 -55 10.5t-45.5 20.5t-45.5 10q-21 0 -28.5 -7.5t-18.5 -7.5q-13 0 -14.5 12.5t7.5 29.5t29.5 29.5t50.5 12.5q27 0 53.5 -9t50.5 -18.5t45 -9.5q15 0 23.5 5t14 9.5t11.5 4.5q11 0 13 -14t-6 -32t-29 -32t-56 -14z" />
    <glyph glyph-name="uniFE84" unicode="&#x623;" horiz-adv-x="319" arabic-form="final" 
d="M292 0q-56 0 -100.5 25t-70 69t-25.5 99v258q0 36 -9 52t-20 21t-17 8q0 8 7.5 24t25 29t47.5 13q29 0 50.5 -15.5t33.5 -42.5t12 -62v-285q0 -20 7 -40.5t22 -33.5t37 -13h27v-106h-27zM319 0v106q11 0 15.5 -14.5t4.5 -38.5t-4.5 -38.5t-15.5 -14.5zM52 631
q-12 3 -19.5 14t-6.5 24t13 22.5t39 9.5q-13 6 -27 23.5t-14 42.5q0 21 11 43.5t34.5 38t61.5 15.5q20 0 35 -5.5t23.5 -16.5t8.5 -29q0 -19 -9.5 -26.5t-22.5 -7t-26 5.5q1 12 -4.5 25t-21.5 13q-6 -7 -12.5 -19.5t-6.5 -26.5q0 -15 8 -29t23 -23.5t35 -9.5q12 0 22 2.5
t17 2.5q15 0 20 -13.5t0.5 -27t-16.5 -14.5q-4 0 -22 -1t-42 -3t-47 -6t-38.5 -10t-15.5 -14z" />
    <glyph glyph-name="uniFE86" unicode="&#x624;" horiz-adv-x="573" arabic-form="final" 
d="M472 0v106h101v-106h-101zM270 0q-58 0 -106 28.5t-76 82.5t-28 130q0 113 63.5 176t170.5 63q79 0 128.5 -31.5t49.5 -79.5v-369h-130v369q-7 2 -20 3.5t-28 1.5q-52 0 -78 -31t-26 -102q0 -64 23.5 -99.5t69.5 -35.5h189v-106h-202zM350 -229q-25 0 -42 11t-25.5 25.5
t-8.5 24.5q21 16 36 36t23.5 51.5t8.5 80.5v106h130v-106q0 -44 -7.5 -85t-22 -73.5t-37.5 -51.5t-55 -19zM573 0v106q11 0 15.5 -14.5t4.5 -38.5t-4.5 -38.5t-15.5 -14.5zM188 536q-12 3 -19.5 14t-6.5 24t13 22.5t39 9.5q-13 6 -27 23.5t-14 42.5q0 21 11 43.5t34.5 38
t61.5 15.5q20 0 35 -5.5t23.5 -16.5t8.5 -29q0 -19 -9.5 -26.5t-22.5 -7t-26 5.5q1 12 -4.5 25t-21.5 13q-6 -7 -12.5 -19.5t-6.5 -26.5q0 -15 8 -29t23 -23.5t35 -9.5q12 0 22 2.5t17 2.5q15 0 20 -13.5t0.5 -27t-16.5 -14.5q-4 0 -22 -1t-42 -3t-47 -6t-38.5 -10
t-15.5 -14z" />
    <glyph glyph-name="uniFE88" unicode="&#x625;" horiz-adv-x="319" arabic-form="final" 
d="M292 0q-56 0 -100.5 25t-70 69t-25.5 99v320q0 36 -9 52t-20 21t-17 8q0 8 7.5 24t25 29t47.5 13q29 0 50.5 -15.5t33.5 -42.5t12 -62v-347q0 -20 7 -40.5t22 -33.5t37 -13h27v-106h-27zM319 0v106q11 0 15.5 -14.5t4.5 -38.5t-4.5 -38.5t-15.5 -14.5zM82 -283
q-12 3 -19.5 14t-6.5 24t13 22.5t39 9.5q-13 6 -27 23.5t-14 42.5q0 20 11 43t35 38.5t62 15.5q20 0 35 -5t23.5 -16.5t8.5 -29.5q0 -19 -9.5 -26.5t-22.5 -7t-26 5.5q1 12 -4.5 25t-21.5 13q-7 -7 -13.5 -19.5t-6.5 -26.5q0 -15 8 -29t23.5 -23.5t35.5 -9.5q12 0 22 2.5
t17 2.5q15 0 20 -13.5t0.5 -27t-16.5 -14.5q-4 0 -22 -1t-42 -3t-47.5 -6t-39 -10t-15.5 -14z" />
    <glyph glyph-name="uniFE8A" unicode="&#x626;" horiz-adv-x="923" arabic-form="final" 
d="M437 -236q-115 0 -198.5 32t-128.5 94t-45 152q0 36 7.5 73t22.5 68t38 50.5t54 19.5q25 0 41.5 -11t25.5 -25t9 -25q-30 -22 -49 -53.5t-19 -93.5q0 -27 7 -57.5t31 -57t72.5 -43.5t130.5 -17q70 0 116 12.5t72.5 33t37.5 45t11 48.5l130 10q0 -83 -46 -140t-128.5 -86
t-191.5 -29zM659 0q-45 0 -69.5 14t-34 35.5t-6.5 46t13 45.5q11 -11 36 -23t60 -12h265v-106h-264zM923 0v106q11 0 15.5 -14.5t4.5 -38.5t-4.5 -38.5t-15.5 -14.5zM122 322q-12 3 -19.5 14t-6.5 24t13 22.5t39 9.5q-13 6 -27 23.5t-14 42.5q0 21 11 43.5t34.5 38
t61.5 15.5q20 0 35 -5.5t23.5 -16.5t8.5 -29q0 -19 -9.5 -26.5t-22.5 -7t-26 5.5q1 12 -4.5 25t-21.5 13q-6 -7 -12.5 -19.5t-6.5 -26.5q0 -15 8 -29t23 -23.5t35 -9.5q12 0 22 2.5t17 2.5q15 0 20 -13.5t0.5 -27t-16.5 -14.5q-4 0 -22 -1t-42 -3t-47 -6t-38.5 -10
t-15.5 -14z" />
    <glyph glyph-name="uniFE8B" unicode="&#x626;" horiz-adv-x="356" arabic-form="initial" 
d="M0 0v106h92q11 0 21 6t19 17.5t15.5 30t10 44t3.5 57.5q0 49 -8.5 78t-23.5 47t-36 33q0 11 8.5 25t26 25t42.5 11q31 0 54 -18t37.5 -48.5t22 -70t7.5 -83.5q0 -121 -52 -190.5t-147 -69.5h-92zM0 0q-10 0 -15 14.5t-5 38.5t5 38.5t15 14.5v-106zM92 536q-12 3 -19.5 14
t-6.5 24t13 22.5t39 9.5q-13 6 -27 23.5t-14 42.5q0 21 11 43.5t34.5 38t61.5 15.5q20 0 35 -5.5t23.5 -16.5t8.5 -29q0 -19 -9.5 -26.5t-22.5 -7t-26 5.5q1 12 -4.5 25t-21.5 13q-6 -7 -12.5 -19.5t-6.5 -26.5q0 -15 8 -29t23 -23.5t35 -9.5q12 0 22 2.5t17 2.5
q15 0 20 -13.5t0.5 -27t-16.5 -14.5q-4 0 -22 -1t-42 -3t-47 -6t-38.5 -10t-15.5 -14z" />
    <glyph glyph-name="uniFE8C" unicode="&#x626;" horiz-adv-x="364" arabic-form="medial" 
d="M0 0v106h51q23 0 37.5 13t21.5 33.5t7 40.5v221q0 23 14 44.5t51 21.5t51 -21.5t14 -44.5v-221q0 -55 -25.5 -99t-69.5 -69t-101 -25h-51zM313 0q-56 0 -100.5 25t-70 69t-25.5 99h130q0 -20 7 -40.5t22 -33.5t37 -13h51v-106h-51zM364 0v106q11 0 15.5 -14.5t4.5 -38.5
t-4.5 -38.5t-15.5 -14.5zM0 0q-10 0 -15 14.5t-5 38.5t5 38.5t15 14.5v-106zM104 536q-12 3 -19.5 14t-6.5 24t13 22.5t39 9.5q-13 6 -27 23.5t-14 42.5q0 21 11 43.5t34.5 38t61.5 15.5q20 0 35 -5.5t23.5 -16.5t8.5 -29q0 -19 -9.5 -26.5t-22.5 -7t-26 5.5q1 12 -4.5 25
t-21.5 13q-6 -7 -12.5 -19.5t-6.5 -26.5q0 -15 8 -29t23 -23.5t35 -9.5q12 0 22 2.5t17 2.5q15 0 20 -13.5t0.5 -27t-16.5 -14.5q-4 0 -22 -1t-42 -3t-47 -6t-38.5 -10t-15.5 -14z" />
    <glyph glyph-name="uniFE8E" unicode="&#x627;" horiz-adv-x="319" arabic-form="final" 
d="M292 0q-56 0 -100.5 25t-70 69t-25.5 99v320q0 36 -9 52t-20 21t-17 8q0 8 7.5 24t25 29t47.5 13q29 0 50.5 -15.5t33.5 -42.5t12 -62v-347q0 -20 7 -40.5t22 -33.5t37 -13h27v-106h-27zM319 0v106q11 0 15.5 -14.5t4.5 -38.5t-4.5 -38.5t-15.5 -14.5z" />
    <glyph glyph-name="uniFE90" unicode="&#x628;" horiz-adv-x="860" arabic-form="final" 
d="M829 0q-56 0 -100.5 25t-70 69t-25.5 99h130q0 -20 7 -40.5t22 -33.5t37 -13h31v-106h-31zM264 0q-94 0 -146.5 69.5t-52.5 190.5q0 44 7.5 83.5t22 70t37.5 48.5t54 18q26 0 43 -11t25.5 -25t8.5 -25q-20 -15 -35.5 -33t-24 -47t-8.5 -78q0 -32 3.5 -57.5t10 -44
t15.5 -30t19 -17.5t21 -6h303q23 0 37.5 13t21.5 33.5t7 40.5v172q0 25 14 46.5t51 21.5t51 -21.5t14 -46.5v-172q0 -55 -25.5 -99t-69.5 -69t-101 -25h-303zM860 0v106q11 0 15.5 -14.5t4.5 -38.5t-4.5 -38.5t-15.5 -14.5zM415 -224q-31 0 -52.5 21.5t-21.5 50.5
q0 30 21.5 51t52.5 21q29 0 50.5 -21t21.5 -51q0 -29 -21.5 -50.5t-50.5 -21.5z" />
    <glyph glyph-name="uniFE91" unicode="&#x628;" horiz-adv-x="356" arabic-form="initial" 
d="M0 0v106h92q11 0 21 6t19 17.5t15.5 30t10 44t3.5 57.5q0 49 -8.5 78t-23.5 47t-36 33q0 11 8.5 25t26 25t42.5 11q31 0 54 -18t37.5 -48.5t22 -70t7.5 -83.5q0 -121 -52 -190.5t-147 -69.5h-92zM0 0q-10 0 -15 14.5t-5 38.5t5 38.5t15 14.5v-106zM171 -224
q-31 0 -52.5 21.5t-21.5 50.5q0 30 21.5 51t52.5 21q29 0 50.5 -21t21.5 -51q0 -29 -21.5 -50.5t-50.5 -21.5z" />
    <glyph glyph-name="uniFE92" unicode="&#x628;" horiz-adv-x="364" arabic-form="medial" 
d="M0 0v106h51q23 0 37.5 13t21.5 33.5t7 40.5v221q0 23 14 44.5t51 21.5t51 -21.5t14 -44.5v-221q0 -55 -25.5 -99t-69.5 -69t-101 -25h-51zM313 0q-56 0 -100.5 25t-70 69t-25.5 99h130q0 -20 7 -40.5t22 -33.5t37 -13h51v-106h-51zM364 0v106q11 0 15.5 -14.5t4.5 -38.5
t-4.5 -38.5t-15.5 -14.5zM0 0q-10 0 -15 14.5t-5 38.5t5 38.5t15 14.5v-106zM183 -224q-31 0 -52.5 21.5t-21.5 50.5q0 30 21.5 51t52.5 21q29 0 50.5 -21t21.5 -51q0 -29 -21.5 -50.5t-50.5 -21.5z" />
    <glyph glyph-name="uniFE94" unicode="&#x629;" horiz-adv-x="535" arabic-form="final" 
d="M270 0q-58 0 -106 28.5t-76 82.5t-28 130q0 113 63.5 176t170.5 63q79 0 128.5 -31.5t49.5 -79.5v-369h-130v369q-7 2 -20 3.5t-28 1.5q-52 0 -78 -31t-26 -102q0 -64 23.5 -99.5t69.5 -35.5h252v-106h-265zM535 0v106q11 0 15.5 -14.5t4.5 -38.5t-4.5 -38.5t-15.5 -14.5
zM349 550q-26 0 -45.5 19t-19.5 46t19.5 46t45.5 19q28 0 46.5 -19t18.5 -46t-18.5 -46t-46.5 -19zM187 550q-26 0 -45.5 19t-19.5 46t19.5 46t45.5 19q27 0 46 -19t19 -46t-19 -46t-46 -19z" />
    <glyph glyph-name="uniFE96" unicode="&#x62a;" horiz-adv-x="860" arabic-form="final" 
d="M829 0q-56 0 -100.5 25t-70 69t-25.5 99h130q0 -20 7 -40.5t22 -33.5t37 -13h31v-106h-31zM264 0q-94 0 -146.5 69.5t-52.5 190.5q0 44 7.5 83.5t22 70t37.5 48.5t54 18q26 0 43 -11t25.5 -25t8.5 -25q-20 -15 -35.5 -33t-24 -47t-8.5 -78q0 -32 3.5 -57.5t10 -44
t15.5 -30t19 -17.5t21 -6h303q23 0 37.5 13t21.5 33.5t7 40.5v172q0 25 14 46.5t51 21.5t51 -21.5t14 -46.5v-172q0 -55 -25.5 -99t-69.5 -69t-101 -25h-303zM860 0v106q11 0 15.5 -14.5t4.5 -38.5t-4.5 -38.5t-15.5 -14.5zM495 505q-26 0 -45.5 19t-19.5 46t19.5 46
t45.5 19q28 0 46.5 -19t18.5 -46t-18.5 -46t-46.5 -19zM333 505q-26 0 -45.5 19t-19.5 46t19.5 46t45.5 19q27 0 46 -19t19 -46t-19 -46t-46 -19z" />
    <glyph glyph-name="uniFE97" unicode="&#x62a;" horiz-adv-x="356" arabic-form="initial" 
d="M0 0v106h92q11 0 21 6t19 17.5t15.5 30t10 44t3.5 57.5q0 49 -8.5 78t-23.5 47t-36 33q0 11 8.5 25t26 25t42.5 11q31 0 54 -18t37.5 -48.5t22 -70t7.5 -83.5q0 -121 -52 -190.5t-147 -69.5h-92zM0 0q-10 0 -15 14.5t-5 38.5t5 38.5t15 14.5v-106zM251 550
q-26 0 -45.5 19t-19.5 46t19.5 46t45.5 19q28 0 46.5 -19t18.5 -46t-18.5 -46t-46.5 -19zM89 550q-26 0 -45.5 19t-19.5 46t19.5 46t45.5 19q27 0 46 -19t19 -46t-19 -46t-46 -19z" />
    <glyph glyph-name="uniFE98" unicode="&#x62a;" horiz-adv-x="364" arabic-form="medial" 
d="M0 0v106h51q23 0 37.5 13t21.5 33.5t7 40.5v221q0 23 14 44.5t51 21.5t51 -21.5t14 -44.5v-221q0 -55 -25.5 -99t-69.5 -69t-101 -25h-51zM313 0q-56 0 -100.5 25t-70 69t-25.5 99h130q0 -20 7 -40.5t22 -33.5t37 -13h51v-106h-51zM364 0v106q11 0 15.5 -14.5t4.5 -38.5
t-4.5 -38.5t-15.5 -14.5zM0 0q-10 0 -15 14.5t-5 38.5t5 38.5t15 14.5v-106zM263 550q-26 0 -45.5 19t-19.5 46t19.5 46t45.5 19q28 0 46.5 -19t18.5 -46t-18.5 -46t-46.5 -19zM101 550q-26 0 -45.5 19t-19.5 46t19.5 46t45.5 19q27 0 46 -19t19 -46t-19 -46t-46 -19z" />
    <glyph glyph-name="uniFE9A" unicode="&#x62b;" horiz-adv-x="860" arabic-form="final" 
d="M829 0q-56 0 -100.5 25t-70 69t-25.5 99h130q0 -20 7 -40.5t22 -33.5t37 -13h31v-106h-31zM264 0q-94 0 -146.5 69.5t-52.5 190.5q0 44 7.5 83.5t22 70t37.5 48.5t54 18q26 0 43 -11t25.5 -25t8.5 -25q-20 -15 -35.5 -33t-24 -47t-8.5 -78q0 -32 3.5 -57.5t10 -44
t15.5 -30t19 -17.5t21 -6h303q23 0 37.5 13t21.5 33.5t7 40.5v172q0 25 14 46.5t51 21.5t51 -21.5t14 -46.5v-172q0 -55 -25.5 -99t-69.5 -69t-101 -25h-303zM860 0v106q11 0 15.5 -14.5t4.5 -38.5t-4.5 -38.5t-15.5 -14.5zM495 500q-26 0 -45.5 19t-19.5 46t19.5 46
t45.5 19q28 0 46.5 -19t18.5 -46t-18.5 -46t-46.5 -19zM333 500q-26 0 -45.5 19t-19.5 46t19.5 46t45.5 19q27 0 46 -19t19 -46t-19 -46t-46 -19zM414 649q-26 0 -43 17.5t-17 42.5q0 26 17 43t43 17q25 0 42.5 -17t17.5 -42q0 -26 -17.5 -43.5t-42.5 -17.5z" />
    <glyph glyph-name="uniFE9B" unicode="&#x62b;" horiz-adv-x="356" arabic-form="initial" 
d="M0 0v106h92q11 0 21 6t19 17.5t15.5 30t10 44t3.5 57.5q0 49 -8.5 78t-23.5 47t-36 33q0 11 8.5 25t26 25t42.5 11q31 0 54 -18t37.5 -48.5t22 -70t7.5 -83.5q0 -121 -52 -190.5t-147 -69.5h-92zM0 0q-10 0 -15 14.5t-5 38.5t5 38.5t15 14.5v-106zM251 545
q-26 0 -45.5 19t-19.5 46t19.5 46t45.5 19q28 0 46.5 -19t18.5 -46t-18.5 -46t-46.5 -19zM89 545q-26 0 -45.5 19t-19.5 46t19.5 46t45.5 19q27 0 46 -19t19 -46t-19 -46t-46 -19zM170 694q-26 0 -43 17.5t-17 42.5q0 26 17 43t43 17q25 0 42.5 -17t17.5 -42
q0 -26 -17.5 -43.5t-42.5 -17.5z" />
    <glyph glyph-name="uniFE9C" unicode="&#x62b;" horiz-adv-x="364" arabic-form="medial" 
d="M0 0v106h51q23 0 37.5 13t21.5 33.5t7 40.5v221q0 23 14 44.5t51 21.5t51 -21.5t14 -44.5v-221q0 -55 -25.5 -99t-69.5 -69t-101 -25h-51zM313 0q-56 0 -100.5 25t-70 69t-25.5 99h130q0 -20 7 -40.5t22 -33.5t37 -13h51v-106h-51zM364 0v106q11 0 15.5 -14.5t4.5 -38.5
t-4.5 -38.5t-15.5 -14.5zM0 0q-10 0 -15 14.5t-5 38.5t5 38.5t15 14.5v-106zM263 545q-26 0 -45.5 19t-19.5 46t19.5 46t45.5 19q28 0 46.5 -19t18.5 -46t-18.5 -46t-46.5 -19zM101 545q-26 0 -45.5 19t-19.5 46t19.5 46t45.5 19q27 0 46 -19t19 -46t-19 -46t-46 -19z
M182 694q-26 0 -43 17.5t-17 42.5q0 26 17 43t43 17q25 0 42.5 -17t17.5 -42q0 -26 -17.5 -43.5t-42.5 -17.5z" />
    <glyph glyph-name="uniFE9E" unicode="&#x62c;" horiz-adv-x="721" arabic-form="final" 
d="M670 0q-56 0 -100.5 25t-70 69t-25.5 99v16h130v-16q0 -20 7 -40.5t22 -33.5t37 -13h51v-106h-51zM184 -266q-31 0 -54 18t-37.5 48.5t-22 70.5t-7.5 83q0 80 36 116t103 36h206q32 0 49 23t17 79q0 83 -40 124.5t-121 41.5h-31t-38 -0.5t-32 -0.5q-33 0 -54 15.5
t-31.5 40.5t-10.5 51q0 21 8.5 29.5t16.5 7.5q5 -16 25 -27.5t60 -11.5q10 0 28 0.5t35.5 1t23.5 0.5q78 0 133 -22.5t90 -61.5t51.5 -87.5t16.5 -100.5q0 -75 -29 -121t-74 -66.5t-93 -20.5h-255l49 37q-4 -16 -6.5 -37t-2.5 -47q0 -49 8.5 -78t24 -46.5t35.5 -33.5
q0 -10 -8.5 -24.5t-25.5 -25.5t-43 -11zM721 0v106q11 0 15.5 -14.5t4.5 -38.5t-4.5 -38.5t-15.5 -14.5zM379 -192q-31 0 -52.5 21.5t-21.5 50.5q0 30 21.5 51t52.5 21q29 0 50.5 -21t21.5 -51q0 -29 -21.5 -50.5t-50.5 -21.5z" />
    <glyph glyph-name="uniFE9F" unicode="&#x62c;" horiz-adv-x="576" arabic-form="initial" 
d="M0 0v106h315q32 0 49 23t17 79q0 83 -40 124.5t-121 41.5h-31t-38 -0.5t-32 -0.5q-33 0 -54 15.5t-31.5 40.5t-10.5 51q0 21 8.5 29.5t16.5 7.5q5 -16 25 -27.5t60 -11.5q10 0 28 0.5t35.5 1t23.5 0.5q78 0 133 -22.5t90 -61.5t51.5 -87.5t16.5 -100.5q0 -75 -29 -121
t-74 -66.5t-93 -20.5h-315zM0 0q-10 0 -15 14.5t-5 38.5t5 38.5t15 14.5v-106zM238 -224q-31 0 -52.5 21.5t-21.5 50.5q0 30 21.5 51t52.5 21q29 0 50.5 -21t21.5 -51q0 -29 -21.5 -50.5t-50.5 -21.5z" />
    <glyph glyph-name="uniFEA0" unicode="&#x62c;" horiz-adv-x="628" arabic-form="medial" 
d="M577 0q-56 0 -100.5 25t-70 69t-25.5 99v16h130v-16q0 -20 7 -40.5t22 -33.5t37 -13h51v-106h-51zM0 0v106h315q32 0 49 23t17 79q0 83 -40 124.5t-121 41.5h-31t-38 -0.5t-32 -0.5q-33 0 -54 15.5t-31.5 40.5t-10.5 51q0 21 8.5 29.5t16.5 7.5q5 -16 25 -27.5t60 -11.5
q10 0 28 0.5t35.5 1t23.5 0.5q78 0 133 -22.5t90 -61.5t51.5 -87.5t16.5 -100.5q0 -75 -29 -121t-74 -66.5t-93 -20.5h-315zM0 0q-10 0 -15 14.5t-5 38.5t5 38.5t15 14.5v-106zM628 0v106q11 0 15.5 -14.5t4.5 -38.5t-4.5 -38.5t-15.5 -14.5zM238 -224q-31 0 -52.5 21.5
t-21.5 50.5q0 30 21.5 51t52.5 21q29 0 50.5 -21t21.5 -51q0 -29 -21.5 -50.5t-50.5 -21.5z" />
    <glyph glyph-name="uniFEA2" unicode="&#x62d;" horiz-adv-x="721" arabic-form="final" 
d="M670 0q-56 0 -100.5 25t-70 69t-25.5 99v16h130v-16q0 -20 7 -40.5t22 -33.5t37 -13h51v-106h-51zM184 -266q-31 0 -54 18t-37.5 48.5t-22 70.5t-7.5 83q0 80 36 116t103 36h206q32 0 49 23t17 79q0 83 -40 124.5t-121 41.5h-31t-38 -0.5t-32 -0.5q-33 0 -54 15.5
t-31.5 40.5t-10.5 51q0 21 8.5 29.5t16.5 7.5q5 -16 25 -27.5t60 -11.5q10 0 28 0.5t35.5 1t23.5 0.5q78 0 133 -22.5t90 -61.5t51.5 -87.5t16.5 -100.5q0 -75 -29 -121t-74 -66.5t-93 -20.5h-255l49 37q-4 -16 -6.5 -37t-2.5 -47q0 -49 8.5 -78t24 -46.5t35.5 -33.5
q0 -10 -8.5 -24.5t-25.5 -25.5t-43 -11zM721 0v106q11 0 15.5 -14.5t4.5 -38.5t-4.5 -38.5t-15.5 -14.5z" />
    <glyph glyph-name="uniFEA3" unicode="&#x62d;" horiz-adv-x="576" arabic-form="initial" 
d="M0 0v106h315q32 0 49 23t17 79q0 83 -40 124.5t-121 41.5h-31t-38 -0.5t-32 -0.5q-33 0 -54 15.5t-31.5 40.5t-10.5 51q0 21 8.5 29.5t16.5 7.5q5 -16 25 -27.5t60 -11.5q10 0 28 0.5t35.5 1t23.5 0.5q78 0 133 -22.5t90 -61.5t51.5 -87.5t16.5 -100.5q0 -75 -29 -121
t-74 -66.5t-93 -20.5h-315zM0 0q-10 0 -15 14.5t-5 38.5t5 38.5t15 14.5v-106z" />
    <glyph glyph-name="uniFEA4" unicode="&#x62d;" horiz-adv-x="628" arabic-form="medial" 
d="M577 0q-56 0 -100.5 25t-70 69t-25.5 99v16h130v-16q0 -20 7 -40.5t22 -33.5t37 -13h51v-106h-51zM0 0v106h315q32 0 49 23t17 79q0 83 -40 124.5t-121 41.5h-31t-38 -0.5t-32 -0.5q-33 0 -54 15.5t-31.5 40.5t-10.5 51q0 21 8.5 29.5t16.5 7.5q5 -16 25 -27.5t60 -11.5
q10 0 28 0.5t35.5 1t23.5 0.5q78 0 133 -22.5t90 -61.5t51.5 -87.5t16.5 -100.5q0 -75 -29 -121t-74 -66.5t-93 -20.5h-315zM0 0q-10 0 -15 14.5t-5 38.5t5 38.5t15 14.5v-106zM628 0v106q11 0 15.5 -14.5t4.5 -38.5t-4.5 -38.5t-15.5 -14.5z" />
    <glyph glyph-name="uniFEA6" unicode="&#x62e;" horiz-adv-x="721" arabic-form="final" 
d="M670 0q-56 0 -100.5 25t-70 69t-25.5 99v16h130v-16q0 -20 7 -40.5t22 -33.5t37 -13h51v-106h-51zM184 -266q-31 0 -54 18t-37.5 48.5t-22 70.5t-7.5 83q0 80 36 116t103 36h206q32 0 49 23t17 79q0 83 -40 124.5t-121 41.5h-31t-38 -0.5t-32 -0.5q-33 0 -54 15.5
t-31.5 40.5t-10.5 51q0 21 8.5 29.5t16.5 7.5q5 -16 25 -27.5t60 -11.5q10 0 28 0.5t35.5 1t23.5 0.5q78 0 133 -22.5t90 -61.5t51.5 -87.5t16.5 -100.5q0 -75 -29 -121t-74 -66.5t-93 -20.5h-255l49 37q-4 -16 -6.5 -37t-2.5 -47q0 -49 8.5 -78t24 -46.5t35.5 -33.5
q0 -10 -8.5 -24.5t-25.5 -25.5t-43 -11zM721 0v106q11 0 15.5 -14.5t4.5 -38.5t-4.5 -38.5t-15.5 -14.5zM336 545q-31 0 -52.5 21.5t-21.5 50.5q0 30 21.5 51t52.5 21q29 0 50.5 -21t21.5 -51q0 -29 -21.5 -50.5t-50.5 -21.5z" />
    <glyph glyph-name="uniFEA7" unicode="&#x62e;" horiz-adv-x="576" arabic-form="initial" 
d="M0 0v106h315q32 0 49 23t17 79q0 83 -40 124.5t-121 41.5h-31t-38 -0.5t-32 -0.5q-33 0 -54 15.5t-31.5 40.5t-10.5 51q0 21 8.5 29.5t16.5 7.5q5 -16 25 -27.5t60 -11.5q10 0 28 0.5t35.5 1t23.5 0.5q78 0 133 -22.5t90 -61.5t51.5 -87.5t16.5 -100.5q0 -75 -29 -121
t-74 -66.5t-93 -20.5h-315zM0 0q-10 0 -15 14.5t-5 38.5t5 38.5t15 14.5v-106zM238 545q-31 0 -52.5 21.5t-21.5 50.5q0 30 21.5 51t52.5 21q29 0 50.5 -21t21.5 -51q0 -29 -21.5 -50.5t-50.5 -21.5z" />
    <glyph glyph-name="uniFEA8" unicode="&#x62e;" horiz-adv-x="628" arabic-form="medial" 
d="M577 0q-56 0 -100.5 25t-70 69t-25.5 99v16h130v-16q0 -20 7 -40.5t22 -33.5t37 -13h51v-106h-51zM0 0v106h315q32 0 49 23t17 79q0 83 -40 124.5t-121 41.5h-31t-38 -0.5t-32 -0.5q-33 0 -54 15.5t-31.5 40.5t-10.5 51q0 21 8.5 29.5t16.5 7.5q5 -16 25 -27.5t60 -11.5
q10 0 28 0.5t35.5 1t23.5 0.5q78 0 133 -22.5t90 -61.5t51.5 -87.5t16.5 -100.5q0 -75 -29 -121t-74 -66.5t-93 -20.5h-315zM0 0q-10 0 -15 14.5t-5 38.5t5 38.5t15 14.5v-106zM628 0v106q11 0 15.5 -14.5t4.5 -38.5t-4.5 -38.5t-15.5 -14.5zM238 545q-31 0 -52.5 21.5
t-21.5 50.5q0 30 21.5 51t52.5 21q29 0 50.5 -21t21.5 -51q0 -29 -21.5 -50.5t-50.5 -21.5z" />
    <glyph glyph-name="uniFEAA" unicode="&#x62f;" horiz-adv-x="569" arabic-form="final" 
d="M518 0q-56 0 -100.5 25t-70 69t-25.5 99v44h130v-44q0 -20 7 -40.5t22 -33.5t37 -13h51v-106h-51zM121 0q-20 0 -38 11.5t-18 41.5t18 41.5t38 11.5h96q51 0 78 35.5t27 98.5q0 47 -12.5 77t-30 47t-32.5 24l18 -4q-10 4 -25.5 -2t-28 -24t-12.5 -51q-11 -4 -29.5 -9
t-33.5 -5q-26 0 -48.5 18t-22.5 56q0 35 20 57.5t48.5 34.5t55.5 16.5t41 4.5q27 0 64 -13t73.5 -41.5t60.5 -75t24 -114.5q0 -78 -33.5 -130.5t-87 -79t-114.5 -26.5h-96zM569 0v106q11 0 15.5 -14.5t4.5 -38.5t-4.5 -38.5t-15.5 -14.5z" />
    <glyph glyph-name="uniFEAC" unicode="&#x630;" horiz-adv-x="569" arabic-form="final" 
d="M518 0q-56 0 -100.5 25t-70 69t-25.5 99v44h130v-44q0 -20 7 -40.5t22 -33.5t37 -13h51v-106h-51zM121 0q-20 0 -38 11.5t-18 41.5t18 41.5t38 11.5h96q51 0 78 35.5t27 98.5q0 47 -12.5 77t-30 47t-32.5 24l18 -4q-10 4 -25.5 -2t-28 -24t-12.5 -51q-11 -4 -29.5 -9
t-33.5 -5q-26 0 -48.5 18t-22.5 56q0 35 20 57.5t48.5 34.5t55.5 16.5t41 4.5q27 0 64 -13t73.5 -41.5t60.5 -75t24 -114.5q0 -78 -33.5 -130.5t-87 -79t-114.5 -26.5h-96zM569 0v106q11 0 15.5 -14.5t4.5 -38.5t-4.5 -38.5t-15.5 -14.5zM231 545q-31 0 -52.5 21.5
t-21.5 50.5q0 30 21.5 51t52.5 21q29 0 50.5 -21t21.5 -51q0 -29 -21.5 -50.5t-50.5 -21.5z" />
    <glyph glyph-name="uniFEAE" unicode="&#x631;" horiz-adv-x="321" arabic-form="final" 
d="M218 0v106h103v-106h-103zM96 -229q-25 0 -42 11t-25.5 25.5t-8.5 24.5q21 16 36 36t23.5 51.5t8.5 80.5v418q0 29 18.5 45.5t46.5 16.5q29 0 47 -16.5t18 -45.5v-418q0 -44 -7.5 -85t-22 -73.5t-37.5 -51.5t-55 -19zM321 0v106q11 0 15.5 -14.5t4.5 -38.5t-4.5 -38.5
t-15.5 -14.5z" />
    <glyph glyph-name="uniFEB0" unicode="&#x632;" horiz-adv-x="321" arabic-form="final" 
d="M218 0v106h103v-106h-103zM96 -229q-25 0 -42 11t-25.5 25.5t-8.5 24.5q21 16 36 36t23.5 51.5t8.5 80.5v418q0 29 18.5 45.5t46.5 16.5q29 0 47 -16.5t18 -45.5v-418q0 -44 -7.5 -85t-22 -73.5t-37.5 -51.5t-55 -19zM321 0v106q11 0 15.5 -14.5t4.5 -38.5t-4.5 -38.5
t-15.5 -14.5zM154 545q-31 0 -52.5 21.5t-21.5 50.5q0 30 21.5 51t52.5 21q29 0 50.5 -21t21.5 -51q0 -29 -21.5 -50.5t-50.5 -21.5z" />
    <glyph glyph-name="uniFEB2" unicode="&#x633;" horiz-adv-x="1404" arabic-form="final" 
d="M372 -236q-94 0 -163 31.5t-106.5 91t-37.5 143.5q0 36 7.5 72t22.5 66t37.5 48t53.5 18q26 0 43 -11t25.5 -25t8.5 -25q-20 -15 -35.5 -32.5t-24 -46t-8.5 -76.5q0 -72 45.5 -110t133.5 -38q76 0 107.5 33.5t31.5 118.5v335q0 25 14 46.5t51 21.5t51 -21.5t14 -46.5
v-335q0 -118 -64 -188t-207 -70zM709 0q-56 0 -100.5 25t-70 69t-25.5 99h130q0 -20 7 -40t22 -33.5t37 -13.5h22v-106h-22zM1031 0q-56 0 -100.5 25t-70 69t-25.5 99h130q0 -20 7 -40t22 -33.5t37 -13.5h22v-106h-22zM731 0v106h38q23 0 37.5 13t21.5 33.5t7 40.5v190
q0 23 14 44.5t51 21.5t51 -21.5t14 -44.5v-190q0 -55 -25.5 -99t-69.5 -69t-101 -25h-38zM1353 0q-56 0 -100.5 25t-70 69t-25.5 99h130q0 -20 7 -40.5t22 -33.5t37 -13h51v-106h-51zM1053 0v106h38q23 0 37.5 13t21.5 33.5t7 40.5v221q0 23 14 44.5t51 21.5t51 -21.5
t14 -44.5v-221q0 -55 -25.5 -99t-69.5 -69t-101 -25h-38zM1404 0v106q11 0 15.5 -14.5t4.5 -38.5t-4.5 -38.5t-15.5 -14.5z" />
    <glyph glyph-name="uniFEB3" unicode="&#x633;" horiz-adv-x="956" arabic-form="initial" 
d="M664 0v106h28q11 0 21 6t19 17.5t15.5 30t10 44t3.5 57.5q0 49 -8.5 78t-23.5 47t-36 33q0 11 8.5 25t26 25t42.5 11q31 0 54 -18t37.5 -48.5t22 -70t7.5 -83.5q0 -121 -52 -190.5t-147 -69.5h-28zM300 0q-57 0 -101 25t-69.5 69t-25.5 99h130q0 -20 7 -40.5t22 -33.5
t37 -13h22v-106h-22zM0 0v106h38q23 0 37.5 13t21.5 33.5t7 40.5v166q0 23 14 44.5t51 21.5t51 -21.5t14 -44.5v-166q0 -55 -25.5 -99t-69.5 -69t-101 -25h-38zM622 0q-56 0 -100.5 25t-70 69t-25.5 99h130q0 -20 7 -40.5t22 -33.5t37 -13h42v-106h-42zM322 0v106h38
q23 0 37.5 13t21.5 33.5t7 40.5v190q0 23 14 44.5t51 21.5t51 -21.5t14 -44.5v-190q0 -55 -25.5 -99t-69.5 -69t-101 -25h-38zM0 0q-10 0 -15 14.5t-5 38.5t5 38.5t15 14.5v-106z" />
    <glyph glyph-name="uniFEB4" unicode="&#x633;" horiz-adv-x="1008" arabic-form="medial" 
d="M0 0v106h51q23 0 37.5 13t21.5 33.5t7 40.5v166q0 23 14 44.5t51 21.5t51 -21.5t14 -44.5v-166q0 -55 -25.5 -99t-69.5 -69t-101 -25h-51zM313 0q-56 0 -100.5 25t-70 69t-25.5 99h130q0 -20 7 -40t22 -33.5t37 -13.5h22v-106h-22zM657 0v106h38q23 0 37.5 13t21.5 33.5
t7 40.5v221q0 23 14 44.5t51 21.5t51 -21.5t14 -44.5v-221q0 -55 -25.5 -99t-69.5 -69t-101 -25h-38zM635 0q-56 0 -100.5 25t-70 69t-25.5 99h130q0 -21 7 -41t22 -33t37 -13h22v-106h-22zM335 0v106h38q23 0 37.5 13t21.5 33.5t7 40.5v190q0 23 14 44.5t51 21.5t51 -21.5
t14 -44.5v-190q0 -55 -25.5 -99t-69.5 -69t-101 -25h-38zM957 0q-56 0 -100.5 25t-70 69t-25.5 99h130q0 -20 7 -40.5t22 -33.5t37 -13h51v-106h-51zM1008 0v106q11 0 15.5 -14.5t4.5 -38.5t-4.5 -38.5t-15.5 -14.5zM0 0q-10 0 -15 14.5t-5 38.5t5 38.5t15 14.5v-106z" />
    <glyph glyph-name="uniFEB6" unicode="&#x634;" horiz-adv-x="1404" arabic-form="final" 
d="M372 -236q-94 0 -163 31.5t-106.5 91t-37.5 143.5q0 36 7.5 72t22.5 66t37.5 48t53.5 18q26 0 43 -11t25.5 -25t8.5 -25q-20 -15 -35.5 -32.5t-24 -46t-8.5 -76.5q0 -72 45.5 -110t133.5 -38q76 0 107.5 33.5t31.5 118.5v335q0 25 14 46.5t51 21.5t51 -21.5t14 -46.5
v-335q0 -118 -64 -188t-207 -70zM709 0q-56 0 -100.5 25t-70 69t-25.5 99h130q0 -20 7 -40t22 -33.5t37 -13.5h22v-106h-22zM1031 0q-56 0 -100.5 25t-70 69t-25.5 99h130q0 -20 7 -40t22 -33.5t37 -13.5h22v-106h-22zM731 0v106h38q23 0 37.5 13t21.5 33.5t7 40.5v190
q0 23 14 44.5t51 21.5t51 -21.5t14 -44.5v-190q0 -55 -25.5 -99t-69.5 -69t-101 -25h-38zM1353 0q-56 0 -100.5 25t-70 69t-25.5 99h130q0 -20 7 -40.5t22 -33.5t37 -13h51v-106h-51zM1053 0v106h38q23 0 37.5 13t21.5 33.5t7 40.5v221q0 23 14 44.5t51 21.5t51 -21.5
t14 -44.5v-221q0 -55 -25.5 -99t-69.5 -69t-101 -25h-38zM1404 0v106q11 0 15.5 -14.5t4.5 -38.5t-4.5 -38.5t-15.5 -14.5zM981 545q-26 0 -45.5 19t-19.5 46t19.5 46t45.5 19q28 0 46.5 -19t18.5 -46t-18.5 -46t-46.5 -19zM819 545q-26 0 -45.5 19t-19.5 46t19.5 46
t45.5 19q27 0 46 -19t19 -46t-19 -46t-46 -19zM900 694q-26 0 -43 17.5t-17 42.5q0 26 17 43t43 17q25 0 42.5 -17t17.5 -42q0 -26 -17.5 -43.5t-42.5 -17.5z" />
    <glyph glyph-name="uniFEB7" unicode="&#x634;" horiz-adv-x="956" arabic-form="initial" 
d="M664 0v106h28q11 0 21 6t19 17.5t15.5 30t10 44t3.5 57.5q0 49 -8.5 78t-23.5 47t-36 33q0 11 8.5 25t26 25t42.5 11q31 0 54 -18t37.5 -48.5t22 -70t7.5 -83.5q0 -121 -52 -190.5t-147 -69.5h-28zM300 0q-57 0 -101 25t-69.5 69t-25.5 99h130q0 -20 7 -40.5t22 -33.5
t37 -13h22v-106h-22zM0 0v106h38q23 0 37.5 13t21.5 33.5t7 40.5v166q0 23 14 44.5t51 21.5t51 -21.5t14 -44.5v-166q0 -55 -25.5 -99t-69.5 -69t-101 -25h-38zM622 0q-56 0 -100.5 25t-70 69t-25.5 99h130q0 -20 7 -40.5t22 -33.5t37 -13h42v-106h-42zM322 0v106h38
q23 0 37.5 13t21.5 33.5t7 40.5v190q0 23 14 44.5t51 21.5t51 -21.5t14 -44.5v-190q0 -55 -25.5 -99t-69.5 -69t-101 -25h-38zM0 0q-10 0 -15 14.5t-5 38.5t5 38.5t15 14.5v-106zM572 545q-26 0 -45.5 19t-19.5 46t19.5 46t45.5 19q28 0 46.5 -19t18.5 -46t-18.5 -46
t-46.5 -19zM410 545q-26 0 -45.5 19t-19.5 46t19.5 46t45.5 19q27 0 46 -19t19 -46t-19 -46t-46 -19zM491 694q-26 0 -43 17.5t-17 42.5q0 26 17 43t43 17q25 0 42.5 -17t17.5 -42q0 -26 -17.5 -43.5t-42.5 -17.5z" />
    <glyph glyph-name="uniFEB8" unicode="&#x634;" horiz-adv-x="1008" arabic-form="medial" 
d="M0 0v106h51q23 0 37.5 13t21.5 33.5t7 40.5v166q0 23 14 44.5t51 21.5t51 -21.5t14 -44.5v-166q0 -55 -25.5 -99t-69.5 -69t-101 -25h-51zM313 0q-56 0 -100.5 25t-70 69t-25.5 99h130q0 -20 7 -40t22 -33.5t37 -13.5h22v-106h-22zM657 0v106h38q23 0 37.5 13t21.5 33.5
t7 40.5v221q0 23 14 44.5t51 21.5t51 -21.5t14 -44.5v-221q0 -55 -25.5 -99t-69.5 -69t-101 -25h-38zM635 0q-56 0 -100.5 25t-70 69t-25.5 99h130q0 -21 7 -41t22 -33t37 -13h22v-106h-22zM335 0v106h38q23 0 37.5 13t21.5 33.5t7 40.5v190q0 23 14 44.5t51 21.5t51 -21.5
t14 -44.5v-190q0 -55 -25.5 -99t-69.5 -69t-101 -25h-38zM957 0q-56 0 -100.5 25t-70 69t-25.5 99h130q0 -20 7 -40.5t22 -33.5t37 -13h51v-106h-51zM1008 0v106q11 0 15.5 -14.5t4.5 -38.5t-4.5 -38.5t-15.5 -14.5zM0 0q-10 0 -15 14.5t-5 38.5t5 38.5t15 14.5v-106z
M585 545q-26 0 -45.5 19t-19.5 46t19.5 46t45.5 19q28 0 46.5 -19t18.5 -46t-18.5 -46t-46.5 -19zM423 545q-26 0 -45.5 19t-19.5 46t19.5 46t45.5 19q27 0 46 -19t19 -46t-19 -46t-46 -19zM504 694q-26 0 -43 17.5t-17 42.5q0 26 17 43t43 17q25 0 42.5 -17t17.5 -42
q0 -26 -17.5 -43.5t-42.5 -17.5z" />
    <glyph glyph-name="uniFEBA" unicode="&#x635;" horiz-adv-x="1271" arabic-form="final" 
d="M1220 0q-56 0 -100.5 25t-70 69t-25.5 99l130 25v-25q0 -20 7 -40.5t22 -33.5t37 -13h51v-106h-51zM372 -236q-94 0 -163 31.5t-106.5 91t-37.5 143.5q0 36 7.5 72t22.5 66t37.5 48t53.5 18q26 0 43 -11t25.5 -25t8.5 -25q-16 -12 -32 -29t-26 -44.5t-10 -70.5
q0 -80 43 -119.5t134 -39.5q77 0 109 33t32 119v289q0 29 -14.5 45.5t-28.5 20.5q5 17 25.5 35t61.5 18q31 0 48.5 -11t25.5 -27.5t10 -32t2 -24.5v-313q0 -118 -64 -188t-207 -70zM642 0v106h311q32 0 51.5 26t19.5 85q0 83 -39.5 120t-111.5 37q-56 0 -95.5 -18.5t-66 -48
t-42.5 -64t-26 -66.5h-64q16 65 35 114.5t42.5 85.5t54 58.5t69.5 33.5t89 11q134 0 209.5 -70t75.5 -191q0 -102 -53.5 -160.5t-147.5 -58.5h-311zM1271 0v106q11 0 15.5 -14.5t4.5 -38.5t-4.5 -38.5t-15.5 -14.5z" />
    <glyph glyph-name="uniFEBB" unicode="&#x635;" horiz-adv-x="793" arabic-form="initial" 
d="M0 0v106h527q32 0 51.5 26t19.5 85q0 83 -39.5 120t-111.5 37q-56 0 -95.5 -18.5t-66 -48t-42.5 -64t-26 -66.5h-64q16 65 35 114.5t42.5 85.5t54 58.5t69.5 33.5t89 11q134 0 209.5 -70t75.5 -191q0 -102 -53.5 -160.5t-147.5 -58.5h-527zM87 0v314q0 29 -14.5 45.5
t-28.5 20.5q5 17 25.5 35t61.5 18q31 0 48.5 -11t25.5 -27.5t10 -32t2 -24.5v-338h-130zM0 0q-10 0 -15 14.5t-5 38.5t5 38.5t15 14.5v-106z" />
    <glyph glyph-name="uniFEBC" unicode="&#x635;" horiz-adv-x="845" arabic-form="medial" 
d="M794 0q-56 0 -100.5 25t-70 69t-25.5 99l130 25v-25q0 -20 7 -40.5t22 -33.5t37 -13h51v-106h-51zM0 0v106h527q32 0 51.5 26t19.5 85q0 83 -39.5 120t-111.5 37q-56 0 -95.5 -18.5t-66 -48t-42.5 -64t-26 -66.5h-64q16 65 35 114.5t42.5 85.5t54 58.5t69.5 33.5t89 11
q134 0 209.5 -70t75.5 -191q0 -102 -53.5 -160.5t-147.5 -58.5h-527zM87 0v314q0 29 -14.5 45.5t-28.5 20.5q5 17 25.5 35t61.5 18q31 0 48.5 -11t25.5 -27.5t10 -32t2 -24.5v-338h-130zM0 0q-10 0 -15 14.5t-5 38.5t5 38.5t15 14.5v-106zM845 0v106q11 0 15.5 -14.5
t4.5 -38.5t-4.5 -38.5t-15.5 -14.5z" />
    <glyph glyph-name="uniFEBE" unicode="&#x636;" horiz-adv-x="1271" arabic-form="final" 
d="M1220 0q-56 0 -100.5 25t-70 69t-25.5 99l130 25v-25q0 -20 7 -40.5t22 -33.5t37 -13h51v-106h-51zM372 -236q-94 0 -163 31.5t-106.5 91t-37.5 143.5q0 36 7.5 72t22.5 66t37.5 48t53.5 18q26 0 43 -11t25.5 -25t8.5 -25q-16 -12 -32 -29t-26 -44.5t-10 -70.5
q0 -80 43 -119.5t134 -39.5q77 0 109 33t32 119v289q0 29 -14.5 45.5t-28.5 20.5q5 17 25.5 35t61.5 18q31 0 48.5 -11t25.5 -27.5t10 -32t2 -24.5v-313q0 -118 -64 -188t-207 -70zM642 0v106h311q32 0 51.5 26t19.5 85q0 83 -39.5 120t-111.5 37q-56 0 -95.5 -18.5t-66 -48
t-42.5 -64t-26 -66.5h-64q16 65 35 114.5t42.5 85.5t54 58.5t69.5 33.5t89 11q134 0 209.5 -70t75.5 -191q0 -102 -53.5 -160.5t-147.5 -58.5h-311zM1271 0v106q11 0 15.5 -14.5t4.5 -38.5t-4.5 -38.5t-15.5 -14.5zM830 545q-31 0 -52.5 21.5t-21.5 50.5q0 30 21.5 51
t52.5 21q29 0 50.5 -21t21.5 -51q0 -29 -21.5 -50.5t-50.5 -21.5z" />
    <glyph glyph-name="uniFEBF" unicode="&#x636;" horiz-adv-x="793" arabic-form="initial" 
d="M0 0v106h527q32 0 51.5 26t19.5 85q0 83 -39.5 120t-111.5 37q-56 0 -95.5 -18.5t-66 -48t-42.5 -64t-26 -66.5h-64q16 65 35 114.5t42.5 85.5t54 58.5t69.5 33.5t89 11q134 0 209.5 -70t75.5 -191q0 -102 -53.5 -160.5t-147.5 -58.5h-527zM87 0v314q0 29 -14.5 45.5
t-28.5 20.5q5 17 25.5 35t61.5 18q31 0 48.5 -11t25.5 -27.5t10 -32t2 -24.5v-338h-130zM0 0q-10 0 -15 14.5t-5 38.5t5 38.5t15 14.5v-106zM404 548q-31 0 -52.5 21.5t-21.5 50.5q0 30 21.5 51t52.5 21q29 0 50.5 -21t21.5 -51q0 -29 -21.5 -50.5t-50.5 -21.5z" />
    <glyph glyph-name="uniFEC0" unicode="&#x636;" horiz-adv-x="845" arabic-form="medial" 
d="M794 0q-56 0 -100.5 25t-70 69t-25.5 99l130 25v-25q0 -20 7 -40.5t22 -33.5t37 -13h51v-106h-51zM0 0v106h527q32 0 51.5 26t19.5 85q0 83 -39.5 120t-111.5 37q-56 0 -95.5 -18.5t-66 -48t-42.5 -64t-26 -66.5h-64q16 65 35 114.5t42.5 85.5t54 58.5t69.5 33.5t89 11
q134 0 209.5 -70t75.5 -191q0 -102 -53.5 -160.5t-147.5 -58.5h-527zM87 0v314q0 29 -14.5 45.5t-28.5 20.5q5 17 25.5 35t61.5 18q31 0 48.5 -11t25.5 -27.5t10 -32t2 -24.5v-338h-130zM0 0q-10 0 -15 14.5t-5 38.5t5 38.5t15 14.5v-106zM845 0v106q11 0 15.5 -14.5
t4.5 -38.5t-4.5 -38.5t-15.5 -14.5zM404 548q-31 0 -52.5 21.5t-21.5 50.5q0 30 21.5 51t52.5 21q29 0 50.5 -21t21.5 -51q0 -29 -21.5 -50.5t-50.5 -21.5z" />
    <glyph glyph-name="uniFEC2" unicode="&#x637;" horiz-adv-x="888" arabic-form="final" 
d="M837 0q-56 0 -100.5 25t-70 69t-25.5 99l130 23v-23q0 -20 7 -40.5t22 -33.5t37 -13h51v-106h-51zM55 0q-15 0 -22.5 11t-10 24t-2.5 18t2.5 18t10 24t22.5 11h464q37 0 64.5 14t43 41.5t15.5 65.5q0 50 -23.5 83t-60.5 49t-79 16q-50 0 -89 -20t-68 -50.5t-49 -63.5
t-30.5 -60.5t-13.5 -40.5l2 149q12 30 36 63t59 62.5t80 47.5t100 18q46 0 93 -15t86 -47t62.5 -81t23.5 -118q0 -40 -10 -79t-34 -70.5t-64.5 -50.5t-101.5 -19h-506zM104 84v429q0 36 -9 52t-20 21t-17 8q0 9 7.5 24.5t25 28.5t46.5 13q30 0 51.5 -15.5t33.5 -42.5t12 -62
v-456h-130zM888 0v106q11 0 15.5 -14.5t4.5 -38.5t-4.5 -38.5t-15.5 -14.5z" />
    <glyph glyph-name="uniFEC3" unicode="&#x637;" horiz-adv-x="845" arabic-form="initial" 
d="M0 0v106h528q37 0 64.5 14t43 41.5t15.5 65.5q0 50 -23.5 83t-60.5 49t-79 16q-50 0 -89 -20t-68 -50.5t-49 -63.5t-30.5 -60.5t-13.5 -40.5l2 149q12 30 36 63t59 62.5t80 47.5t100 18q46 0 93 -15t86 -47t62.5 -81t23.5 -118q0 -40 -10 -79t-34 -70.5t-64.5 -50.5
t-101.5 -19h-570zM113 84v429q0 36 -9 52t-20 21t-17 8q0 9 7.5 24.5t25 28.5t46.5 13q30 0 51.5 -15.5t33.5 -42.5t12 -62v-456h-130zM0 0q-10 0 -15 14.5t-5 38.5t5 38.5t15 14.5v-106z" />
    <glyph glyph-name="uniFEC4" unicode="&#x637;" horiz-adv-x="897" arabic-form="medial" 
d="M846 0q-56 0 -100.5 25t-70 69t-25.5 99l130 23v-23q0 -20 7 -40.5t22 -33.5t37 -13h51v-106h-51zM0 0v106h528q37 0 64.5 14t43 41.5t15.5 65.5q0 50 -23.5 83t-60.5 49t-79 16q-50 0 -89 -20t-68 -50.5t-49 -63.5t-30.5 -60.5t-13.5 -40.5l2 149q12 30 36 63t59 62.5
t80 47.5t100 18q46 0 93 -15t86 -47t62.5 -81t23.5 -118q0 -40 -10 -79t-34 -70.5t-64.5 -50.5t-101.5 -19h-570zM113 84v429q0 36 -9 52t-20 21t-17 8q0 9 7.5 24.5t25 28.5t46.5 13q30 0 51.5 -15.5t33.5 -42.5t12 -62v-456h-130zM0 0q-10 0 -15 14.5t-5 38.5t5 38.5
t15 14.5v-106zM897 0v106q11 0 15.5 -14.5t4.5 -38.5t-4.5 -38.5t-15.5 -14.5z" />
    <glyph glyph-name="uniFEC6" unicode="&#x638;" horiz-adv-x="888" arabic-form="final" 
d="M837 0q-56 0 -100.5 25t-70 69t-25.5 99l130 23v-23q0 -20 7 -40.5t22 -33.5t37 -13h51v-106h-51zM55 0q-15 0 -22.5 11t-10 24t-2.5 18t2.5 18t10 24t22.5 11h464q37 0 64.5 14t43 41.5t15.5 65.5q0 50 -23.5 83t-60.5 49t-79 16q-50 0 -89 -20t-68 -50.5t-49 -63.5
t-30.5 -60.5t-13.5 -40.5l2 149q12 30 36 63t59 62.5t80 47.5t100 18q46 0 93 -15t86 -47t62.5 -81t23.5 -118q0 -40 -10 -79t-34 -70.5t-64.5 -50.5t-101.5 -19h-506zM104 84v429q0 36 -9 52t-20 21t-17 8q0 9 7.5 24.5t25 28.5t46.5 13q30 0 51.5 -15.5t33.5 -42.5t12 -62
v-456h-130zM888 0v106q11 0 15.5 -14.5t4.5 -38.5t-4.5 -38.5t-15.5 -14.5zM419 545q-31 0 -52.5 21.5t-21.5 50.5q0 30 21.5 51t52.5 21q29 0 50.5 -21t21.5 -51q0 -29 -21.5 -50.5t-50.5 -21.5z" />
    <glyph glyph-name="uniFEC7" unicode="&#x638;" horiz-adv-x="845" arabic-form="initial" 
d="M0 0v106h528q37 0 64.5 14t43 41.5t15.5 65.5q0 50 -23.5 83t-60.5 49t-79 16q-50 0 -89 -20t-68 -50.5t-49 -63.5t-30.5 -60.5t-13.5 -40.5l2 149q12 30 36 63t59 62.5t80 47.5t100 18q46 0 93 -15t86 -47t62.5 -81t23.5 -118q0 -40 -10 -79t-34 -70.5t-64.5 -50.5
t-101.5 -19h-570zM113 84v429q0 36 -9 52t-20 21t-17 8q0 9 7.5 24.5t25 28.5t46.5 13q30 0 51.5 -15.5t33.5 -42.5t12 -62v-456h-130zM0 0q-10 0 -15 14.5t-5 38.5t5 38.5t15 14.5v-106zM419 545q-31 0 -52.5 21.5t-21.5 50.5q0 30 21.5 51t52.5 21q29 0 50.5 -21t21.5 -51
q0 -29 -21.5 -50.5t-50.5 -21.5z" />
    <glyph glyph-name="uniFEC8" unicode="&#x638;" horiz-adv-x="897" arabic-form="medial" 
d="M846 0q-56 0 -100.5 25t-70 69t-25.5 99l130 23v-23q0 -20 7 -40.5t22 -33.5t37 -13h51v-106h-51zM0 0v106h528q37 0 64.5 14t43 41.5t15.5 65.5q0 50 -23.5 83t-60.5 49t-79 16q-50 0 -89 -20t-68 -50.5t-49 -63.5t-30.5 -60.5t-13.5 -40.5l2 149q12 30 36 63t59 62.5
t80 47.5t100 18q46 0 93 -15t86 -47t62.5 -81t23.5 -118q0 -40 -10 -79t-34 -70.5t-64.5 -50.5t-101.5 -19h-570zM113 84v429q0 36 -9 52t-20 21t-17 8q0 9 7.5 24.5t25 28.5t46.5 13q30 0 51.5 -15.5t33.5 -42.5t12 -62v-456h-130zM0 0q-10 0 -15 14.5t-5 38.5t5 38.5
t15 14.5v-106zM897 0v106q11 0 15.5 -14.5t4.5 -38.5t-4.5 -38.5t-15.5 -14.5zM419 545q-31 0 -52.5 21.5t-21.5 50.5q0 30 21.5 51t52.5 21q29 0 50.5 -21t21.5 -51q0 -29 -21.5 -50.5t-50.5 -21.5z" />
    <glyph glyph-name="uniFECA" unicode="&#x639;" horiz-adv-x="660" arabic-form="final" 
d="M186 -266q-31 0 -54 18t-37.5 48.5t-22 70.5t-7.5 83q0 80 36 116t103 36q53 0 101.5 16t87 42.5t60.5 60t22 68.5q0 39 -31 60t-97 21q-67 0 -98.5 -20.5t-31.5 -60.5q0 -35 22.5 -68.5t60.5 -60t87 -42.5t101 -16h172v-106h-172q-69 0 -140 22t-130 61.5t-95 93
t-36 116.5q0 50 23 85.5t61.5 58t84 33t90.5 10.5t90.5 -10.5t83.5 -32.5t61.5 -57.5t23.5 -86.5q0 -63 -35.5 -116.5t-94.5 -93t-130 -61.5t-141 -22h-30l30 37q-4 -16 -6.5 -37t-2.5 -47q0 -49 8.5 -78t24 -46.5t35.5 -33.5q0 -10 -8.5 -24.5t-25.5 -25.5t-43 -11zM660 0
v106q11 0 15.5 -14.5t4.5 -38.5t-4.5 -38.5t-15.5 -14.5z" />
    <glyph glyph-name="uniFECB" unicode="&#x639;" horiz-adv-x="509" arabic-form="initial" 
d="M0 0v106h158l-41 -34q-28 29 -44 70.5t-16 93.5q0 68 24 114.5t60.5 75t73.5 41.5t64 13q14 0 41 -4.5t55.5 -16.5t48.5 -34.5t20 -57.5q0 -38 -22.5 -56t-48.5 -18q-15 0 -33.5 5t-29.5 9q0 33 -12.5 51t-28 24t-25.5 2l18 4q-14 -7 -32 -24t-30.5 -47t-12.5 -77
q0 -63 27 -98.5t78 -35.5h96q20 0 38 -11.5t18 -41.5t-18 -41.5t-38 -11.5h-388zM0 0q-10 0 -15 14.5t-5 38.5t5 38.5t15 14.5v-106z" />
    <glyph glyph-name="uniFECC" unicode="&#x639;" horiz-adv-x="628" arabic-form="medial" 
d="M0 0v106h172q53 0 101.5 16t87 42.5t60.5 60t22 68.5q0 39 -31 60t-98 21q-66 0 -97.5 -20.5t-31.5 -60.5q0 -35 22.5 -68.5t60.5 -60t87 -42.5t101 -16h172v-106h-172q-69 0 -140 22t-130 61.5t-95 93t-36 116.5q0 50 23 85.5t61.5 58t84 33t90.5 10.5t90.5 -10.5
t83.5 -32.5t61.5 -57.5t23.5 -86.5q0 -63 -35.5 -116.5t-94.5 -93t-130 -61.5t-141 -22h-172zM0 0q-10 0 -15 14.5t-5 38.5t5 38.5t15 14.5v-106zM628 0v106q11 0 15.5 -14.5t4.5 -38.5t-4.5 -38.5t-15.5 -14.5z" />
    <glyph glyph-name="uniFECE" unicode="&#x63a;" horiz-adv-x="660" arabic-form="final" 
d="M186 -266q-31 0 -54 18t-37.5 48.5t-22 70.5t-7.5 83q0 80 36 116t103 36q53 0 101.5 16t87 42.5t60.5 60t22 68.5q0 39 -31 60t-97 21q-67 0 -98.5 -20.5t-31.5 -60.5q0 -35 22.5 -68.5t60.5 -60t87 -42.5t101 -16h172v-106h-172q-69 0 -140 22t-130 61.5t-95 93
t-36 116.5q0 50 23 85.5t61.5 58t84 33t90.5 10.5t90.5 -10.5t83.5 -32.5t61.5 -57.5t23.5 -86.5q0 -63 -35.5 -116.5t-94.5 -93t-130 -61.5t-141 -22h-30l30 37q-4 -16 -6.5 -37t-2.5 -47q0 -49 8.5 -78t24 -46.5t35.5 -33.5q0 -10 -8.5 -24.5t-25.5 -25.5t-43 -11zM660 0
v106q11 0 15.5 -14.5t4.5 -38.5t-4.5 -38.5t-15.5 -14.5zM346 545q-31 0 -52.5 21.5t-21.5 50.5q0 30 21.5 51t52.5 21q29 0 50.5 -21t21.5 -51q0 -29 -21.5 -50.5t-50.5 -21.5z" />
    <glyph glyph-name="uniFECF" unicode="&#x63a;" horiz-adv-x="509" arabic-form="initial" 
d="M0 0v106h158l-41 -34q-28 29 -44 70.5t-16 93.5q0 68 24 114.5t60.5 75t73.5 41.5t64 13q14 0 41 -4.5t55.5 -16.5t48.5 -34.5t20 -57.5q0 -38 -22.5 -56t-48.5 -18q-15 0 -33.5 5t-29.5 9q0 33 -12.5 51t-28 24t-25.5 2l18 4q-14 -7 -32 -24t-30.5 -47t-12.5 -77
q0 -63 27 -98.5t78 -35.5h96q20 0 38 -11.5t18 -41.5t-18 -41.5t-38 -11.5h-388zM0 0q-10 0 -15 14.5t-5 38.5t5 38.5t15 14.5v-106zM279 545q-31 0 -52.5 21.5t-21.5 50.5q0 30 21.5 51t52.5 21q29 0 50.5 -21t21.5 -51q0 -29 -21.5 -50.5t-50.5 -21.5z" />
    <glyph glyph-name="uniFED0" unicode="&#x63a;" horiz-adv-x="628" arabic-form="medial" 
d="M0 0v106h172q53 0 101.5 16t87 42.5t60.5 60t22 68.5q0 39 -31 60t-98 21q-66 0 -97.5 -20.5t-31.5 -60.5q0 -35 22.5 -68.5t60.5 -60t87 -42.5t101 -16h172v-106h-172q-69 0 -140 22t-130 61.5t-95 93t-36 116.5q0 50 23 85.5t61.5 58t84 33t90.5 10.5t90.5 -10.5
t83.5 -32.5t61.5 -57.5t23.5 -86.5q0 -63 -35.5 -116.5t-94.5 -93t-130 -61.5t-141 -22h-172zM0 0q-10 0 -15 14.5t-5 38.5t5 38.5t15 14.5v-106zM628 0v106q11 0 15.5 -14.5t4.5 -38.5t-4.5 -38.5t-15.5 -14.5zM314 545q-31 0 -52.5 21.5t-21.5 50.5q0 30 21.5 51t52.5 21
q29 0 50.5 -21t21.5 -51q0 -29 -21.5 -50.5t-50.5 -21.5z" />
    <glyph glyph-name="uniFED2" unicode="&#x641;" horiz-adv-x="1038" arabic-form="final" 
d="M987 0q-56 0 -100.5 25t-70 69t-25.5 99h130q0 -20 7 -40.5t22 -33.5t37 -13h51v-106h-51zM267 0q-68 0 -113 25t-67 73.5t-22 118.5t18.5 110t47 56.5t58.5 16.5q39 0 57 -19.5t19 -38.5q-14 -7 -30.5 -25.5t-28 -48.5t-11.5 -73q0 -26 6.5 -43t17 -27t23.5 -14.5
t27 -4.5h452q34 0 52 21t18 61v181q-7 2 -20 3.5t-28 1.5q-52 0 -78 -31t-26 -102q0 -64 23.5 -97t69.5 -38l-13 -105q-58 6 -105.5 33.5t-76 79t-28.5 127.5q0 113 63.5 176t170.5 63q79 0 128.5 -31.5t49.5 -79.5v-181q0 -54 -25.5 -96.5t-70.5 -67t-104 -24.5h-454z
M1038 0v106q11 0 15.5 -14.5t4.5 -38.5t-4.5 -38.5t-15.5 -14.5zM744 545q-31 0 -52.5 21.5t-21.5 50.5q0 30 21.5 51t52.5 21q29 0 50.5 -21t21.5 -51q0 -29 -21.5 -50.5t-50.5 -21.5z" />
    <glyph glyph-name="uniFED3" unicode="&#x641;" horiz-adv-x="537" arabic-form="initial" 
d="M0 0v106h272q34 0 52 21t18 61v181q-7 2 -20 3.5t-28 1.5q-52 0 -78 -31t-26 -102q0 -64 23.5 -97t69.5 -38l-13 -105q-58 6 -105.5 33.5t-76 79t-28.5 127.5q0 113 63.5 176t170.5 63q79 0 128.5 -31.5t49.5 -79.5v-181q0 -54 -25.5 -96.5t-70.5 -67t-104 -24.5h-272z
M0 0q-10 0 -15 14.5t-5 38.5t5 38.5t15 14.5v-106zM295 545q-31 0 -52.5 21.5t-21.5 50.5q0 30 21.5 51t52.5 21q29 0 50.5 -21t21.5 -51q0 -29 -21.5 -50.5t-50.5 -21.5z" />
    <glyph glyph-name="uniFED4" unicode="&#x641;" horiz-adv-x="589" arabic-form="medial" 
d="M538 0q-56 0 -100.5 25t-70 69t-25.5 99h130q0 -20 7 -40.5t22 -33.5t37 -13h51v-106h-51zM0 0v106h272q34 0 52 21t18 61v181q-7 2 -20 3.5t-28 1.5q-52 0 -78 -31t-26 -102q0 -64 23.5 -97t69.5 -38l-13 -105q-58 6 -105.5 33.5t-76 79t-28.5 127.5q0 113 63.5 176
t170.5 63q79 0 128.5 -31.5t49.5 -79.5v-181q0 -54 -25.5 -96.5t-70.5 -67t-104 -24.5h-272zM0 0q-10 0 -15 14.5t-5 38.5t5 38.5t15 14.5v-106zM589 0v106q11 0 15.5 -14.5t4.5 -38.5t-4.5 -38.5t-15.5 -14.5zM295 545q-31 0 -52.5 21.5t-21.5 50.5q0 30 21.5 51t52.5 21
q29 0 50.5 -21t21.5 -51q0 -29 -21.5 -50.5t-50.5 -21.5z" />
    <glyph glyph-name="uniFED6" unicode="&#x642;" horiz-adv-x="975" arabic-form="final" 
d="M833 0v106h142v-106h-142zM489 -236q-85 0 -153.5 18t-117 52.5t-74.5 85t-26 115.5q0 34 7.5 69t22.5 64.5t38 47.5t54 18q25 0 42 -11t25.5 -25t8.5 -25q-14 -10 -30 -26.5t-27 -43.5t-11 -69q0 -59 26 -95.5t75.5 -52.5t118.5 -16q65 0 111 12t75 33t42.5 48.5
t13.5 58.5l30 -22h-88q-58 0 -105.5 28.5t-76 82.5t-28.5 130q0 113 63.5 176t170.5 63q79 0 128.5 -31.5t49.5 -79.5v-273q0 -94 -28 -158t-77.5 -102.5t-116 -55t-143.5 -16.5zM724 92v277q-7 2 -20 3.5t-27 1.5q-52 0 -78.5 -31t-26.5 -101q0 -66 23.5 -101t69.5 -35h67z
M975 0v106q11 0 15.5 -14.5t4.5 -38.5t-4.5 -38.5t-15.5 -14.5zM757 550q-26 0 -45.5 19t-19.5 46t19.5 46t45.5 19q28 0 46.5 -19t18.5 -46t-18.5 -46t-46.5 -19zM595 550q-26 0 -45.5 19t-19.5 46t19.5 46t45.5 19q27 0 46 -19t19 -46t-19 -46t-46 -19z" />
    <glyph glyph-name="uniFED7" unicode="&#x642;" horiz-adv-x="537" arabic-form="initial" 
d="M0 0v106h272q34 0 52 21t18 61v181q-7 2 -20 3.5t-28 1.5q-52 0 -78 -31t-26 -102q0 -64 23.5 -97t69.5 -38l-13 -105q-58 6 -105.5 33.5t-76 79t-28.5 127.5q0 113 63.5 176t170.5 63q79 0 128.5 -31.5t49.5 -79.5v-181q0 -54 -25.5 -96.5t-70.5 -67t-104 -24.5h-272z
M0 0q-10 0 -15 14.5t-5 38.5t5 38.5t15 14.5v-106zM375 550q-26 0 -45.5 19t-19.5 46t19.5 46t45.5 19q28 0 46.5 -19t18.5 -46t-18.5 -46t-46.5 -19zM213 550q-26 0 -45.5 19t-19.5 46t19.5 46t45.5 19q27 0 46 -19t19 -46t-19 -46t-46 -19z" />
    <glyph glyph-name="uniFED8" unicode="&#x642;" horiz-adv-x="589" arabic-form="medial" 
d="M538 0q-56 0 -100.5 25t-70 69t-25.5 99h130q0 -20 7 -40.5t22 -33.5t37 -13h51v-106h-51zM0 0v106h272q34 0 52 21t18 61v181q-7 2 -20 3.5t-28 1.5q-52 0 -78 -31t-26 -102q0 -64 23.5 -97t69.5 -38l-13 -105q-58 6 -105.5 33.5t-76 79t-28.5 127.5q0 113 63.5 176
t170.5 63q79 0 128.5 -31.5t49.5 -79.5v-181q0 -54 -25.5 -96.5t-70.5 -67t-104 -24.5h-272zM0 0q-10 0 -15 14.5t-5 38.5t5 38.5t15 14.5v-106zM589 0v106q11 0 15.5 -14.5t4.5 -38.5t-4.5 -38.5t-15.5 -14.5zM375 550q-26 0 -45.5 19t-19.5 46t19.5 46t45.5 19
q28 0 46.5 -19t18.5 -46t-18.5 -46t-46.5 -19zM213 550q-26 0 -45.5 19t-19.5 46t19.5 46t45.5 19q27 0 46 -19t19 -46t-19 -46t-46 -19z" />
    <glyph glyph-name="uniFEDA" unicode="&#x643;" horiz-adv-x="887" arabic-form="final" 
d="M836 0q-56 0 -100.5 25t-70 69t-25.5 99h130q0 -20 7 -40.5t22 -33.5t37 -13h51v-106h-51zM195 0q-44 0 -73 22.5t-43 58.5t-14 79v93q0 23 14 44.5t51 21.5t51 -21.5t14 -44.5v-83q0 -32 11.5 -48t31.5 -16h336q23 0 37.5 13t21.5 33.5t7 40.5v320q0 36 -9 52t-20 21
t-17 8q0 9 7.5 24.5t25 28.5t46.5 13q30 0 51.5 -15.5t33.5 -42.5t12 -62v-347q0 -55 -25.5 -99t-69.5 -69t-101 -25h-379zM887 0v106q11 0 15.5 -14.5t4.5 -38.5t-4.5 -38.5t-15.5 -14.5zM340 311q-12 3 -19.5 14t-6.5 24t13 22.5t39 9.5q-13 6 -27 23.5t-14 42.5
q0 21 11 43.5t34.5 38t61.5 15.5q20 0 35 -5.5t23.5 -16.5t8.5 -29q0 -19 -9.5 -26.5t-22.5 -7t-26 5.5q1 12 -4.5 25t-21.5 13q-6 -7 -12.5 -19.5t-6.5 -26.5q0 -15 8 -29t23 -23.5t35 -9.5q12 0 22 2.5t17 2.5q15 0 20 -13.5t0.5 -27t-16.5 -14.5q-4 0 -22 -1t-42 -3
t-47 -6t-38.5 -10t-15.5 -14z" />
    <glyph glyph-name="uniFEDB" unicode="&#x643;" horiz-adv-x="656" arabic-form="initial" 
d="M0 0v106h392q19 0 33.5 15t14.5 49q0 35 -14.5 50.5t-33.5 15.5h-155q-62 0 -113 22.5t-81.5 62t-30.5 89.5q0 51 30.5 90.5t81.5 62t113 22.5h202q44 0 68 13.5t36 23.5q3 -19 -1.5 -43t-17 -47t-33.5 -38t-52 -15h-202q-42 0 -68.5 -19.5t-26.5 -49.5q0 -29 26.5 -48.5
t68.5 -19.5h175q47 0 82.5 -22.5t55.5 -61t20 -88.5q0 -49 -20 -87.5t-55.5 -60.5t-82.5 -22h-412zM0 0q-10 0 -15 14.5t-5 38.5t5 38.5t15 14.5v-106z" />
    <glyph glyph-name="uniFEDC" unicode="&#x643;" horiz-adv-x="686" arabic-form="medial" 
d="M635 0q-53 0 -95 22t-68.5 61t-31.5 89l129 18q1 -30 17 -57t49 -27h51v-106h-51zM0 0v106h392q19 0 33.5 15t14.5 49q0 35 -14.5 50.5t-33.5 15.5h-155q-62 0 -113 22.5t-81.5 62t-30.5 89.5q0 51 30.5 90.5t81.5 62t113 22.5h202q44 0 68 13.5t36 23.5q3 -19 -1.5 -43
t-17 -47t-33.5 -38t-52 -15h-202q-42 0 -68.5 -19.5t-26.5 -49.5q0 -29 26.5 -48.5t68.5 -19.5h175q47 0 82.5 -22.5t55.5 -61t20 -88.5q0 -49 -20 -87.5t-55.5 -60.5t-82.5 -22h-412zM0 0q-10 0 -15 14.5t-5 38.5t5 38.5t15 14.5v-106zM686 0v106q11 0 15.5 -14.5
t4.5 -38.5t-4.5 -38.5t-15.5 -14.5z" />
    <glyph glyph-name="uniFEDE" unicode="&#x644;" horiz-adv-x="760" arabic-form="final" 
d="M709 0q-56 0 -100.5 25t-70 69t-25.5 99h130q0 -20 7 -40.5t22 -33.5t37 -13h51v-106h-51zM372 -236q-94 0 -163 31.5t-106.5 91t-37.5 143.5q0 36 7.5 72t22.5 66t37.5 48t53.5 18q26 0 43 -11t25.5 -25t8.5 -25q-20 -15 -35.5 -32.5t-24 -46t-8.5 -76.5
q0 -72 45.5 -110t133.5 -38q76 0 107.5 33.5t31.5 118.5v491q0 36 -9 52t-20 21t-17 8q0 9 7.5 24.5t25 28.5t46.5 13q30 0 51.5 -15.5t33.5 -42.5t12 -62v-518q0 -118 -64 -188t-207 -70zM760 0v106q11 0 15.5 -14.5t4.5 -38.5t-4.5 -38.5t-15.5 -14.5z" />
    <glyph glyph-name="uniFEDF" unicode="&#x644;" horiz-adv-x="305" arabic-form="initial" 
d="M0 0v106h51q23 0 37.5 13t21.5 33.5t7 40.5v320q0 36 -9 52t-20 21t-17 8q0 9 7.5 24.5t25 28.5t46.5 13q30 0 51.5 -15.5t33.5 -42.5t12 -62v-347q0 -55 -25.5 -99t-69.5 -69t-101 -25h-51zM0 0q-10 0 -15 14.5t-5 38.5t5 38.5t15 14.5v-106z" />
    <glyph glyph-name="uniFEE0" unicode="&#x644;" horiz-adv-x="364" arabic-form="medial" 
d="M313 0q-56 0 -100.5 25t-70 69t-25.5 99h130q0 -20 7 -40.5t22 -33.5t37 -13h51v-106h-51zM0 0v106h51q23 0 37.5 13t21.5 33.5t7 40.5v320q0 36 -9 52t-20 21t-17 8q0 9 7.5 24.5t25 28.5t46.5 13q30 0 51.5 -15.5t33.5 -42.5t12 -62v-347q0 -55 -25.5 -99t-69.5 -69
t-101 -25h-51zM0 0q-10 0 -15 14.5t-5 38.5t5 38.5t15 14.5v-106zM364 0v106q11 0 15.5 -14.5t4.5 -38.5t-4.5 -38.5t-15.5 -14.5z" />
    <glyph glyph-name="uniFEE2" unicode="&#x645;" horiz-adv-x="693" arabic-form="final" 
d="M642 0q-56 0 -100.5 25t-70 69t-25.5 99v44h130v-44q0 -20 7 -40.5t22 -33.5t37 -13h51v-106h-51zM119 -278q-29 0 -46.5 13t-25 29t-7.5 24q6 3 17 8t20 21.5t9 51.5v69q0 49 28 87t75 59.5t105 21.5h59q46 0 69.5 35t23.5 101q0 70 -26 101t-79 31q-13 0 -26.5 -1.5
t-20.5 -3.5v-369h-130v369q0 48 49.5 79.5t128.5 31.5q107 0 170.5 -63t63.5 -176q0 -76 -28 -130t-75.5 -82.5t-106.5 -28.5h-72q-26 0 -43.5 -8.5t-26 -22.5t-8.5 -31v-96q0 -35 -12 -62t-33.5 -42.5t-51.5 -15.5zM693 0v106q11 0 15.5 -14.5t4.5 -38.5t-4.5 -38.5
t-15.5 -14.5z" />
    <glyph glyph-name="uniFEE3" unicode="&#x645;" horiz-adv-x="535" arabic-form="initial" 
d="M0 0v106h252q46 0 69.5 35.5t23.5 99.5q0 71 -26 102t-78 31q-15 0 -28 -1.5t-20 -3.5v-369h-130v369q0 48 49.5 79.5t128.5 31.5q107 0 170.5 -63t63.5 -176q0 -76 -28 -130t-75.5 -82.5t-106.5 -28.5h-265zM0 0q-10 0 -15 14.5t-5 38.5t5 38.5t15 14.5v-106z" />
    <glyph glyph-name="uniFEE4" unicode="&#x645;" horiz-adv-x="592" arabic-form="medial" 
d="M541 0q-56 0 -100.5 25t-70 69t-25.5 99v44h130v-44q0 -20 7 -40.5t22 -33.5t37 -13h51v-106h-51zM0 0v106h252q46 0 69.5 35.5t23.5 99.5q0 71 -26 102t-78 31q-15 0 -28 -1.5t-20 -3.5v-369h-130v369q0 48 49.5 79.5t128.5 31.5q107 0 170.5 -63t63.5 -176
q0 -76 -28 -130t-75.5 -82.5t-106.5 -28.5h-265zM0 0q-10 0 -15 14.5t-5 38.5t5 38.5t15 14.5v-106zM592 0v106q11 0 15.5 -14.5t4.5 -38.5t-4.5 -38.5t-15.5 -14.5z" />
    <glyph glyph-name="uniFEE6" unicode="&#x646;" horiz-adv-x="760" arabic-form="final" 
d="M709 0q-56 0 -100.5 25t-70 69t-25.5 99h130q0 -20 7 -40.5t22 -33.5t37 -13h51v-106h-51zM372 -236q-94 0 -163 31.5t-106.5 91t-37.5 143.5q0 36 7.5 72t22.5 66t37.5 48t53.5 18q26 0 43 -11t25.5 -25t8.5 -25q-20 -15 -35.5 -32.5t-24 -46t-8.5 -76.5
q0 -72 45.5 -110t133.5 -38q76 0 107.5 33.5t31.5 118.5v390q0 25 14 46.5t51 21.5t51 -21.5t14 -46.5v-390q0 -118 -64 -188t-207 -70zM760 0v106q11 0 15.5 -14.5t4.5 -38.5t-4.5 -38.5t-15.5 -14.5zM355 480q-31 0 -52.5 21.5t-21.5 50.5q0 30 21.5 51t52.5 21
q29 0 50.5 -21t21.5 -51q0 -29 -21.5 -50.5t-50.5 -21.5z" />
    <glyph glyph-name="uniFEE7" unicode="&#x646;" horiz-adv-x="356" arabic-form="initial" 
d="M0 0v106h92q11 0 21 6t19 17.5t15.5 30t10 44t3.5 57.5q0 49 -8.5 78t-23.5 47t-36 33q0 11 8.5 25t26 25t42.5 11q31 0 54 -18t37.5 -48.5t22 -70t7.5 -83.5q0 -121 -52 -190.5t-147 -69.5h-92zM0 0q-10 0 -15 14.5t-5 38.5t5 38.5t15 14.5v-106zM171 545
q-31 0 -52.5 21.5t-21.5 50.5q0 30 21.5 51t52.5 21q29 0 50.5 -21t21.5 -51q0 -29 -21.5 -50.5t-50.5 -21.5z" />
    <glyph glyph-name="uniFEE8" unicode="&#x646;" horiz-adv-x="364" arabic-form="medial" 
d="M0 0v106h51q23 0 37.5 13t21.5 33.5t7 40.5v221q0 23 14 44.5t51 21.5t51 -21.5t14 -44.5v-221q0 -55 -25.5 -99t-69.5 -69t-101 -25h-51zM313 0q-56 0 -100.5 25t-70 69t-25.5 99h130q0 -20 7 -40.5t22 -33.5t37 -13h51v-106h-51zM364 0v106q11 0 15.5 -14.5t4.5 -38.5
t-4.5 -38.5t-15.5 -14.5zM0 0q-10 0 -15 14.5t-5 38.5t5 38.5t15 14.5v-106zM183 545q-31 0 -52.5 21.5t-21.5 50.5q0 30 21.5 51t52.5 21q29 0 50.5 -21t21.5 -51q0 -29 -21.5 -50.5t-50.5 -21.5z" />
    <glyph glyph-name="uniFEEA" unicode="&#x647;" horiz-adv-x="535" arabic-form="final" 
d="M270 0q-58 0 -106 28.5t-76 82.5t-28 130q0 113 63.5 176t170.5 63q79 0 128.5 -31.5t49.5 -79.5v-369h-130v369q-7 2 -20 3.5t-28 1.5q-52 0 -78 -31t-26 -102q0 -64 23.5 -99.5t69.5 -35.5h252v-106h-265zM535 0v106q11 0 15.5 -14.5t4.5 -38.5t-4.5 -38.5t-15.5 -14.5
z" />
    <glyph glyph-name="uniFEEB" unicode="&#x647;" horiz-adv-x="722" arabic-form="initial" 
d="M0 0v106h93q101 0 139.5 33.5t38.5 110.5q0 44 -10.5 56t-32.5 12t-32.5 -12t-10.5 -56q0 -77 38.5 -110.5t139.5 -33.5h51q51 0 82 46.5t31 135.5q0 68 -23 108t-79.5 57.5t-157.5 17.5q-22 0 -40.5 -0.5t-26.5 -0.5q-38 0 -61 15.5t-33 39.5t-10 48q0 25 7.5 33t17.5 8
q5 -16 25 -27.5t63 -11.5q14 0 26 1t40 1q201 0 291.5 -74.5t90.5 -217.5q0 -95 -34 -158.5t-89 -95t-120 -31.5h-51q-85 0 -155 24t-111.5 77.5t-41.5 139.5q0 52 17.5 93t55.5 65.5t100 24.5t100 -24.5t55.5 -65.5t17.5 -93q0 -86 -41.5 -139.5t-111.5 -77.5t-155 -24h-93
zM0 0q-10 0 -15 14.5t-5 38.5t5 38.5t15 14.5v-106z" />
    <glyph glyph-name="uniFEEC" unicode="&#x647;" horiz-adv-x="774" arabic-form="medial" 
d="M723 0q-56 0 -100.5 25t-70 69t-25.5 99v44l130 44v-88q0 -20 7 -40.5t22 -33.5t37 -13h51v-106h-51zM0 0v106h93q101 0 139.5 33.5t38.5 110.5q0 44 -10.5 56t-32.5 12t-32.5 -12t-10.5 -56q0 -77 38.5 -110.5t139.5 -33.5h51q51 0 82 46.5t31 135.5q0 68 -23 108
t-79.5 57.5t-157.5 17.5q-22 0 -40.5 -0.5t-26.5 -0.5q-38 0 -61 15.5t-33 39.5t-10 48q0 25 7.5 33t17.5 8q5 -16 25 -27.5t63 -11.5q14 0 26 1t40 1q201 0 291.5 -74.5t90.5 -217.5q0 -95 -34 -158.5t-89 -95t-120 -31.5h-51q-85 0 -155 24t-111.5 77.5t-41.5 139.5
q0 52 17.5 93t55.5 65.5t100 24.5t100 -24.5t55.5 -65.5t17.5 -93q0 -86 -41.5 -139.5t-111.5 -77.5t-155 -24h-93zM0 0q-10 0 -15 14.5t-5 38.5t5 38.5t15 14.5v-106zM774 0v106q11 0 15.5 -14.5t4.5 -38.5t-4.5 -38.5t-15.5 -14.5z" />
    <glyph glyph-name="uniFEEE" unicode="&#x648;" horiz-adv-x="573" arabic-form="final" 
d="M472 0v106h101v-106h-101zM270 0q-58 0 -106 28.5t-76 82.5t-28 130q0 113 63.5 176t170.5 63q79 0 128.5 -31.5t49.5 -79.5v-369h-130v369q-7 2 -20 3.5t-28 1.5q-52 0 -78 -31t-26 -102q0 -64 23.5 -99.5t69.5 -35.5h189v-106h-202zM350 -229q-25 0 -42 11t-25.5 25.5
t-8.5 24.5q21 16 36 36t23.5 51.5t8.5 80.5v106h130v-106q0 -44 -7.5 -85t-22 -73.5t-37.5 -51.5t-55 -19zM573 0v106q11 0 15.5 -14.5t4.5 -38.5t-4.5 -38.5t-15.5 -14.5z" />
    <glyph glyph-name="uniFEF0" unicode="&#x649;" horiz-adv-x="923" arabic-form="final" 
d="M437 -236q-115 0 -198.5 32t-128.5 94t-45 152q0 36 7.5 73t22.5 68t38 50.5t54 19.5q25 0 41.5 -11t25.5 -25t9 -25q-30 -22 -49 -53.5t-19 -93.5q0 -27 7 -57.5t31 -57t72.5 -43.5t130.5 -17q70 0 116 12.5t72.5 33t37.5 45t11 48.5l130 10q0 -83 -46 -140t-128.5 -86
t-191.5 -29zM659 0q-45 0 -69.5 14t-34 35.5t-6.5 46t13 45.5q11 -11 36 -23t60 -12h265v-106h-264zM923 0v106q11 0 15.5 -14.5t4.5 -38.5t-4.5 -38.5t-15.5 -14.5z" />
    <glyph glyph-name="uniFEF2" unicode="&#x64a;" horiz-adv-x="923" arabic-form="final" 
d="M437 -236q-115 0 -198.5 32t-128.5 94t-45 152q0 36 7.5 73t22.5 68t38 50.5t54 19.5q25 0 41.5 -11t25.5 -25t9 -25q-30 -22 -49 -53.5t-19 -93.5q0 -27 7 -57.5t31 -57t72.5 -43.5t130.5 -17q70 0 116 12.5t72.5 33t37.5 45t11 48.5l130 10q0 -83 -46 -140t-128.5 -86
t-191.5 -29zM659 0q-45 0 -69.5 14t-34 35.5t-6.5 46t13 45.5q11 -11 36 -23t60 -12h265v-106h-264zM923 0v106q11 0 15.5 -14.5t4.5 -38.5t-4.5 -38.5t-15.5 -14.5zM515 -431q-26 0 -45.5 19t-19.5 46t19.5 46t45.5 19q28 0 46.5 -19t18.5 -46t-18.5 -46t-46.5 -19z
M353 -431q-26 0 -45.5 19t-19.5 46t19.5 46t45.5 19q27 0 46 -19t19 -46t-19 -46t-46 -19z" />
    <glyph glyph-name="uniFEF3" unicode="&#x64a;" horiz-adv-x="356" arabic-form="initial" 
d="M0 0v106h92q11 0 21 6t19 17.5t15.5 30t10 44t3.5 57.5q0 49 -8.5 78t-23.5 47t-36 33q0 11 8.5 25t26 25t42.5 11q31 0 54 -18t37.5 -48.5t22 -70t7.5 -83.5q0 -121 -52 -190.5t-147 -69.5h-92zM0 0q-10 0 -15 14.5t-5 38.5t5 38.5t15 14.5v-106zM251 -215
q-26 0 -45.5 19t-19.5 46t19.5 46t45.5 19q28 0 46.5 -19t18.5 -46t-18.5 -46t-46.5 -19zM89 -215q-26 0 -45.5 19t-19.5 46t19.5 46t45.5 19q27 0 46 -19t19 -46t-19 -46t-46 -19z" />
    <glyph glyph-name="uniFEF4" unicode="&#x64a;" horiz-adv-x="364" arabic-form="medial" 
d="M0 0v106h51q23 0 37.5 13t21.5 33.5t7 40.5v221q0 23 14 44.5t51 21.5t51 -21.5t14 -44.5v-221q0 -55 -25.5 -99t-69.5 -69t-101 -25h-51zM313 0q-56 0 -100.5 25t-70 69t-25.5 99h130q0 -20 7 -40.5t22 -33.5t37 -13h51v-106h-51zM364 0v106q11 0 15.5 -14.5t4.5 -38.5
t-4.5 -38.5t-15.5 -14.5zM0 0q-10 0 -15 14.5t-5 38.5t5 38.5t15 14.5v-106zM263 -215q-26 0 -45.5 19t-19.5 46t19.5 46t45.5 19q28 0 46.5 -19t18.5 -46t-18.5 -46t-46.5 -19zM101 -215q-26 0 -45.5 19t-19.5 46t19.5 46t45.5 19q27 0 46 -19t19 -46t-19 -46t-46 -19z" />
    <glyph glyph-name=".notdef" horiz-adv-x="500" 
d="M50 0v700h398l2 -700h-400zM100 50h300v600h-300v-600z" />
    <glyph glyph-name=".null" 
 />
    <glyph glyph-name="nonmarkingreturn" horiz-adv-x="333" 
 />
    <glyph glyph-name="NULL" 
 />
    <glyph glyph-name="NULL" 
 />
    <glyph glyph-name="CR" unicode="&#xd;" horiz-adv-x="250" 
 />
    <glyph glyph-name="space" unicode=" " horiz-adv-x="250" 
 />
    <glyph glyph-name="exclam" unicode="!" horiz-adv-x="245" 
d="M75 155l-19 505h133l-20 -505h-94zM122 -14q-29 0 -45 17t-16 44t16 44t45 17t45 -17t16 -44t-16 -44t-45 -17z" />
    <glyph glyph-name="quotedbl" unicode="&#x22;" horiz-adv-x="390" 
d="M245 390l-30 270h130l-30 -270h-70zM75 390l-30 270h130l-30 -270h-70z" />
    <glyph glyph-name="numbersign" unicode="#" horiz-adv-x="699" 
d="M116 0l36 172h-123v65h136l37 176h-113v65h127l41 197h99l-41 -197h127l41 197h99l-41 -197h128v-65h-142l-36 -176h118v-65h-132l-36 -172h-99l36 172h-127l-36 -172h-99zM265 237h126l37 176h-127z" />
    <glyph glyph-name="dollar" unicode="$" horiz-adv-x="550" 
d="M235 -80v65q-50 4 -94 19t-71.5 40t-27.5 59v117h28q15 -94 55.5 -138.5t109.5 -52.5v258l-68 41q-68 40 -96 82t-28 97q0 72 51 117t141 53v58h70v-59q48 -4 91 -19.5t70 -40.5t27 -58v-117h-28q-15 95 -55 139t-105 51v-241l83 -49q68 -40 99.5 -78.5t31.5 -93.5
q0 -79 -55.5 -128t-158.5 -57v-64h-70zM305 31q40 8 64 31.5t24 62.5t-23.5 66.5t-64.5 53.5v-214zM235 432v196q-35 -10 -54.5 -33.5t-19.5 -58.5q0 -36 19.5 -58.5t54.5 -45.5z" />
    <glyph glyph-name="percent" unicode="%" horiz-adv-x="755" 
d="M83 0l484 660h106l-484 -660h-106zM568 -5q-75 0 -117.5 36t-42.5 102t42.5 102t117.5 36q73 0 115.5 -36t42.5 -102t-42.5 -102t-115.5 -36zM567 35q79 0 79 98t-80 98q-78 0 -78 -98t79 -98zM190 389q-75 0 -117.5 36t-42.5 102t42.5 102t117.5 36q73 0 115.5 -36
t42.5 -102t-42.5 -102t-115.5 -36zM189 429q79 0 79 98t-80 98q-78 0 -78 -98t79 -98z" />
    <glyph glyph-name="ampersand" unicode="&#x26;" horiz-adv-x="636" 
d="M279 -20q-92 0 -146.5 21.5t-77.5 56.5t-23 77q0 45 21.5 79.5t57.5 62t79 49.5q-7 6 -25 24.5t-38 45.5t-34 60t-14 68q0 74 53 115t147 41q91 0 138 -39t47 -101q0 -41 -21.5 -76.5t-57 -66t-76.5 -57.5l185 -200q18 20 33.5 42t26.5 39q7 10 13 20t11 20l38 -25
q-4 -10 -9.5 -21t-12.5 -22q-11 -19 -27.5 -42.5t-38.5 -47.5l97 -103h-136l-38 38q1 0 -21.5 -14.5t-61.5 -29t-89 -14.5zM288 20q43 0 77.5 16.5t55.5 35.5l-191 206q-27 -24 -47.5 -57.5t-20.5 -75.5q0 -57 31.5 -91t94.5 -34zM272 381q32 29 52 64.5t20 84.5
q0 42 -10 66t-25 34t-30 10q-22 0 -38 -10.5t-24 -35.5t-8 -70q0 -27 6.5 -49.5t16 -40.5t20.5 -31t20 -22z" />
    <glyph glyph-name="quotesingle" unicode="'" horiz-adv-x="220" 
d="M75 390l-30 270h130l-30 -270h-70z" />
    <glyph glyph-name="parenleft" unicode="(" horiz-adv-x="320" 
d="M297 -220q-89 61 -150 131t-92 152t-31 177q0 96 31 177.5t92 152t150 130.5l14 -20q-58 -52 -92.5 -120.5t-49.5 -149t-15 -170.5q0 -89 15 -170t49.5 -149.5t92.5 -120.5z" />
    <glyph glyph-name="parenright" unicode=")" horiz-adv-x="321" 
d="M24 -220l-14 20q59 52 93 120.5t49 149.5t15 170q0 90 -15 170.5t-49 149t-93 120.5l14 20q90 -60 150.5 -130.5t91.5 -152t31 -177.5q0 -95 -31 -177t-91.5 -152t-150.5 -131z" />
    <glyph glyph-name="asterisk" unicode="*" horiz-adv-x="434" 
d="M161 324l24 121l-98 -89l-49 86l144 50l-144 50l49 86l98 -89l-24 121h112l-24 -121l98 89l49 -86l-144 -50l144 -50l-49 -86l-99 90l25 -122h-112z" />
    <glyph glyph-name="plus" unicode="+" horiz-adv-x="546" 
d="M228 100v195h-197v70h197v195h90v-195h197v-70h-197v-195h-90z" />
    <glyph glyph-name="comma" unicode="," horiz-adv-x="228" 
d="M63 -160l-18 24q17 11 36 29t32.5 42t13.5 54q-3 -1 -7.5 -2t-7.5 -1q-29 0 -45 17t-16 44t16 44t45 17q33 0 49.5 -24t16.5 -54q0 -57 -25.5 -102.5t-89.5 -87.5z" />
    <glyph glyph-name="hyphen" unicode="-" horiz-adv-x="395" 
d="M58 217v95h279v-95h-279z" />
    <glyph glyph-name="period" unicode="." horiz-adv-x="224" 
d="M112 -14q-29 0 -45 17t-16 44t16 44t45 17t45 -17t16 -44t-16 -44t-45 -17z" />
    <glyph glyph-name="slash" unicode="/" horiz-adv-x="475" 
d="M21 0l321 660h112l-321 -660h-112z" />
    <glyph glyph-name="zero" unicode="0" horiz-adv-x="606" 
d="M303 -20q-95 0 -152.5 44t-82.5 123t-25 183t25 183t82.5 123t152.5 44q96 0 153 -44t82 -123t25 -183t-25 -183t-82 -123t-153 -44zM303 25q63 0 91.5 73.5t28.5 231.5t-28.5 231.5t-91.5 73.5t-91.5 -73.5t-28.5 -231.5t28.5 -231.5t91.5 -73.5z" />
    <glyph glyph-name="one" unicode="1" horiz-adv-x="323" 
d="M119 0v542l-87 -56l-24 31l154 143h87v-660h-130z" />
    <glyph glyph-name="two" unicode="2" horiz-adv-x="539" 
d="M41 0v65q25 25 64 61.5t81.5 80t79.5 91t60.5 95.5t23.5 94q0 52 -16 84.5t-41 48t-53 15.5q-63 0 -106 -42t-58 -133h-35q0 38 3 77.5t21 62.5q27 33 79.5 56.5t115.5 23.5q35 0 74.5 -7.5t75 -27.5t58 -58t22.5 -100q0 -47 -22 -93t-57.5 -90t-77.5 -84t-83 -73.5
t-73.5 -59.5t-48.5 -42h207q60 0 92.5 28.5t32.5 81.5h30v-75q0 -20 -7 -38.5t-25 -30t-53 -11.5h-364z" />
    <glyph glyph-name="three" unicode="3" horiz-adv-x="543" 
d="M277 -20q-64 0 -109.5 13.5t-79 37.5t-61.5 57l28 29q42 -47 88.5 -69.5t89.5 -22.5q39 0 70.5 16.5t50 52t18.5 91.5q0 54 -17.5 88.5t-46.5 50.5t-64 16q-20 0 -34.5 -2t-30 -6t-40.5 -11l-24 38l273 256h-179q-60 0 -92.5 -28.5t-32.5 -81.5h-30v75q0 20 7 38.5
t25.5 30t52.5 11.5h338v-45l-249 -234q1 1 23.5 2.5t40.5 1.5q34 0 72.5 -10.5t72 -34t54.5 -61.5t21 -94q0 -63 -25.5 -103t-63.5 -62.5t-77.5 -31t-68.5 -8.5z" />
    <glyph glyph-name="four" unicode="4" horiz-adv-x="572" 
d="M329 0v170h-320v40l346 450h104v-445h90v-45h-90v-170h-130zM78 215h251v328z" />
    <glyph glyph-name="five" unicode="5" horiz-adv-x="546" 
d="M265 -20q-82 0 -134 29t-94 79l29 26q38 -47 85.5 -68t90.5 -21q39 0 70 16.5t49.5 53t18.5 95.5q0 78 -41.5 116t-116.5 38q-34 0 -69.5 -8.5t-55.5 -14.5l-40 39l11 300h389v-44h-273l-9 -231l30 2q13 1 28 2t29 1q39 0 84 -9t84.5 -31.5t64.5 -61.5t25 -98
q0 -63 -26 -104t-66 -64t-83.5 -32.5t-79.5 -9.5z" />
    <glyph glyph-name="six" unicode="6" horiz-adv-x="560" 
d="M294 -20q-125 0 -187.5 88t-62.5 262q0 181 70.5 265.5t209.5 84.5q46 0 90.5 -11.5t69.5 -22.5l-6 -28q-38 7 -61.5 10.5t-40 5t-32.5 1.5q-75 0 -120 -61t-45 -189q21 17 58.5 32.5t81.5 15.5q78 0 124 -28.5t66 -80t20 -119.5q0 -58 -26.5 -109.5t-78.5 -83.5
t-130 -32zM294 25q33 0 55 24.5t33.5 65.5t11.5 90q0 89 -24 136t-81 47q-30 0 -55 -12t-40 -24.5t-15 -14.5q0 -111 14 -180t40 -100.5t61 -31.5z" />
    <glyph glyph-name="seven" unicode="7" horiz-adv-x="473" 
d="M96 0l250 615h-170q-60 0 -92.5 -28.5t-32.5 -81.5h-30v75q0 20 7 38.5t25.5 30t52.5 11.5h361v-45l-250 -615h-121z" />
    <glyph glyph-name="eight" unicode="8" horiz-adv-x="578" 
d="M289 -20q-68 0 -125 17.5t-91 55.5t-34 99q0 48 23.5 82t62 58.5t81.5 42.5q-39 22 -71 45.5t-51.5 54t-19.5 73.5q0 66 30.5 103.5t82 53t112.5 15.5q62 0 113 -15t81.5 -50t30.5 -97q0 -38 -18 -68.5t-48.5 -53t-68.5 -38.5q42 -22 78.5 -48.5t59 -62t22.5 -85.5
q0 -66 -33.5 -106t-90 -58t-126.5 -18zM289 25q34 0 60 13t40.5 39.5t14.5 64.5q0 41 -20 71.5t-53 54t-72 43.5q-25 -13 -44.5 -33t-30 -50t-10.5 -76q0 -44 14.5 -72t40.5 -41.5t60 -13.5zM327 384q26 20 39 49.5t13 84.5q0 46 -14.5 71.5t-35.5 35.5t-40 10t-40 -9.5
t-35.5 -32.5t-14.5 -65q0 -31 17.5 -57.5t47 -48.5t63.5 -38z" />
    <glyph glyph-name="nine" unicode="9" horiz-adv-x="560" 
d="M236 -20q-32 0 -64 5.5t-57.5 13.5t-38.5 15l6 28q41 -7 62 -11t36 -5t36 -1q75 0 120 61t45 189q-21 -17 -58.5 -32.5t-81.5 -15.5q-78 0 -124 28.5t-66 80t-20 119.5q0 59 26.5 110t79 83t129.5 32q125 0 187.5 -88t62.5 -262q0 -182 -70.5 -266t-209.5 -84zM271 272
q30 0 55 12t40 25t15 14q0 111 -14 180t-40 100.5t-61 31.5q-32 0 -54.5 -24.5t-34 -65.5t-11.5 -90q0 -89 24 -136t81 -47z" />
    <glyph glyph-name="colon" unicode=":" horiz-adv-x="238" 
d="M119 339q-29 0 -45 17t-16 44t16 44t45 17t45 -17t16 -44t-16 -44t-45 -17zM119 -14q-29 0 -45 17t-16 44t16 44t45 17t45 -17t16 -44t-16 -44t-45 -17z" />
    <glyph glyph-name="semicolon" unicode=";" horiz-adv-x="249" 
d="M124 339q-29 0 -45 17t-16 44t16 44t45 17t45 -17t16 -44t-16 -44t-45 -17zM75 -160l-18 24q17 11 36 29t32.5 42t13.5 54q-3 -1 -7.5 -2t-7.5 -1q-29 0 -45 17t-16 44t16 44t45 17q33 0 49.5 -24t16.5 -54q0 -57 -25.5 -102.5t-89.5 -87.5z" />
    <glyph glyph-name="less" unicode="&#x3c;" horiz-adv-x="610" 
d="M549 74l-520 226v70l520 226v-91l-392 -170l392 -170v-91z" />
    <glyph glyph-name="equal" unicode="=" horiz-adv-x="665" 
d="M58 385v70h549v-70h-549zM58 205v70h549v-70h-549z" />
    <glyph glyph-name="greater" unicode="&#x3e;" horiz-adv-x="610" 
d="M61 74v91l392 170l-392 170v91l520 -226v-70z" />
    <glyph glyph-name="question" unicode="?" horiz-adv-x="498" 
d="M202 156q2 44 15.5 77t32.5 60.5t37 55t30 60.5t12 78q0 85 -29.5 116.5t-74.5 31.5q-59 0 -103 -43.5t-63 -144.5h-30q0 44 3 85t23 67q28 32 83 56.5t117 24.5q46 0 85 -13t68 -37.5t45 -60.5t16 -82q0 -50 -19 -85.5t-47.5 -62.5t-57.5 -53t-50 -56.5t-25 -73.5h-68z
M236 -14q-29 0 -45 17t-16 44t16 44t45 17t45 -17t16 -44t-16 -44t-45 -17z" />
    <glyph glyph-name="at" unicode="@" horiz-adv-x="877" 
d="M440 -180q-119 0 -211 48.5t-143.5 144.5t-51.5 237q0 142 51.5 237.5t143.5 144t211 48.5q120 0 211.5 -48t143 -139.5t51.5 -222.5t-51 -198t-160 -67q-17 0 -42 2.5t-48 14.5t-35 38h-5q-14 -22 -42.5 -38.5t-72.5 -16.5q-42 0 -73.5 10t-53 27.5t-32.5 42.5t-11 55
q0 45 22.5 78.5t81.5 51.5t166 18h15q0 66 -11.5 101t-31.5 48t-48 13q-34 0 -61.5 -20.5t-38.5 -69.5h-55q0 35 9 61t27 44q15 15 54.5 22.5t84.5 7.5q48 0 85.5 -13t63 -39t39 -65.5t13.5 -92.5v-183q0 -22 9.5 -36.5t30.5 -14.5q31 0 53.5 19.5t35 67t12.5 132.5
q0 119 -42 200.5t-117.5 123t-176.5 41.5q-100 0 -176 -42.5t-118 -128t-42 -214.5t42 -214.5t118 -128t176 -42.5q95 0 173 24.5t144 70.5l26 -40q-63 -44 -146.5 -72t-196.5 -28zM420 55q33 0 55 22t30 43v122h-15q-82 0 -111 -24.5t-29 -77.5q0 -43 17.5 -64t52.5 -21z
" />
    <glyph glyph-name="A" unicode="A" horiz-adv-x="647" 
d="M628 -4q-33 0 -69.5 8.5t-70 36.5t-57.5 85l-23 56h-266l-82 -182h-52l295 660h45l224 -534q18 -44 44 -70t60 -30v-25q-8 -2 -22.5 -3.5t-25.5 -1.5zM163 227h226l-110 261z" />
    <glyph glyph-name="B" unicode="B" horiz-adv-x="644" 
d="M95 0v530q0 45 -12.5 72.5t-57.5 27.5h-10v30h270q47 0 98.5 -5.5t96 -23t72.5 -52.5t28 -94q0 -43 -34.5 -84.5t-104.5 -59.5q66 -6 102.5 -29t51.5 -56.5t15 -72.5q0 -57 -25.5 -93t-68.5 -55.5t-95.5 -27t-105.5 -7.5h-220zM300 40q83 0 126.5 36t43.5 102
q0 69 -42.5 103.5t-127.5 34.5h-75v-266q11 -3 31 -6.5t44 -3.5zM225 361h75q41 0 72.5 12.5t49.5 41t18 75.5q0 50 -22.5 78t-58 40t-74.5 12q-11 0 -24.5 -1t-35.5 -6v-252z" />
    <glyph glyph-name="C" unicode="C" horiz-adv-x="679" 
d="M367 -20q-105 0 -179 45t-112.5 122t-38.5 173q0 76 24.5 141.5t69.5 114.5t105 76.5t131 27.5q94 0 151.5 -24.5t85.5 -56.5q20 -26 23 -67t3 -85h-30q-19 91 -69.5 139.5t-133.5 48.5q-61 0 -111 -28t-79.5 -96.5t-29.5 -190.5q0 -57 12 -110t38.5 -95t68 -66
t101.5 -24q69 0 128 36.5t95 106.5l35 -27q-47 -83 -115 -122t-173 -39z" />
    <glyph glyph-name="D" unicode="D" horiz-adv-x="736" 
d="M95 0v530q0 45 -12.5 72.5t-57.5 27.5h-10v30h272q206 0 309.5 -87t103.5 -239q0 -99 -44.5 -174t-130.5 -117.5t-212 -42.5h-218zM310 40q70 0 124 35t85 100t31 155q0 88 -30.5 153t-85 101t-126.5 36q-22 0 -38 -1t-45 -6v-566q22 -4 34.5 -5.5t23.5 -1.5h27z" />
    <glyph glyph-name="E" unicode="E" horiz-adv-x="600" 
d="M95 0v530q0 45 -12.5 72.5t-57.5 27.5h-10v30h441q35 0 53 -11.5t25 -30t7 -38.5v-85h-30q0 64 -32.5 92t-92.5 28h-161v-250h260v-45h-260v-275h171q55 0 93.5 24.5t64.5 89.5l27 -10l-29 -79q-11 -32 -28.5 -51t-58.5 -19h-370z" />
    <glyph glyph-name="F" unicode="F" horiz-adv-x="539" 
d="M95 0v530q0 45 -12.5 72.5t-57.5 27.5h-10v30h419q35 0 53 -11.5t25 -30t7 -38.5v-85h-30q0 65 -32.5 92.5t-92.5 27.5h-139v-255h220v-45h-220v-315h-130z" />
    <glyph glyph-name="G" unicode="G" horiz-adv-x="734" 
d="M395 -20q-78 0 -143.5 27.5t-114 76.5t-75.5 114.5t-27 141.5q0 96 41 173t115.5 122t173.5 45q94 0 154 -24.5t88 -56.5q20 -25 23 -65t3 -74h-30q-19 92 -70 133.5t-138 41.5q-60 0 -101.5 -24t-68 -66t-38.5 -95t-12 -110q0 -121 29.5 -191t79.5 -99.5t111 -29.5
q45 0 77 7t58 19v178q0 21 6.5 42t26.5 39.5t58.5 29.5t102.5 11v-25q-34 0 -49 -25t-15 -70v-179q-58 -35 -123 -51t-142 -16z" />
    <glyph glyph-name="H" unicode="H" horiz-adv-x="720" 
d="M95 0v530q0 45 -12.5 72.5t-57.5 27.5h-10v30h120q35 0 54.5 -12t27.5 -40t8 -78v-165h270v295h130v-530q0 -45 12.5 -72.5t57.5 -27.5h10v-30h-120q-35 0 -54.5 11.5t-27.5 40t-8 78.5v190h-270v-320h-130z" />
    <glyph glyph-name="I" unicode="I" horiz-adv-x="304" 
d="M169 0q-35 0 -54.5 11.5t-27.5 40t-8 78.5v530h130v-530q0 -45 12.5 -72.5t57.5 -27.5h10v-30h-120z" />
    <glyph glyph-name="J" unicode="J" horiz-adv-x="278" 
d="M-19 -137v30q30 4 51 21.5t31.5 57.5t10.5 111v577h130v-577q0 -86 -18 -134t-66.5 -67t-138.5 -19z" />
    <glyph glyph-name="K" unicode="K" horiz-adv-x="693" 
d="M631 -10q-37 0 -75 9t-79.5 35t-89.5 76l-161 168v-278h-130l-1 530q0 45 -12.5 72.5t-57.5 27.5h-10v30h120q35 0 54.5 -12t28 -40t8.5 -78v-190l173 215q22 28 48 52t58 38.5t71 14.5h70v-35q-57 0 -103 -14.5t-80 -56.5l-149 -184l231 -240q25 -27 54.5 -50.5
t57.5 -38t47 -17.5v-24q-11 -4 -30.5 -7t-42.5 -3z" />
    <glyph glyph-name="L" unicode="L" horiz-adv-x="570" 
d="M95 0v530q0 45 -12.5 72.5t-57.5 27.5h-10v30h120q35 0 54.5 -12t27.5 -40t8 -78v-485h345v-45h-475z" />
    <glyph glyph-name="M" unicode="M" horiz-adv-x="867" 
d="M847 -45q-72 0 -117 22.5t-65.5 70t-20.5 122.5v354l-219 -524h-33l-268 544v-544h-50v660h122l242 -491l205 491h131v-490q0 -91 15.5 -136.5t57.5 -53.5v-25z" />
    <glyph glyph-name="N" unicode="N" horiz-adv-x="692" 
d="M572 -3l-424 498v-495h-50v540q0 38 -18.5 64t-71.5 26h-5v30h70q57 0 92.5 -15t58.5 -45l344 -400v460h50v-663h-46z" />
    <glyph glyph-name="O" unicode="O" horiz-adv-x="733" 
d="M367 -20q-99 0 -173.5 46.5t-115.5 125.5t-41 178t41 178t115.5 125.5t173.5 46.5q100 0 173.5 -46.5t114.5 -125.5t41 -178t-41 -178t-114.5 -125.5t-173.5 -46.5zM367 25q61 0 103.5 35.5t65 104t22.5 165.5q0 98 -22.5 166t-65 103.5t-103.5 35.5q-60 0 -102.5 -35.5
t-65 -103.5t-22.5 -166q0 -97 22.5 -165.5t65 -104t102.5 -35.5z" />
    <glyph glyph-name="P" unicode="P" horiz-adv-x="577" 
d="M95 0v530q0 45 -12.5 72.5t-57.5 27.5h-10v30h275q27 0 62 -3.5t71.5 -14.5t67.5 -33t50 -58.5t19 -91.5q0 -52 -19 -86.5t-48.5 -55.5t-62.5 -32t-62.5 -14.5t-47.5 -3.5h-95v-267h-130zM225 307h60q26 0 50 7t43 25t30.5 48.5t11.5 76.5t-11.5 76.5t-30 48t-41.5 24.5
t-47 7q-11 0 -26.5 -1t-38.5 -6v-306z" />
    <glyph glyph-name="Q" unicode="Q" horiz-adv-x="735" 
d="M693 -205q-76 0 -151.5 19.5t-146 63.5t-131.5 118q-69 22 -120 70t-78.5 115.5t-27.5 148.5q0 99 41 178t115.5 125.5t173.5 46.5q100 0 173.5 -46.5t114.5 -125.5t41 -178q0 -83 -28.5 -152t-81 -117t-124.5 -68q13 -36 38.5 -67.5t58 -55t67.5 -36.5t66 -13v-26z
M368 25q61 0 103.5 35.5t65 104t22.5 165.5q0 98 -22.5 166t-65 103.5t-103.5 35.5q-60 0 -102.5 -35.5t-65 -103.5t-22.5 -166q0 -97 22.5 -165.5t65 -104t102.5 -35.5z" />
    <glyph glyph-name="R" unicode="R" horiz-adv-x="616" 
d="M559 -10q-35 0 -67 14t-62.5 45.5t-63.5 85.5l-100 167h-40v-302h-131v530q0 45 -12.5 72.5t-57.5 27.5h-10v30h276q27 0 62.5 -3.5t71.5 -14t67 -30.5t50 -52.5t19 -80.5q0 -53 -23.5 -86.5t-60.5 -52.5t-78 -30l105 -175q38 -64 70 -85t54 -25v-25q-8 -4 -28.5 -7
t-40.5 -3zM226 342h60q24 0 48 7t43.5 23t31.5 43t12 66t-11.5 65.5t-31 43t-43 23.5t-47.5 7q-8 0 -23.5 -1t-38.5 -6v-271z" />
    <glyph glyph-name="S" unicode="S" horiz-adv-x="561" 
d="M273 -17q-41 0 -81 8t-73 23.5t-52.5 38t-19.5 50.5v117h28q16 -104 64.5 -148t132.5 -44q38 0 66.5 11t44 32.5t15.5 53.5q0 43 -27.5 71.5t-75.5 57.5l-123 74q-68 40 -96 82t-28 97q0 79 60.5 125t163.5 46q41 0 81 -8t73 -23.5t52.5 -37.5t19.5 -51v-117h-28
q-17 104 -64 148t-123 44q-36 0 -62.5 -12t-40.5 -33.5t-14 -51.5q0 -42 28.5 -68t75.5 -54l123 -73q68 -40 99.5 -78.5t31.5 -93.5q0 -86 -65 -136t-186 -50z" />
    <glyph glyph-name="T" unicode="T" horiz-adv-x="575" 
d="M232 0v615h-71q-53 0 -84 -26.5t-31 -93.5h-30v85q0 20 7 38.5t25.5 30t52.5 11.5h470v-45h-209v-615h-130z" />
    <glyph glyph-name="U" unicode="U" horiz-adv-x="694" 
d="M362 -10q-90 0 -150 33t-90 99.5t-30 165.5v242q0 43 -11 70t-50 30h-9v30h110q35 0 54.5 -12t27.5 -40t8 -78l1 -272q1 -104 40.5 -163.5t118.5 -59.5q68 0 111 27t63.5 83t20.5 143v372h50v-372q0 -94 -25.5 -160.5t-83.5 -102t-156 -35.5z" />
    <glyph glyph-name="V" unicode="V" horiz-adv-x="635" 
d="M299 -10l-233 553q-24 56 -46.5 78.5t-52.5 26.5v20q4 0 19.5 1t22.5 1q35 0 71.5 -8t69.5 -35t57 -84l158 -374l211 491h51l-288 -670h-40z" />
    <glyph glyph-name="W" unicode="W" horiz-adv-x="906" 
d="M277 -9l-216 552q-23 57 -46 79t-53 26v20q4 0 19.5 1t22.5 1q35 0 72 -7.5t70 -34.5t56 -85l135 -345l90 256l-35 89q-23 57 -49.5 79t-56.5 26v20q4 0 18 1t21 1q35 0 72 -8t70 -34.5t56 -84.5l143 -364l171 481h48l-237 -669h-40l-154 392l-137 -392h-40z" />
    <glyph glyph-name="X" unicode="X" horiz-adv-x="647" 
d="M17 0l246 311l-142 219q-16 26 -39 50.5t-47.5 41t-47.5 18.5v20h110q38 0 68.5 -17t54.5 -42t40 -51l87 -134l193 244h65l-229 -289l157 -241q17 -26 39.5 -50.5t47.5 -40.5t47 -19v-20h-110q-37 0 -68 17t-55 42.5t-40 50.5l-101 156l-211 -266h-65z" />
    <glyph glyph-name="Y" unicode="Y" horiz-adv-x="638" 
d="M279 0v264l-177 266q-17 26 -39.5 50t-46.5 41t-47 19v20h109q38 0 68.5 -17t54.5 -42t40 -51l136 -205l194 315h65l-227 -369v-291h-130z" />
    <glyph glyph-name="Z" unicode="Z" horiz-adv-x="599" 
d="M31 0v32l372 584h-217q-53 0 -84 -27t-31 -94h-30v85q0 20 7 38.5t25.5 30t52.5 11.5h455l-392 -615h387v-45h-545z" />
    <glyph glyph-name="bracketleft" unicode="[" horiz-adv-x="331" 
d="M66 -200v880h245v-45h-125v-790h125v-45h-245z" />
    <glyph glyph-name="backslash" unicode="\" horiz-adv-x="475" 
d="M342 0l-321 660h112l321 -660h-112z" />
    <glyph glyph-name="bracketright" unicode="]" horiz-adv-x="331" 
d="M20 -200v45h125v790h-125v45h245v-880h-245z" />
    <glyph glyph-name="asciicircum" unicode="^" horiz-adv-x="514" 
d="M20 330l215 350h44l215 -350h-98l-139 227l-139 -227h-98z" />
    <glyph glyph-name="underscore" unicode="_" horiz-adv-x="436" 
d="M8 -70v70h420v-70h-420z" />
    <glyph glyph-name="grave" unicode="`" horiz-adv-x="227" 
d="M133 477l-113 203h125l62 -203h-74z" />
    <glyph glyph-name="a" unicode="a" horiz-adv-x="496" 
d="M199 -10q-42 0 -73.5 10t-53 27.5t-32.5 42.5t-11 55q0 48 22.5 81.5t81.5 51t166 17.5h15q0 60 -11 95t-32.5 50t-51.5 15q-34 0 -61 -17t-39 -73h-55q0 26 3.5 53t21.5 47t59.5 27.5t90.5 7.5t87 -13t64.5 -39t40 -65.5t13.5 -92.5v-270h-85l-35 45h-5q-13 -21 -44 -38
t-76 -17zM229 40q33 0 55 22t30 43v125h-15q-72 0 -103.5 -26t-31.5 -79q0 -42 17.5 -63.5t47.5 -21.5z" />
    <glyph glyph-name="b" unicode="b" horiz-adv-x="547" 
d="M300 -10q-44 0 -73 17.5t-42 37.5h-5l-35 -45h-85v530q0 45 -12.5 72.5t-57.5 27.5h-10v30h120q35 0 54.5 -12t27.5 -40t8 -78v-80q18 11 44.5 20.5t60.5 9.5q73 0 120.5 -32.5t71 -88t23.5 -124.5q0 -68 -23.5 -124t-70 -88.5t-116.5 -32.5zM280 35q35 0 55.5 26
t30 71.5t9.5 102.5q0 58 -9.5 103t-31 71t-59.5 26q-29 0 -50.5 -10.5t-34.5 -19.5v-305q11 -25 34.5 -45t55.5 -20z" />
    <glyph glyph-name="c" unicode="c" horiz-adv-x="496" 
d="M276 -10q-80 0 -133.5 33.5t-80 89.5t-26.5 122q0 67 26.5 122.5t80 89t133.5 33.5q57 0 96.5 -8t58.5 -27t22 -51t3 -89h-30q-4 64 -39.5 97t-95.5 33q-36 0 -63 -21.5t-42 -66t-15 -112.5q0 -66 14 -110.5t41.5 -67t69.5 -22.5q52 0 84.5 24t58.5 59l31 -23
q-14 -22 -37.5 -46.5t-61 -41.5t-95.5 -17z" />
    <glyph glyph-name="d" unicode="d" horiz-adv-x="547" 
d="M247 -10q-70 0 -116.5 32.5t-70 88.5t-23.5 124q0 69 23.5 124.5t71.5 88t120 32.5q34 0 60.5 -9.5t44.5 -20.5v80q0 45 -12.5 72.5t-57.5 27.5h-10v30h120q35 0 54.5 -12t27.5 -40t8 -78v-530h-85l-35 45h-5q-13 -20 -42.5 -37.5t-72.5 -17.5zM267 35q24 0 42 11
t30 26.5t18 27.5v305q-14 11 -36 20.5t-49 9.5q-37 0 -59 -26t-31.5 -71t-9.5 -103q0 -57 9 -102.5t30 -71.5t56 -26z" />
    <glyph glyph-name="e" unicode="e" horiz-adv-x="509" 
d="M267 -10q-70 0 -122 32t-80 87.5t-28 125.5q0 80 29 134.5t79 82.5t112 28t112 -25t79 -70t29 -105l-4 -63h-301q0 -99 30.5 -140.5t79.5 -41.5q52 0 84.5 24t58.5 59l31 -23q-14 -22 -37.5 -46.5t-60 -41.5t-91.5 -17zM172 262h170q0 99 -23.5 136t-61.5 37
q-22 0 -41.5 -16t-31.5 -53.5t-12 -103.5z" />
    <glyph glyph-name="f" unicode="f" horiz-adv-x="342" 
d="M72 0v425h-60v45h60v27q0 57 21.5 95.5t65 58t108.5 19.5q26 0 52 -4.5t39 -12.5q13 -7 22.5 -18t16.5 -25l-40 -35q-15 23 -37 36.5t-48 13.5q-34 0 -52 -27.5t-18 -100.5v-27h130v-45h-130v-425h-130z" />
    <glyph glyph-name="g" unicode="g" horiz-adv-x="523" 
d="M259 -200q-70 0 -125.5 14.5t-87.5 48.5t-32 92q0 36 20.5 62t51.5 43t63 25q-19 6 -32 19t-13 36q0 17 10 29.5t30 20.5q-42 15 -71 51.5t-29 82.5q0 58 29 92t77.5 49t108.5 15h210v-27l-90 -12q42 -16 68.5 -49t26.5 -68q0 -57 -26.5 -91t-75 -48.5t-113.5 -14.5
q-45 0 -72.5 -5t-27.5 -25q0 -17 27.5 -21.5t72.5 -5.5q68 -1 123.5 -18.5t88.5 -52t33 -87.5q0 -58 -32 -92t-87.5 -48.5t-125.5 -14.5zM259 -155q50 0 80 26.5t30 83.5q0 45 -28 74t-74 38l-47 5q-33 -14 -52 -41.5t-19 -75.5q0 -57 30 -83.5t80 -26.5zM259 210
q35 0 57.5 26t22.5 88q0 57 -22.5 86.5t-57.5 29.5t-57.5 -27.5t-22.5 -88.5q0 -62 22.5 -88t57.5 -26z" />
    <glyph glyph-name="h" unicode="h" horiz-adv-x="544" 
d="M60 0v530q0 45 -12.5 72.5t-57.5 27.5h-10v30h120q35 0 54.5 -12t27.5 -40t8 -78v-88q17 13 46.5 25.5t63.5 12.5t67.5 -8t61.5 -28.5t44.5 -56t16.5 -90.5v-297h-130v292q0 52 -12.5 82t-33 43t-44.5 13q-26 0 -47.5 -13t-32.5 -22v-395h-130z" />
    <glyph glyph-name="i" unicode="i" horiz-adv-x="267" 
d="M79 0v340q0 45 -12.5 72.5t-57.5 27.5h-10v30h120q35 0 54.5 -12t27.5 -40t8 -78v-340h-130zM144 524q-38 0 -56.5 23t-18.5 53q0 26 16 41t39 15q38 0 56.5 -23t18.5 -53q0 -26 -16 -41t-39 -15z" />
    <glyph glyph-name="j" unicode="j" horiz-adv-x="267" 
d="M-9 -190v25q30 6 49.5 24.5t29 58t9.5 107.5v315q0 45 -12.5 72.5t-57.5 27.5h-10v30h120q35 0 54.5 -12t27.5 -40t8 -78v-315q0 -82 -20.5 -129t-68 -66.5t-129.5 -19.5zM144 524q-38 0 -56.5 23t-18.5 53q0 26 16 41t39 15q38 0 56.5 -23t18.5 -53q0 -26 -16 -41
t-39 -15z" />
    <glyph glyph-name="k" unicode="k" horiz-adv-x="505" 
d="M435 -10q-42 0 -79 17.5t-70 62.5l-96 126v-196h-130v530q0 45 -12.5 72.5t-57.5 27.5h-10v30h120q35 0 54.5 -12t27.5 -40t8 -78v-285l121 148q31 37 61 57t83 20h20v-26q-30 0 -54 -12t-46 -38l-97 -118l133 -176q26 -35 49 -53t44 -23v-24q-8 -4 -29 -7t-40 -3z" />
    <glyph glyph-name="l" unicode="l" horiz-adv-x="258" 
d="M64 0v530q0 45 -12.5 72.5t-57.5 27.5h-10v30h120q35 0 54.5 -12t27.5 -40t8 -78v-530h-130z" />
    <glyph glyph-name="m" unicode="m" horiz-adv-x="826" 
d="M80 0v340q0 45 -12 72.5t-57 27.5h-10v30h99q30 0 52 -8.5t33 -29.5h4q18 16 49.5 32t76.5 16q38 0 66 -10.5t46.5 -24t25.5 -22.5q20 22 52 39.5t90 17.5q56 0 95 -19t59.5 -59.5t20.5 -105.5v-296h-130v297q0 73 -23 103t-57 30q-28 0 -50.5 -11t-35.5 -27
q8 -15 12 -40.5t4 -55.5v-296h-130v297q0 73 -23 103t-57 30q-19 0 -38.5 -10.5t-31.5 -21.5v-398h-130z" />
    <glyph glyph-name="n" unicode="n" horiz-adv-x="575" 
d="M80 0v340q0 45 -12 72.5t-57 27.5h-10v30h99q34 0 53.5 -8.5t30.5 -28.5q18 17 51.5 32t94.5 15q63 0 105 -19t63.5 -59.5t21.5 -105.5v-296h-130v297q0 49 -12.5 78t-33.5 42t-49 13t-49.5 -7t-35.5 -18v-405h-130z" />
    <glyph glyph-name="o" unicode="o" horiz-adv-x="552" 
d="M276 -10q-74 0 -128 32.5t-83 88.5t-29 124q0 69 29 124.5t83 88t128 32.5q75 0 128.5 -32.5t82.5 -88t29 -124.5q0 -68 -29 -124t-82.5 -88.5t-128.5 -32.5zM276 35q35 0 58.5 26t35 71.5t11.5 102.5q0 58 -11.5 103t-35 71t-58.5 26t-58.5 -26t-35 -71t-11.5 -103
q0 -57 11.5 -102.5t35 -71.5t58.5 -26z" />
    <glyph glyph-name="p" unicode="p" horiz-adv-x="567" 
d="M80 -190v530q0 45 -12 72.5t-57 27.5h-10v30h99q34 0 53.5 -9t30.5 -33q18 16 51 34t85 18q70 0 116.5 -32.5t70 -88t23.5 -124.5q0 -68 -23.5 -124t-71 -88.5t-120.5 -32.5q-33 0 -61.5 9.5t-43.5 20.5v-210h-130zM295 35q38 0 59.5 26t31 71.5t9.5 102.5q0 58 -9.5 103
t-30 71t-55.5 26q-34 0 -55 -11t-35 -23v-336q12 -10 36 -20t49 -10z" />
    <glyph glyph-name="q" unicode="q" horiz-adv-x="547" 
d="M357 -190v210q-15 -11 -44 -20.5t-61 -9.5q-72 0 -120 32.5t-71.5 88.5t-23.5 124q0 69 23.5 124.5t70 88t116.5 32.5q44 0 73.5 -18.5t41.5 -36.5h5l35 45h85v-660h-130zM272 35q26 0 49.5 10t35.5 20v305q-12 20 -34 42.5t-56 22.5q-35 0 -56 -26t-30 -71t-9 -103
q0 -57 9.5 -102.5t31.5 -71.5t59 -26z" />
    <glyph glyph-name="r" unicode="r" horiz-adv-x="418" 
d="M80 0v340q0 45 -12 72.5t-57 27.5h-10v30h99q34 0 53.5 -8.5t30.5 -28.5q18 16 49.5 31.5t76.5 15.5q22 0 40 -5t31 -15q17 -12 25.5 -29t8.5 -16l-51 -39q-9 13 -26.5 26t-42.5 13q-32 0 -54 -9t-35 -22q2 -18 3 -29t1 -19v-336h-130z" />
    <glyph glyph-name="s" unicode="s" horiz-adv-x="468" 
d="M229 -10q-62 0 -101.5 11t-59.5 30q-18 17 -21 49t-3 70h35q8 -48 39 -81.5t91 -33.5q56 0 78 19.5t22 48.5t-26 46.5t-64 34.5l-52 22q-60 26 -94 59t-34 82q0 65 54 99t136 34q62 0 101.5 -11t59.5 -30q18 -17 21 -49t3 -70h-35q-8 48 -39 81.5t-91 33.5
q-45 0 -65 -19.5t-20 -48.5q0 -27 19 -43.5t52 -30.5l60 -25q69 -29 104 -60.5t35 -84.5q0 -65 -58 -99t-147 -34z" />
    <glyph glyph-name="t" unicode="t" horiz-adv-x="354" 
d="M226 -10q-68 0 -106.5 37t-38.5 109v289h-60v45h60v90l50 60h80v-150h110v-45h-110v-295q0 -56 13.5 -75.5t38.5 -19.5q26 0 46 9t33 18l14 -28q-20 -18 -52 -31t-78 -13z" />
    <glyph glyph-name="u" unicode="u" horiz-adv-x="565" 
d="M255 -10q-62 0 -103.5 19t-61.5 60t-20 105v166q0 45 -12.5 72.5t-57.5 27.5h-10v30h120q35 0 54.5 -12t27.5 -40t8 -78v-167q0 -52 10 -82t29 -43t46 -13q24 0 42 11t30 26.5t18 27.5v370h130v-470h-85l-35 45h-5q-19 -21 -50 -38t-75 -17z" />
    <glyph glyph-name="v" unicode="v" horiz-adv-x="500" 
d="M246 -10l-169 365q-26 55 -45 78t-44 25v20q4 0 17 1t20 1q40 0 74.5 -9.5t64 -36.5t53.5 -79l88 -192l136 307h54l-213 -480h-36z" />
    <glyph glyph-name="w" unicode="w" horiz-adv-x="775" 
d="M242 -10l-163 365q-25 56 -46 79t-47 25v19q3 0 12.5 0.5t20.5 1t15 0.5q64 0 106 -25.5t76 -99.5l85 -191l67 160q-23 53 -40 81.5t-31 40.5t-31 13v19q4 0 17.5 1t20.5 1q64 0 111 -25.5t81 -99.5l92 -201l122 316h53l-184 -480h-46l-130 281l-116 -281h-45z" />
    <glyph glyph-name="x" unicode="x" horiz-adv-x="496" 
d="M23 0l169 209l-96 161q-21 36 -45.5 56t-47.5 24v20h95q49 0 77.5 -21.5t50.5 -58.5l48 -81l131 161h67l-169 -208l97 -162q21 -36 45.5 -56t47.5 -24v-20h-95q-49 0 -77.5 21.5t-50.5 58.5l-49 81l-131 -161h-67z" />
    <glyph glyph-name="y" unicode="y" horiz-adv-x="509" 
d="M92 -200v35q52 0 87 20t57 77l21 54l-180 394q-16 37 -39.5 56.5t-53.5 23.5v20h88q45 0 79 -21.5t51 -58.5l115 -252l122 322h53l-202 -535q-20 -54 -43.5 -83.5t-51.5 -40.5t-63 -11h-40z" />
    <glyph glyph-name="z" unicode="z" horiz-adv-x="493" 
d="M39 0v31l263 394h-118q-64 0 -89.5 -23t-25.5 -72h-30v60q0 20 7 38.5t25.5 30t52.5 11.5h356l-284 -425h263v-45h-420z" />
    <glyph glyph-name="braceleft" unicode="{" horiz-adv-x="312" 
d="M293 -211q-70 6 -111.5 31.5t-60 65t-18.5 84.5v140q0 41 -22 73.5t-78 40.5v32q56 8 78 41t22 73v140q0 46 18.5 85t60 65t111.5 31v-35q-34 -6 -47 -32.5t-13 -71.5v-172q0 -57 -28.5 -90t-91.5 -50q63 -17 91.5 -50t28.5 -90v-172q0 -45 13 -71.5t47 -32.5v-35z" />
    <glyph glyph-name="bar" unicode="|" horiz-adv-x="262" 
d="M66 -190v870h130v-870h-130z" />
    <glyph glyph-name="braceright" unicode="}" horiz-adv-x="312" 
d="M19 -211v35q34 6 47 32.5t13 71.5v172q0 57 28.5 90t91.5 50q-63 17 -91.5 50t-28.5 90v172q0 45 -13 71.5t-47 32.5v35q70 -5 111.5 -31t60 -65t18.5 -85v-140q0 -40 22 -73t78 -41v-32q-56 -8 -78 -40.5t-22 -73.5v-140q0 -45 -18.5 -84.5t-60 -65t-111.5 -31.5z" />
    <glyph glyph-name="asciitilde" unicode="~" horiz-adv-x="611" 
d="M441 167q-38 0 -75 12t-71.5 28t-65.5 28t-58 12q-42 0 -61 -15t-19 -45h-40q0 52 12.5 86.5t39.5 52t68 17.5q38 0 75 -12t71.5 -28t65.5 -28t58 -12q42 0 61 15t19 45h40q0 -52 -12.5 -86.5t-39 -52t-68.5 -17.5z" />
    <glyph glyph-name="uni00A0" unicode="&#xa0;" horiz-adv-x="250" 
 />
    <glyph glyph-name="exclamdown" unicode="&#xa1;" horiz-adv-x="239" 
d="M53 -194l19 505h94l20 -505h-133zM119 358q-29 0 -45 17t-16 44t16 44t45 17t45 -17t16 -44t-16 -44t-45 -17z" />
    <glyph glyph-name="cent" unicode="&#xa2;" horiz-adv-x="496" 
d="M241 -50v42q-70 6 -116.5 40t-70 87.5t-23.5 115.5q0 63 23.5 115.5t70 87t116.5 40.5v42h60v-41q45 -2 76.5 -10t48.5 -24q19 -19 22 -51t3 -89h-30q-4 60 -35 92t-85 37v-399q48 2 78 25.5t55 57.5l31 -23q-13 -20 -33.5 -42.5t-52 -39.5t-78.5 -21v-42h-60zM241 45
v379q-35 -17 -55 -64t-20 -125t19 -125.5t56 -64.5z" />
    <glyph glyph-name="sterling" unicode="&#xa3;" horiz-adv-x="535" 
d="M36 0v30q26 8 40 27.5t19.5 58.5t5.5 104v100h-60v45h60v95q0 64 19 105t49.5 64t66.5 32t70 9q45 0 88 -8t62 -27t22 -46.5t3 -53.5h-55q-11 49 -36.5 69.5t-63.5 20.5q-25 0 -46.5 -14t-35 -50t-13.5 -101v-95h130v-45h-130v-100q0 -71 -22 -112t-48 -63h190
q60 0 87.5 30t27.5 90h30v-85q0 -20 -7 -38.5t-25 -30t-53 -11.5h-375z" />
    <glyph glyph-name="currency" unicode="&#xa4;" horiz-adv-x="605" 
d="M116 0v190h-50v45h50v50h-50v45h50v205q0 41 -12.5 68t-57.5 27h-10v30h275q73 0 133 -19t96 -58.5t36 -102.5q0 -67 -36.5 -110.5t-97.5 -64t-136 -20.5h-60v-50h250v-45h-250v-190h-130zM246 330h60q33 0 62.5 13.5t48.5 46.5t19 90q0 50 -20 81t-48.5 45t-56.5 14
q-19 0 -34.5 -0.5t-30.5 -4.5v-285z" />
    <glyph glyph-name="yen" unicode="&#xa5;" horiz-adv-x="711" 
d="M331 0v135h-84v45h84v40h-84v45h83l-176 265q-17 26 -39.5 50t-46.5 41t-47 19v20h109q38 0 68.5 -17t54.5 -42t40 -51l136 -205l194 315h65l-227 -369v-26h86v-45h-86v-40h86v-45h-86v-135h-130z" />
    <glyph glyph-name="brokenbar" unicode="&#xa6;" horiz-adv-x="268" 
d="M69 327v353h130v-353h-130zM69 -190v353h130v-353h-130z" />
    <glyph glyph-name="section" unicode="&#xa7;" horiz-adv-x="450" 
d="M220 -200q-46 0 -83.5 10.5t-57.5 30.5q-22 22 -25.5 47t-3.5 63h32q8 -49 35.5 -77.5t72.5 -28.5q38 0 59.5 20t21.5 68q0 34 -16.5 59t-43 44.5t-56 38t-56 39t-43 47.5t-16.5 64q0 47 32 85.5t80 59.5q-40 27 -68.5 62t-28.5 85q0 54 24.5 87.5t64.5 49.5t86 16
t83.5 -10.5t57.5 -30.5q22 -22 25.5 -47t3.5 -63h-32q-8 49 -35.5 77.5t-72.5 28.5q-38 0 -59 -20t-21 -68q0 -34 16.5 -59t43 -44.5t55.5 -38t55.5 -39.5t43 -47.5t16.5 -63.5q0 -51 -31.5 -88t-82.5 -57q40 -28 69.5 -62.5t29.5 -84.5q0 -53 -24.5 -87t-64.5 -50t-86 -16z
M258 125q21 8 32 29t11 61q0 41 -32 72t-77 57q-21 -8 -32 -29.5t-11 -59.5q0 -41 32 -73t77 -57z" />
    <glyph glyph-name="dieresis" unicode="&#xa8;" horiz-adv-x="282" 
d="M226 690q-26 0 -41 16.5t-15 39.5t15 39.5t41 16.5t41 -16.5t15 -39.5t-15 -39.5t-41 -16.5zM56 690q-26 0 -41 16.5t-15 39.5t15 39.5t41 16.5t41 -16.5t15 -39.5t-15 -39.5t-41 -16.5z" />
    <glyph glyph-name="copyright" unicode="&#xa9;" horiz-adv-x="806" 
d="M403 -28q-80 0 -147.5 26.5t-117.5 75t-77.5 113.5t-27.5 143t27.5 143t77.5 113.5t117.5 75t147.5 26.5t147.5 -26.5t117.5 -75t77.5 -113.5t27.5 -143t-27.5 -143t-77.5 -113.5t-117.5 -75t-147.5 -26.5zM403 102q-66 0 -114.5 30t-74.5 81.5t-26 113.5q0 67 29 120.5
t78 85.5t108 32q64 0 103.5 -16t56.5 -37q16 -19 18.5 -46.5t2.5 -56.5h-31q-12 64 -42.5 94t-87.5 30q-38 0 -70 -19t-51 -64t-19 -123q0 -48 14.5 -92t45.5 -72.5t80 -28.5q43 0 79 24t65 72l25 -18q-32 -60 -78 -85t-111 -25zM403 17q88 0 155.5 40t106 110.5t38.5 162.5
t-38.5 162.5t-106 110.5t-155.5 40t-155.5 -40t-106 -110.5t-38.5 -162.5t38.5 -162.5t106 -110.5t155.5 -40z" />
    <glyph glyph-name="ordfeminine" unicode="&#xaa;" horiz-adv-x="324" 
d="M131 396q-24 0 -44.5 7t-32.5 22.5t-12 40.5q0 26 15.5 44t46 27.5t76.5 9.5h16q0 38 -7 57t-17.5 25t-21.5 6q-28 0 -41.5 -14t-18.5 -38h-29q0 14 1.5 30.5t12.5 27.5q10 11 33.5 15t51.5 4q30 0 54.5 -8t39 -32t14.5 -73v-146h-46l-19 25h-3q-9 -10 -25 -20t-44 -10z
M150 421q17 0 28.5 11.5t17.5 22.5v67h-16q-29 0 -47.5 -15.5t-18.5 -40.5q0 -26 11.5 -35.5t24.5 -9.5z" />
    <glyph glyph-name="guillemotleft" unicode="&#xab;" horiz-adv-x="425" 
d="M189 30l-158 195l158 195h64l-97 -194l97 -196h-64zM308 80l-102 145l102 145h64l-62 -145l62 -145h-64z" />
    <glyph glyph-name="logicalnot" unicode="&#xac;" horiz-adv-x="662" 
d="M513 115v105h-455v70h545v-175h-90z" />
    <glyph glyph-name="uni00AD" unicode="&#xad;" horiz-adv-x="395" 
d="M58 217v95h279v-95h-279z" />
    <glyph glyph-name="registered" unicode="&#xae;" horiz-adv-x="806" 
d="M403 -25q-80 0 -147.5 26t-117.5 73.5t-77.5 112.5t-27.5 143t27.5 143t77.5 112.5t117.5 73.5t147.5 26t147.5 -26t117.5 -73.5t77.5 -112.5t27.5 -143t-27.5 -143t-77.5 -112.5t-117.5 -73.5t-147.5 -26zM403 20q88 0 155.5 39t106 109t38.5 162t-38.5 162t-106 109
t-155.5 39t-155.5 -39t-106 -109t-38.5 -162t38.5 -162t106 -109t155.5 -39zM555 118q-38 0 -64.5 20.5t-59.5 73.5l-67 108h-20v-195h-88v352q0 28 -5 45t-25 17h-18v16h173q34 0 66 -5.5t57 -19t39.5 -37t14.5 -59.5q0 -34 -15.5 -56t-39.5 -34t-48 -18l68 -110
q23 -36 41.5 -55t42.5 -22v-14q0 -1 -13 -4t-39 -3zM378 349q25 0 44 8.5t30 28.5t11 52t-11 51.5t-30 28t-44 8.5q-5 0 -15.5 -0.5t-18.5 -1.5v-173q4 -1 15.5 -1.5t18.5 -0.5z" />
    <glyph glyph-name="macron" unicode="&#xaf;" horiz-adv-x="332" 
d="M20 766h292v-66h-292v66z" />
    <glyph glyph-name="degree" unicode="&#xb0;" horiz-adv-x="416" 
d="M209 360q-83 0 -127 46.5t-44 114.5q0 67 44 113t127 46q82 0 125.5 -46t43.5 -113q0 -68 -43.5 -114.5t-125.5 -46.5zM208 420q26 0 46 12.5t32 35t12 52.5t-12 52.5t-32 35t-46 12.5q-25 0 -45.5 -12.5t-32.5 -35t-12 -52.5t12 -52.5t32.5 -35t45.5 -12.5z" />
    <glyph glyph-name="plusminus" unicode="&#xb1;" horiz-adv-x="582" 
d="M49 55v70h197v170h-197v70h197v195h90v-195h197v-70h-197v-170h197v-70h-484z" />
    <glyph glyph-name="uni00B2" unicode="&#xb2;" horiz-adv-x="318" 
d="M53 377v23q47 48 77.5 80t46 59.5t15.5 62.5t-12 47.5t-33 12.5q-31 0 -48.5 -20.5t-24.5 -58.5h-16q0 17 1.5 38t9.5 32q13 15 37 25.5t54 10.5q24 0 48 -7.5t40 -26t16 -53.5q0 -39 -21.5 -68.5t-56.5 -59.5t-76 -70h81q28 0 42.5 10t14.5 34h15v-35q0 -14 -7.5 -25
t-31.5 -11h-171z" />
    <glyph glyph-name="uni00B3" unicode="&#xb3;" horiz-adv-x="304" 
d="M154 367q-42 0 -67 14t-44 37l14 12q33 -36 83 -36q20 0 37 15.5t17 52.5q0 36 -18.5 49t-41.5 13q-11 0 -20 -1t-23 -5l-16 28l118 107h-78q-25 0 -37.5 -10.5t-12.5 -32.5h-13v33q0 14 7.5 25.5t31.5 11.5h153v-18l-128 -115q12 3 23 3.5t16 0.5q26 0 51.5 -9
t42.5 -28.5t17 -51.5q0 -38 -20 -59t-46.5 -28.5t-45.5 -7.5z" />
    <glyph glyph-name="acute" unicode="&#xb4;" horiz-adv-x="201" 
d="M20 700l42 140h119l-106 -140h-55z" />
    <glyph glyph-name="uni03BC" unicode="&#xb5;" horiz-adv-x="550" 
d="M63 -190v660h130v-235q0 -68 11.5 -112.5t32.5 -66t51 -21.5q34 0 54 19.5t31 45.5v370h130v-470h-85l-35 45h-5q-13 -20 -40.5 -37.5t-64.5 -17.5q-30 0 -53.5 11t-46.5 34v-225h-110z" />
    <glyph glyph-name="paragraph" unicode="&#xb6;" horiz-adv-x="634" 
d="M256 -190v460q-65 0 -117.5 25t-82.5 69t-30 102q0 57 30 100.5t82.5 68.5t117.5 25h340v-45h-55v-805h-120v805h-45v-805h-120z" />
    <glyph glyph-name="periodcentered" unicode="&#xb7;" horiz-adv-x="226" 
d="M113 270q-29 0 -45 17t-16 44t16 44t45 17t45 -17t16 -44t-16 -44t-45 -17z" />
    <glyph glyph-name="cedilla" unicode="&#xb8;" horiz-adv-x="200" 
d="M40 -206v46h50q19 0 29.5 9.5t10.5 22.5q0 14 -10.5 23.5t-29.5 9.5h-45v95h65v-50q42 0 66 -21t24 -57q0 -35 -24 -56.5t-66 -21.5h-70z" />
    <glyph glyph-name="uni00B9" unicode="&#xb9;" horiz-adv-x="214" 
d="M80 377v237l-34 -20l-16 22l68 64h54v-303h-72z" />
    <glyph glyph-name="ordmasculine" unicode="&#xba;" horiz-adv-x="337" 
d="M168 367q-44 0 -72 22.5t-40.5 59t-12.5 79.5q0 44 12.5 80.5t40.5 58.5t72 22q46 0 73.5 -22t40 -58.5t12.5 -80.5q0 -43 -12.5 -79.5t-40 -59t-73.5 -22.5zM168 392q24 0 39 28.5t15 107.5q0 54 -7 83.5t-19 41t-28 11.5q-15 0 -27 -11.5t-19 -41t-7 -83.5
q0 -79 15.5 -107.5t37.5 -28.5z" />
    <glyph glyph-name="guillemotright" unicode="&#xbb;" horiz-adv-x="425" 
d="M172 30l97 196l-97 194h64l158 -195l-158 -195h-64zM53 80l62 145l-62 145h64l102 -145l-102 -145h-64z" />
    <glyph glyph-name="onequarter" unicode="&#xbc;" horiz-adv-x="617" 
d="M26 0l455 660h95l-455 -660h-95zM361 100h106v146zM467 0v73h-145v24l150 207h67v-204h34v-27h-34v-73h-72zM113 377v237l-34 -20l-16 22l68 64h54v-303h-72z" />
    <glyph glyph-name="onehalf" unicode="&#xbd;" horiz-adv-x="632" 
d="M26 0l455 660h95l-455 -660h-95zM372 0v23q47 48 77.5 80t46 59.5t15.5 62.5t-12 47.5t-33 12.5q-31 0 -48.5 -20.5t-24.5 -58.5h-16q0 17 1.5 38t9.5 32q13 15 37 25.5t54 10.5q24 0 48 -7.5t40 -26t16 -53.5q0 -39 -21.5 -68.5t-56.5 -59.5t-76 -70h81q28 0 42.5 10
t14.5 34h15v-35q0 -14 -7.5 -25t-31.5 -11h-171zM113 377v237l-34 -20l-16 22l68 64h54v-303h-72z" />
    <glyph glyph-name="threequarters" unicode="&#xbe;" horiz-adv-x="626" 
d="M45 0l455 660h95l-455 -660h-95zM370 100h106v146zM476 0v73h-145v24l150 207h67v-204h34v-27h-34v-73h-72zM148 367q-42 0 -67 14t-44 37l14 12q33 -36 83 -36q20 0 37 15.5t17 52.5q0 36 -18.5 49t-41.5 13q-11 0 -20 -1t-23 -5l-16 28l118 107h-78q-25 0 -37.5 -10.5
t-12.5 -32.5h-13v33q0 14 7.5 25.5t31.5 11.5h153v-18l-128 -115q12 3 23 3.5t16 0.5q26 0 51.5 -9t42.5 -28.5t17 -51.5q0 -38 -20 -59t-46.5 -28.5t-45.5 -7.5z" />
    <glyph glyph-name="questiondown" unicode="&#xbf;" horiz-adv-x="492" 
d="M240 -212q-46 0 -85 13t-68 37.5t-45 60.5t-16 82q0 50 19 85.5t47.5 62.5t57.5 53t50 56.5t25 73.5h68q-2 -44 -15.5 -77t-32.5 -60.5t-37 -55t-30 -60.5t-12 -78q0 -85 29.5 -116.5t74.5 -31.5q57 0 102.5 43.5t63.5 144.5h30q0 -44 -3 -85t-23 -67q-28 -32 -83 -56.5
t-117 -24.5zM259 360q-29 0 -45 17t-16 44t16 44t45 17t45 -17t16 -44t-16 -44t-45 -17z" />
    <glyph glyph-name="Agrave" unicode="&#xc0;" horiz-adv-x="647" 
d="M628 -4q-33 0 -69.5 8.5t-70 36.5t-57.5 85l-23 56h-266l-82 -182h-52l295 660h45l224 -534q18 -44 44 -70t60 -30v-25q-8 -2 -22.5 -3.5t-25.5 -1.5zM163 227h226l-110 261zM295 701l-106 140h119l42 -140h-55z" />
    <glyph glyph-name="Aacute" unicode="&#xc1;" horiz-adv-x="647" 
d="M628 -4q-33 0 -69.5 8.5t-70 36.5t-57.5 85l-23 56h-266l-82 -182h-52l295 660h45l224 -534q18 -44 44 -70t60 -30v-25q-8 -2 -22.5 -3.5t-25.5 -1.5zM163 227h226l-110 261zM301 700l42 140h119l-106 -140h-55z" />
    <glyph glyph-name="Acircumflex" unicode="&#xc2;" horiz-adv-x="647" 
d="M628 -4q-33 0 -69.5 8.5t-70 36.5t-57.5 85l-23 56h-266l-82 -182h-52l295 660h45l224 -534q18 -44 44 -70t60 -30v-25q-8 -2 -22.5 -3.5t-25.5 -1.5zM163 227h226l-110 261zM178 685l80 125h130l80 -125h-60l-85 80l-85 -80h-60z" />
    <glyph glyph-name="Atilde" unicode="&#xc3;" horiz-adv-x="647" 
d="M628 -4q-33 0 -69.5 8.5t-70 36.5t-57.5 85l-23 56h-266l-82 -182h-52l295 660h45l224 -534q18 -44 44 -70t60 -30v-25q-8 -2 -22.5 -3.5t-25.5 -1.5zM163 227h226l-110 261zM210 700q0 60 19 80t49 20q23 0 38.5 -10t28 -20t25.5 -10q17 0 26 12.5t9 27.5h40
q0 -60 -18.5 -80t-48.5 -20q-22 0 -38 10t-28.5 20t-26.5 10q-17 0 -26 -12.5t-9 -27.5h-40z" />
    <glyph glyph-name="Adieresis" unicode="&#xc4;" horiz-adv-x="647" 
d="M628 -4q-33 0 -69.5 8.5t-70 36.5t-57.5 85l-23 56h-266l-82 -182h-52l295 660h45l224 -534q18 -44 44 -70t60 -30v-25q-8 -2 -22.5 -3.5t-25.5 -1.5zM163 227h226l-110 261zM409 690q-26 0 -41 16.5t-15 39.5t15 39.5t41 16.5t41 -16.5t15 -39.5t-15 -39.5t-41 -16.5z
M239 690q-26 0 -41 16.5t-15 39.5t15 39.5t41 16.5t41 -16.5t15 -39.5t-15 -39.5t-41 -16.5z" />
    <glyph glyph-name="Aring" unicode="&#xc5;" horiz-adv-x="647" 
d="M628 -4q-33 0 -69.5 8.5t-70 36.5t-57.5 85l-23 56h-266l-82 -182h-52l276 619q-18 9 -36 31t-18 55q0 42 26.5 68.5t68.5 26.5t68.5 -26.5t26.5 -68.5q0 -33 -18.5 -55.5t-36.5 -30.5l207 -493q18 -44 44 -70t60 -30v-25q-8 -2 -22.5 -3.5t-25.5 -1.5zM163 227h226
l-110 261zM303 660h45q11 8 16.5 19t5.5 26q0 23 -13 36.5t-32 13.5t-32 -13.5t-13 -36.5q0 -15 6 -26t17 -19z" />
    <glyph glyph-name="AE" unicode="&#xc6;" horiz-adv-x="868" 
d="M-22 0l370 660h376q35 0 53 -11.5t25 -30t7 -38.5v-85h-30q0 64 -32.5 92t-92.5 28h-161v-250h260v-45h-260v-275h171q55 0 93.5 24.5t64.5 89.5l27 -10l-29 -79q-11 -32 -28.5 -51t-58.5 -19h-370v190h-218l-107 -190h-60zM170 235h193v344z" />
    <glyph glyph-name="Ccedilla" unicode="&#xc7;" horiz-adv-x="679" 
d="M367 -20q-105 0 -179 45t-112.5 122t-38.5 173q0 76 24.5 141.5t69.5 114.5t105 76.5t131 27.5q94 0 151.5 -24.5t85.5 -56.5q20 -26 23 -67t3 -85h-30q-19 91 -69.5 139.5t-133.5 48.5q-61 0 -111 -28t-79.5 -96.5t-29.5 -190.5q0 -57 12 -110t38.5 -95t68 -66
t101.5 -24q69 0 128 36.5t95 106.5l35 -27q-47 -83 -115 -122t-173 -39zM318 -206v46h50q19 0 29.5 9.5t10.5 22.5q0 14 -10.5 23.5t-29.5 9.5h-45v95h65v-50q42 0 66 -21t24 -57q0 -35 -24 -56.5t-66 -21.5h-70z" />
    <glyph glyph-name="Egrave" unicode="&#xc8;" horiz-adv-x="600" 
d="M95 0v530q0 45 -12.5 72.5t-57.5 27.5h-10v30h441q35 0 53 -11.5t25 -30t7 -38.5v-85h-30q0 64 -32.5 92t-92.5 28h-161v-250h260v-45h-260v-275h171q55 0 93.5 24.5t64.5 89.5l27 -10l-29 -79q-11 -32 -28.5 -51t-58.5 -19h-370zM298 701l-106 140h119l42 -140h-55z" />
    <glyph glyph-name="Eacute" unicode="&#xc9;" horiz-adv-x="600" 
d="M95 0v530q0 45 -12.5 72.5t-57.5 27.5h-10v30h441q35 0 53 -11.5t25 -30t7 -38.5v-85h-30q0 64 -32.5 92t-92.5 28h-161v-250h260v-45h-260v-275h171q55 0 93.5 24.5t64.5 89.5l27 -10l-29 -79q-11 -32 -28.5 -51t-58.5 -19h-370zM280 700l42 140h119l-106 -140h-55z" />
    <glyph glyph-name="Ecircumflex" unicode="&#xca;" horiz-adv-x="600" 
d="M95 0v530q0 45 -12.5 72.5t-57.5 27.5h-10v30h441q35 0 53 -11.5t25 -30t7 -38.5v-85h-30q0 64 -32.5 92t-92.5 28h-161v-250h260v-45h-260v-275h171q55 0 93.5 24.5t64.5 89.5l27 -10l-29 -79q-11 -32 -28.5 -51t-58.5 -19h-370zM160 722l80 125h130l80 -125h-60l-85 80
l-85 -80h-60z" />
    <glyph glyph-name="Edieresis" unicode="&#xcb;" horiz-adv-x="600" 
d="M95 0v530q0 45 -12.5 72.5t-57.5 27.5h-10v30h441q35 0 53 -11.5t25 -30t7 -38.5v-85h-30q0 64 -32.5 92t-92.5 28h-161v-250h260v-45h-260v-275h171q55 0 93.5 24.5t64.5 89.5l27 -10l-29 -79q-11 -32 -28.5 -51t-58.5 -19h-370zM392 730q-26 0 -41 16.5t-15 39.5
t15 39.5t41 16.5t41 -16.5t15 -39.5t-15 -39.5t-41 -16.5zM212 730q-26 0 -41 16.5t-15 39.5t15 39.5t41 16.5t41 -16.5t15 -39.5t-15 -39.5t-41 -16.5z" />
    <glyph glyph-name="Igrave" unicode="&#xcc;" horiz-adv-x="304" 
d="M169 0q-35 0 -54.5 11.5t-27.5 40t-8 78.5v530h130v-530q0 -45 12.5 -72.5t57.5 -27.5h10v-30h-120zM127 701l-106 140h119l42 -140h-55z" />
    <glyph glyph-name="Iacute" unicode="&#xcd;" horiz-adv-x="304" 
d="M169 0q-35 0 -54.5 11.5t-27.5 40t-8 78.5v530h130v-530q0 -45 12.5 -72.5t57.5 -27.5h10v-30h-120zM111 700l42 140h119l-106 -140h-55z" />
    <glyph glyph-name="Icircumflex" unicode="&#xce;" horiz-adv-x="304" 
d="M169 0q-35 0 -54.5 11.5t-27.5 40t-8 78.5v530h130v-530q0 -45 12.5 -72.5t57.5 -27.5h10v-30h-120zM-1 695l80 125h130l80 -125h-60l-85 80l-85 -80h-60z" />
    <glyph glyph-name="Idieresis" unicode="&#xcf;" horiz-adv-x="304" 
d="M169 0q-35 0 -54.5 11.5t-27.5 40t-8 78.5v530h130v-530q0 -45 12.5 -72.5t57.5 -27.5h10v-30h-120zM61 715q-26 0 -41 16.5t-15 39.5t15 39.5t41 16.5t41 -16.5t15 -39.5t-15 -39.5t-41 -16.5zM227 715q-26 0 -41 16.5t-15 39.5t15 39.5t41 16.5t41 -16.5t15 -39.5
t-15 -39.5t-41 -16.5z" />
    <glyph glyph-name="Eth" unicode="&#xd0;" horiz-adv-x="736" 
d="M95 0v305h-70v50h70v175q0 45 -12.5 72.5t-57.5 27.5h-10v30h272q206 0 309.5 -87t103.5 -239q0 -99 -44.5 -174t-130.5 -117.5t-212 -42.5h-218zM310 40q70 0 124 35t85 100t31 155q0 88 -30.5 153t-85 101t-126.5 36q-22 0 -38 -1t-45 -6v-258h75v-50h-75v-258
q22 -4 34.5 -5.5t23.5 -1.5h27z" />
    <glyph glyph-name="Ntilde" unicode="&#xd1;" horiz-adv-x="692" 
d="M572 -3l-424 498v-495h-50v540q0 38 -18.5 64t-71.5 26h-5v30h70q57 0 92.5 -15t58.5 -45l344 -400v460h50v-663h-46zM235 694q0 60 19 80t49 20q23 0 38.5 -10t28 -20t25.5 -10q17 0 26 12.5t9 27.5h40q0 -60 -18.5 -80t-48.5 -20q-22 0 -38 10t-28.5 20t-26.5 10
q-17 0 -26 -12.5t-9 -27.5h-40z" />
    <glyph glyph-name="Ograve" unicode="&#xd2;" horiz-adv-x="733" 
d="M367 -20q-99 0 -173.5 46.5t-115.5 125.5t-41 178t41 178t115.5 125.5t173.5 46.5q100 0 173.5 -46.5t114.5 -125.5t41 -178t-41 -178t-114.5 -125.5t-173.5 -46.5zM367 25q61 0 103.5 35.5t65 104t22.5 165.5q0 98 -22.5 166t-65 103.5t-103.5 35.5q-60 0 -102.5 -35.5
t-65 -103.5t-22.5 -166q0 -97 22.5 -165.5t65 -104t102.5 -35.5zM344 723l-106 140h119l42 -140h-55z" />
    <glyph glyph-name="Oacute" unicode="&#xd3;" horiz-adv-x="733" 
d="M367 -20q-99 0 -173.5 46.5t-115.5 125.5t-41 178t41 178t115.5 125.5t173.5 46.5q100 0 173.5 -46.5t114.5 -125.5t41 -178t-41 -178t-114.5 -125.5t-173.5 -46.5zM367 25q61 0 103.5 35.5t65 104t22.5 165.5q0 98 -22.5 166t-65 103.5t-103.5 35.5q-60 0 -102.5 -35.5
t-65 -103.5t-22.5 -166q0 -97 22.5 -165.5t65 -104t102.5 -35.5zM338 724l42 140h119l-106 -140h-55z" />
    <glyph glyph-name="Ocircumflex" unicode="&#xd4;" horiz-adv-x="733" 
d="M367 -20q-99 0 -173.5 46.5t-115.5 125.5t-41 178t41 178t115.5 125.5t173.5 46.5q100 0 173.5 -46.5t114.5 -125.5t41 -178t-41 -178t-114.5 -125.5t-173.5 -46.5zM367 25q61 0 103.5 35.5t65 104t22.5 165.5q0 98 -22.5 166t-65 103.5t-103.5 35.5q-60 0 -102.5 -35.5
t-65 -103.5t-22.5 -166q0 -97 22.5 -165.5t65 -104t102.5 -35.5zM218 731l80 125h130l80 -125h-60l-85 80l-85 -80h-60z" />
    <glyph glyph-name="Otilde" unicode="&#xd5;" horiz-adv-x="733" 
d="M367 -20q-99 0 -173.5 46.5t-115.5 125.5t-41 178t41 178t115.5 125.5t173.5 46.5q100 0 173.5 -46.5t114.5 -125.5t41 -178t-41 -178t-114.5 -125.5t-173.5 -46.5zM367 25q61 0 103.5 35.5t65 104t22.5 165.5q0 98 -22.5 166t-65 103.5t-103.5 35.5q-60 0 -102.5 -35.5
t-65 -103.5t-22.5 -166q0 -97 22.5 -165.5t65 -104t102.5 -35.5zM249 738q0 60 19 80t49 20q23 0 38.5 -10t28 -20t25.5 -10q17 0 26 12.5t9 27.5h40q0 -60 -18.5 -80t-48.5 -20q-22 0 -38 10t-28.5 20t-26.5 10q-17 0 -26 -12.5t-9 -27.5h-40z" />
    <glyph glyph-name="Odieresis" unicode="&#xd6;" horiz-adv-x="733" 
d="M367 -20q-99 0 -173.5 46.5t-115.5 125.5t-41 178t41 178t115.5 125.5t173.5 46.5q100 0 173.5 -46.5t114.5 -125.5t41 -178t-41 -178t-114.5 -125.5t-173.5 -46.5zM367 25q61 0 103.5 35.5t65 104t22.5 165.5q0 98 -22.5 166t-65 103.5t-103.5 35.5q-60 0 -102.5 -35.5
t-65 -103.5t-22.5 -166q0 -97 22.5 -165.5t65 -104t102.5 -35.5zM457 735q-26 0 -41 16.5t-15 39.5t15 39.5t41 16.5t41 -16.5t15 -39.5t-15 -39.5t-41 -16.5zM277 735q-26 0 -41 16.5t-15 39.5t15 39.5t41 16.5t41 -16.5t15 -39.5t-15 -39.5t-41 -16.5z" />
    <glyph glyph-name="multiply" unicode="&#xd7;" horiz-adv-x="489" 
d="M105 132l-63 63l139 139l-138 138l64 64l138 -138l139 139l64 -63l-140 -140l138 -138l-64 -63l-137 138z" />
    <glyph glyph-name="Oslash" unicode="&#xd8;" horiz-adv-x="733" 
d="M107 -20l45 76q-55 48 -85 118.5t-30 155.5q0 99 41 178t115.5 125.5t173.5 46.5q39 0 75 -7.5t68 -23.5l18 31h92l-44 -73q57 -48 88.5 -119t31.5 -158q0 -99 -41 -178t-114.5 -125.5t-173.5 -46.5q-42 0 -79 8.5t-69 24.5l-20 -33h-92zM367 25q61 0 103.5 35.5t65 104
t22.5 165.5q0 59 -8.5 106.5t-24.5 85.5l-272 -452q45 -45 114 -45zM206 145l270 448q-46 42 -109 42q-60 0 -102.5 -35.5t-65 -103.5t-22.5 -166q0 -109 29 -185z" />
    <glyph glyph-name="Ugrave" unicode="&#xd9;" horiz-adv-x="694" 
d="M362 -10q-90 0 -150 33t-90 99.5t-30 165.5v242q0 43 -11 70t-50 30h-9v30h110q35 0 54.5 -12t27.5 -40t8 -78l1 -272q1 -104 40.5 -163.5t118.5 -59.5q68 0 111 27t63.5 83t20.5 143v372h50v-372q0 -94 -25.5 -160.5t-83.5 -102t-156 -35.5zM369 680l-106 140h119
l42 -140h-55z" />
    <glyph glyph-name="Uacute" unicode="&#xda;" horiz-adv-x="694" 
d="M362 -10q-90 0 -150 33t-90 99.5t-30 165.5v242q0 43 -11 70t-50 30h-9v30h110q35 0 54.5 -12t27.5 -40t8 -78l1 -272q1 -104 40.5 -163.5t118.5 -59.5q68 0 111 27t63.5 83t20.5 143v372h50v-372q0 -94 -25.5 -160.5t-83.5 -102t-156 -35.5zM337 680l42 140h119
l-106 -140h-55z" />
    <glyph glyph-name="Ucircumflex" unicode="&#xdb;" horiz-adv-x="694" 
d="M362 -10q-90 0 -150 33t-90 99.5t-30 165.5v242q0 43 -11 70t-50 30h-9v30h110q35 0 54.5 -12t27.5 -40t8 -78l1 -272q1 -104 40.5 -163.5t118.5 -59.5q68 0 111 27t63.5 83t20.5 143v372h50v-372q0 -94 -25.5 -160.5t-83.5 -102t-156 -35.5zM243 681l80 125h130l80 -125
h-60l-85 80l-85 -80h-60z" />
    <glyph glyph-name="Udieresis" unicode="&#xdc;" horiz-adv-x="694" 
d="M362 -10q-90 0 -150 33t-90 99.5t-30 165.5v242q0 43 -11 70t-50 30h-9v30h110q35 0 54.5 -12t27.5 -40t8 -78l1 -272q1 -104 40.5 -163.5t118.5 -59.5q68 0 111 27t63.5 83t20.5 143v372h50v-372q0 -94 -25.5 -160.5t-83.5 -102t-156 -35.5zM473 680q-26 0 -41 16.5
t-15 39.5t15 39.5t41 16.5t41 -16.5t15 -39.5t-15 -39.5t-41 -16.5zM293 680q-26 0 -41 16.5t-15 39.5t15 39.5t41 16.5t41 -16.5t15 -39.5t-15 -39.5t-41 -16.5z" />
    <glyph glyph-name="Yacute" unicode="&#xdd;" horiz-adv-x="638" 
d="M279 0v264l-177 266q-17 26 -39.5 50t-46.5 41t-47 19v20h109q38 0 68.5 -17t54.5 -42t40 -51l136 -205l194 315h65l-227 -369v-291h-130zM318 669l42 140h119l-106 -140h-55z" />
    <glyph glyph-name="Thorn" unicode="&#xde;" horiz-adv-x="555" 
d="M97 -30v590q0 45 -12.5 72.5t-57.5 27.5h-10v30h120q53 0 71.5 -28t18.5 -102v-10q155 -4 232.5 -63t77.5 -172q0 -115 -77.5 -173.5t-232.5 -61.5v-110h-130zM227 125q59 4 96.5 28.5t55.5 66t18 95.5q0 55 -18.5 96t-56 65.5t-95.5 27.5v-379z" />
    <glyph glyph-name="germandbls" unicode="&#xdf;" horiz-adv-x="573" 
d="M380 -10q-38 0 -72 10.5t-53 29.5t-22 45t-3 45h30q4 -30 29.5 -57.5t70.5 -27.5q34 0 52 19.5t18 45.5q0 33 -19.5 55.5t-48.5 41t-58.5 38.5t-49 47.5t-19.5 67.5q0 33 10.5 54.5t26 37t31.5 30t26.5 33t10.5 45.5q0 38 -20 56.5t-50 18.5q-34 0 -57 -27t-23 -98v-500
h-130v500q0 70 27.5 106.5t76.5 50t111 13.5q98 0 144 -27.5t46 -72.5q0 -33 -12.5 -56.5t-31 -41.5t-37.5 -33.5t-31.5 -31.5t-12.5 -37q0 -33 21.5 -55.5t54 -41t64.5 -38.5t53.5 -47t21.5 -68q0 -45 -26 -74t-66 -42.5t-83 -13.5z" />
    <glyph glyph-name="agrave" unicode="&#xe0;" horiz-adv-x="496" 
d="M199 -10q-42 0 -73.5 10t-53 27.5t-32.5 42.5t-11 55q0 48 22.5 81.5t81.5 51t166 17.5h15q0 60 -11 95t-32.5 50t-51.5 15q-34 0 -61 -17t-39 -73h-55q0 26 3.5 53t21.5 47t59.5 27.5t90.5 7.5t87 -13t64.5 -39t40 -65.5t13.5 -92.5v-270h-85l-35 45h-5q-13 -21 -44 -38
t-76 -17zM229 40q33 0 55 22t30 43v125h-15q-72 0 -103.5 -26t-31.5 -79q0 -42 17.5 -63.5t47.5 -21.5zM221 525l-106 140h119l42 -140h-55z" />
    <glyph glyph-name="aacute" unicode="&#xe1;" horiz-adv-x="496" 
d="M199 -10q-42 0 -73.5 10t-53 27.5t-32.5 42.5t-11 55q0 48 22.5 81.5t81.5 51t166 17.5h15q0 60 -11 95t-32.5 50t-51.5 15q-34 0 -61 -17t-39 -73h-55q0 26 3.5 53t21.5 47t59.5 27.5t90.5 7.5t87 -13t64.5 -39t40 -65.5t13.5 -92.5v-270h-85l-35 45h-5q-13 -21 -44 -38
t-76 -17zM229 40q33 0 55 22t30 43v125h-15q-72 0 -103.5 -26t-31.5 -79q0 -42 17.5 -63.5t47.5 -21.5zM201 525l42 140h119l-106 -140h-55z" />
    <glyph glyph-name="acircumflex" unicode="&#xe2;" horiz-adv-x="496" 
d="M199 -10q-42 0 -73.5 10t-53 27.5t-32.5 42.5t-11 55q0 48 22.5 81.5t81.5 51t166 17.5h15q0 60 -11 95t-32.5 50t-51.5 15q-34 0 -61 -17t-39 -73h-55q0 26 3.5 53t21.5 47t59.5 27.5t90.5 7.5t87 -13t64.5 -39t40 -65.5t13.5 -92.5v-270h-85l-35 45h-5q-13 -21 -44 -38
t-76 -17zM229 40q33 0 55 22t30 43v125h-15q-72 0 -103.5 -26t-31.5 -79q0 -42 17.5 -63.5t47.5 -21.5zM105 530l80 125h130l80 -125h-60l-85 80l-85 -80h-60z" />
    <glyph glyph-name="atilde" unicode="&#xe3;" horiz-adv-x="496" 
d="M199 -10q-42 0 -73.5 10t-53 27.5t-32.5 42.5t-11 55q0 48 22.5 81.5t81.5 51t166 17.5h15q0 60 -11 95t-32.5 50t-51.5 15q-34 0 -61 -17t-39 -73h-55q0 26 3.5 53t21.5 47t59.5 27.5t90.5 7.5t87 -13t64.5 -39t40 -65.5t13.5 -92.5v-270h-85l-35 45h-5q-13 -21 -44 -38
t-76 -17zM229 40q33 0 55 22t30 43v125h-15q-72 0 -103.5 -26t-31.5 -79q0 -42 17.5 -63.5t47.5 -21.5zM128 535q0 60 19 80t49 20q23 0 38.5 -10t28 -20t25.5 -10q17 0 26 12.5t9 27.5h40q0 -60 -18.5 -80t-48.5 -20q-22 0 -38 10t-28.5 20t-26.5 10q-17 0 -26 -12.5
t-9 -27.5h-40z" />
    <glyph glyph-name="adieresis" unicode="&#xe4;" horiz-adv-x="496" 
d="M199 -10q-42 0 -73.5 10t-53 27.5t-32.5 42.5t-11 55q0 48 22.5 81.5t81.5 51t166 17.5h15q0 60 -11 95t-32.5 50t-51.5 15q-34 0 -61 -17t-39 -73h-55q0 26 3.5 53t21.5 47t59.5 27.5t90.5 7.5t87 -13t64.5 -39t40 -65.5t13.5 -92.5v-270h-85l-35 45h-5q-13 -21 -44 -38
t-76 -17zM229 40q33 0 55 22t30 43v125h-15q-72 0 -103.5 -26t-31.5 -79q0 -42 17.5 -63.5t47.5 -21.5zM339 535q-26 0 -41 16.5t-15 39.5t15 39.5t41 16.5t41 -16.5t15 -39.5t-15 -39.5t-41 -16.5zM159 535q-26 0 -41 16.5t-15 39.5t15 39.5t41 16.5t41 -16.5t15 -39.5
t-15 -39.5t-41 -16.5z" />
    <glyph glyph-name="aring" unicode="&#xe5;" horiz-adv-x="496" 
d="M199 -10q-42 0 -73.5 10t-53 27.5t-32.5 42.5t-11 55q0 48 22.5 81.5t81.5 51t166 17.5h15q0 60 -11 95t-32.5 50t-51.5 15q-34 0 -61 -17t-39 -73h-55q0 26 3.5 53t21.5 47t59.5 27.5t90.5 7.5t87 -13t64.5 -39t40 -65.5t13.5 -92.5v-270h-85l-35 45h-5q-13 -21 -44 -38
t-76 -17zM229 40q33 0 55 22t30 43v125h-15q-72 0 -103.5 -26t-31.5 -79q0 -42 17.5 -63.5t47.5 -21.5zM243 520q-42 0 -68.5 26.5t-26.5 68.5t26.5 68.5t68.5 26.5t68.5 -26.5t26.5 -68.5t-26.5 -68.5t-68.5 -26.5zM243 565q19 0 32 13.5t13 36.5t-13 36.5t-32 13.5
t-32 -13.5t-13 -36.5t13 -36.5t32 -13.5z" />
    <glyph glyph-name="ae" unicode="&#xe6;" horiz-adv-x="795" 
d="M208 -10q-60 0 -100 17t-60 46.5t-20 66.5q0 43 24 74.5t83.5 49.5t167.5 18h15q0 61 -11.5 99t-33.5 56t-55 18q-34 0 -61 -17t-39 -73h-55q0 55 15 84t49.5 40t90.5 11q64 0 108 -24.5t67 -66.5q29 46 70.5 68.5t89.5 22.5q58 0 105.5 -25t76 -70t28.5 -105l-4 -63
h-301q1 -101 31 -141.5t79 -40.5q52 0 84.5 24t58.5 59l31 -23q-14 -22 -37.5 -46.5t-60 -41.5t-91.5 -17q-110 0 -170 90q-18 -34 -61 -62t-114 -28zM228 40q38 0 59 22.5t31 42.5v112h-15q-58 0 -88 -11.5t-41 -33.5t-11 -52q0 -34 17.5 -57t47.5 -23zM458 262h170
q0 92 -24 132.5t-61 40.5q-22 0 -41.5 -17.5t-31.5 -55.5t-12 -100z" />
    <glyph glyph-name="ccedilla" unicode="&#xe7;" horiz-adv-x="496" 
d="M276 -10q-80 0 -133.5 33.5t-80 89.5t-26.5 122q0 67 26.5 122.5t80 89t133.5 33.5q57 0 96.5 -8t58.5 -27t22 -51t3 -89h-30q-4 64 -39.5 97t-95.5 33q-36 0 -63 -21.5t-42 -66t-15 -112.5q0 -66 14 -110.5t41.5 -67t69.5 -22.5q52 0 84.5 24t58.5 59l31 -23
q-14 -22 -37.5 -46.5t-61 -41.5t-95.5 -17zM228 -188v46h50q19 0 29.5 9.5t10.5 22.5q0 14 -10.5 23.5t-29.5 9.5h-45v95h65v-50q42 0 66 -21t24 -57q0 -35 -24 -56.5t-66 -21.5h-70z" />
    <glyph glyph-name="egrave" unicode="&#xe8;" horiz-adv-x="509" 
d="M267 -10q-70 0 -122 32t-80 87.5t-28 125.5q0 80 29 134.5t79 82.5t112 28t112 -25t79 -70t29 -105l-4 -63h-301q0 -99 30.5 -140.5t79.5 -41.5q52 0 84.5 24t58.5 59l31 -23q-14 -22 -37.5 -46.5t-60 -41.5t-91.5 -17zM172 262h170q0 99 -23.5 136t-61.5 37
q-22 0 -41.5 -16t-31.5 -53.5t-12 -103.5zM235 525l-106 140h119l42 -140h-55z" />
    <glyph glyph-name="eacute" unicode="&#xe9;" horiz-adv-x="509" 
d="M267 -10q-70 0 -122 32t-80 87.5t-28 125.5q0 80 29 134.5t79 82.5t112 28t112 -25t79 -70t29 -105l-4 -63h-301q0 -99 30.5 -140.5t79.5 -41.5q52 0 84.5 24t58.5 59l31 -23q-14 -22 -37.5 -46.5t-60 -41.5t-91.5 -17zM172 262h170q0 99 -23.5 136t-61.5 37
q-22 0 -41.5 -16t-31.5 -53.5t-12 -103.5zM219 524l42 140h119l-106 -140h-55z" />
    <glyph glyph-name="ecircumflex" unicode="&#xea;" horiz-adv-x="509" 
d="M267 -10q-70 0 -122 32t-80 87.5t-28 125.5q0 80 29 134.5t79 82.5t112 28t112 -25t79 -70t29 -105l-4 -63h-301q0 -99 30.5 -140.5t79.5 -41.5q52 0 84.5 24t58.5 59l31 -23q-14 -22 -37.5 -46.5t-60 -41.5t-91.5 -17zM172 262h170q0 99 -23.5 136t-61.5 37
q-22 0 -41.5 -16t-31.5 -53.5t-12 -103.5zM111 529l80 125h130l80 -125h-60l-85 80l-85 -80h-60z" />
    <glyph glyph-name="edieresis" unicode="&#xeb;" horiz-adv-x="509" 
d="M267 -10q-70 0 -122 32t-80 87.5t-28 125.5q0 80 29 134.5t79 82.5t112 28t112 -25t79 -70t29 -105l-4 -63h-301q0 -99 30.5 -140.5t79.5 -41.5q52 0 84.5 24t58.5 59l31 -23q-14 -22 -37.5 -46.5t-60 -41.5t-91.5 -17zM172 262h170q0 99 -23.5 136t-61.5 37
q-22 0 -41.5 -16t-31.5 -53.5t-12 -103.5zM342 535q-26 0 -41 16.5t-15 39.5t15 39.5t41 16.5t41 -16.5t15 -39.5t-15 -39.5t-41 -16.5zM162 535q-26 0 -41 16.5t-15 39.5t15 39.5t41 16.5t41 -16.5t15 -39.5t-15 -39.5t-41 -16.5z" />
    <glyph glyph-name="igrave" unicode="&#xec;" horiz-adv-x="267" 
d="M79 0v340q0 45 -12.5 72.5t-57.5 27.5h-10v30h120q35 0 54.5 -12t27.5 -40t8 -78v-340h-130zM116 525l-106 140h119l42 -140h-55z" />
    <glyph glyph-name="iacute" unicode="&#xed;" horiz-adv-x="267" 
d="M79 0v340q0 45 -12.5 72.5t-57.5 27.5h-10v30h120q35 0 54.5 -12t27.5 -40t8 -78v-340h-130zM99 525l42 140h119l-106 -140h-55z" />
    <glyph glyph-name="icircumflex" unicode="&#xee;" horiz-adv-x="267" 
d="M79 0v340q0 45 -12.5 72.5t-57.5 27.5h-10v30h120q35 0 54.5 -12t27.5 -40t8 -78v-340h-130zM-11 531l80 125h130l80 -125h-60l-85 80l-85 -80h-60z" />
    <glyph glyph-name="idieresis" unicode="&#xef;" horiz-adv-x="267" 
d="M79 0v340q0 45 -12.5 72.5t-57.5 27.5h-10v30h120q35 0 54.5 -12t27.5 -40t8 -78v-340h-130zM54 534q-38 0 -56.5 23t-18.5 53q0 26 16 41t39 15q38 0 56.5 -23t18.5 -53q0 -26 -16 -41t-39 -15zM239 534q-38 0 -56.5 23t-18.5 53q0 26 16 41t39 15q38 0 56.5 -23
t18.5 -53q0 -26 -16 -41t-39 -15z" />
    <glyph glyph-name="eth" unicode="&#xf0;" horiz-adv-x="557" 
d="M276 -10q-80 0 -133.5 33t-80 89t-26.5 123q0 68 26.5 123.5t78 88.5t125.5 33q49 0 85 -21t55 -59q-11 51 -26.5 88.5t-39.5 66.5l-47 -47l-40 40l47 47q-21 20 -48.5 25t-55.5 5q-18 0 -31.5 -3.5t-21.5 -5.5l-14 32q18 11 43 16.5t44 5.5q43 0 73 -9.5t55 -26.5l43 46
l40 -38l-42 -42q56 -50 93.5 -134.5t37.5 -195.5q0 -127 -60 -203.5t-180 -76.5zM276 35q28 0 52 22t38.5 66.5t14.5 111.5q0 48 -10.5 94t-33.5 76t-61 30q-37 0 -60.5 -30t-34 -76t-10.5 -94q0 -67 14.5 -111.5t38.5 -66.5t52 -22z" />
    <glyph glyph-name="ntilde" unicode="&#xf1;" horiz-adv-x="575" 
d="M80 0v340q0 45 -12 72.5t-57 27.5h-10v30h99q34 0 53.5 -8.5t30.5 -28.5q18 17 51.5 32t94.5 15q63 0 105 -19t63.5 -59.5t21.5 -105.5v-296h-130v297q0 49 -12.5 78t-33.5 42t-49 13t-49.5 -7t-35.5 -18v-405h-130zM177 544q0 60 19 80t49 20q23 0 38.5 -10t28 -20
t25.5 -10q17 0 26 12.5t9 27.5h40q0 -60 -18.5 -80t-48.5 -20q-22 0 -38 10t-28.5 20t-26.5 10q-17 0 -26 -12.5t-9 -27.5h-40z" />
    <glyph glyph-name="ograve" unicode="&#xf2;" horiz-adv-x="552" 
d="M276 -10q-74 0 -128 32.5t-83 88.5t-29 124q0 69 29 124.5t83 88t128 32.5q75 0 128.5 -32.5t82.5 -88t29 -124.5q0 -68 -29 -124t-82.5 -88.5t-128.5 -32.5zM276 35q35 0 58.5 26t35 71.5t11.5 102.5q0 58 -11.5 103t-35 71t-58.5 26t-58.5 -26t-35 -71t-11.5 -103
q0 -57 11.5 -102.5t35 -71.5t58.5 -26zM259 525l-106 140h119l42 -140h-55z" />
    <glyph glyph-name="oacute" unicode="&#xf3;" horiz-adv-x="552" 
d="M276 -10q-74 0 -128 32.5t-83 88.5t-29 124q0 69 29 124.5t83 88t128 32.5q75 0 128.5 -32.5t82.5 -88t29 -124.5q0 -68 -29 -124t-82.5 -88.5t-128.5 -32.5zM276 35q35 0 58.5 26t35 71.5t11.5 102.5q0 58 -11.5 103t-35 71t-58.5 26t-58.5 -26t-35 -71t-11.5 -103
q0 -57 11.5 -102.5t35 -71.5t58.5 -26zM233 524l42 140h119l-106 -140h-55z" />
    <glyph glyph-name="ocircumflex" unicode="&#xf4;" horiz-adv-x="552" 
d="M276 -10q-74 0 -128 32.5t-83 88.5t-29 124q0 69 29 124.5t83 88t128 32.5q75 0 128.5 -32.5t82.5 -88t29 -124.5q0 -68 -29 -124t-82.5 -88.5t-128.5 -32.5zM276 35q35 0 58.5 26t35 71.5t11.5 102.5q0 58 -11.5 103t-35 71t-58.5 26t-58.5 -26t-35 -71t-11.5 -103
q0 -57 11.5 -102.5t35 -71.5t58.5 -26zM131 524l80 125h130l80 -125h-60l-85 80l-85 -80h-60z" />
    <glyph glyph-name="otilde" unicode="&#xf5;" horiz-adv-x="552" 
d="M276 -10q-74 0 -128 32.5t-83 88.5t-29 124q0 69 29 124.5t83 88t128 32.5q75 0 128.5 -32.5t82.5 -88t29 -124.5q0 -68 -29 -124t-82.5 -88.5t-128.5 -32.5zM276 35q35 0 58.5 26t35 71.5t11.5 102.5q0 58 -11.5 103t-35 71t-58.5 26t-58.5 -26t-35 -71t-11.5 -103
q0 -57 11.5 -102.5t35 -71.5t58.5 -26zM158 535q0 60 19 80t49 20q23 0 38.5 -10t28 -20t25.5 -10q17 0 26 12.5t9 27.5h40q0 -60 -18.5 -80t-48.5 -20q-22 0 -38 10t-28.5 20t-26.5 10q-17 0 -26 -12.5t-9 -27.5h-40z" />
    <glyph glyph-name="odieresis" unicode="&#xf6;" horiz-adv-x="552" 
d="M276 -10q-74 0 -128 32.5t-83 88.5t-29 124q0 69 29 124.5t83 88t128 32.5q75 0 128.5 -32.5t82.5 -88t29 -124.5q0 -68 -29 -124t-82.5 -88.5t-128.5 -32.5zM276 35q35 0 58.5 26t35 71.5t11.5 102.5q0 58 -11.5 103t-35 71t-58.5 26t-58.5 -26t-35 -71t-11.5 -103
q0 -57 11.5 -102.5t35 -71.5t58.5 -26zM366 535q-26 0 -41 16.5t-15 39.5t15 39.5t41 16.5t41 -16.5t15 -39.5t-15 -39.5t-41 -16.5zM186 535q-26 0 -41 16.5t-15 39.5t15 39.5t41 16.5t41 -16.5t15 -39.5t-15 -39.5t-41 -16.5z" />
    <glyph glyph-name="divide" unicode="&#xf7;" horiz-adv-x="548" 
d="M44 297v65h460v-65h-460zM274 123q-26 0 -41 16.5t-15 39.5t15 39.5t41 16.5t41 -16.5t15 -39.5t-15 -39.5t-41 -16.5zM274 425q-26 0 -41 16.5t-15 39.5t15 39.5t41 16.5t41 -16.5t15 -39.5t-15 -39.5t-41 -16.5z" />
    <glyph glyph-name="oslash" unicode="&#xf8;" horiz-adv-x="552" 
d="M276 -10q-33 0 -62 7t-54 19l-12 -16h-92l44 60q-64 69 -64 175q0 69 29 124.5t83 88t128 32.5q33 0 62 -7t54 -19l12 16h92l-45 -60q32 -33 48.5 -78t16.5 -97q0 -68 -29 -124t-82.5 -88.5t-128.5 -32.5zM276 35q35 0 58.5 26t35 71.5t11.5 102.5q0 39 -6 72l-170 -230
q26 -42 71 -42zM176 162l170 230q-13 20 -30 31.5t-40 11.5q-35 0 -58.5 -26t-35 -71t-11.5 -103q0 -20 1 -38t4 -35z" />
    <glyph glyph-name="ugrave" unicode="&#xf9;" horiz-adv-x="565" 
d="M255 -10q-62 0 -103.5 19t-61.5 60t-20 105v166q0 45 -12.5 72.5t-57.5 27.5h-10v30h120q35 0 54.5 -12t27.5 -40t8 -78v-167q0 -52 10 -82t29 -43t46 -13q24 0 42 11t30 26.5t18 27.5v370h130v-470h-85l-35 45h-5q-19 -21 -50 -38t-75 -17zM261 499l-106 140h119
l42 -140h-55z" />
    <glyph glyph-name="uacute" unicode="&#xfa;" horiz-adv-x="565" 
d="M255 -10q-62 0 -103.5 19t-61.5 60t-20 105v166q0 45 -12.5 72.5t-57.5 27.5h-10v30h120q35 0 54.5 -12t27.5 -40t8 -78v-167q0 -52 10 -82t29 -43t46 -13q24 0 42 11t30 26.5t18 27.5v370h130v-470h-85l-35 45h-5q-19 -21 -50 -38t-75 -17zM241 500l42 140h119
l-106 -140h-55z" />
    <glyph glyph-name="ucircumflex" unicode="&#xfb;" horiz-adv-x="565" 
d="M255 -10q-62 0 -103.5 19t-61.5 60t-20 105v166q0 45 -12.5 72.5t-57.5 27.5h-10v30h120q35 0 54.5 -12t27.5 -40t8 -78v-167q0 -52 10 -82t29 -43t46 -13q24 0 42 11t30 26.5t18 27.5v370h130v-470h-85l-35 45h-5q-19 -21 -50 -38t-75 -17zM143 530l80 125h130l80 -125
h-60l-85 80l-85 -80h-60z" />
    <glyph glyph-name="udieresis" unicode="&#xfc;" horiz-adv-x="565" 
d="M255 -10q-62 0 -103.5 19t-61.5 60t-20 105v166q0 45 -12.5 72.5t-57.5 27.5h-10v30h120q35 0 54.5 -12t27.5 -40t8 -78v-167q0 -52 10 -82t29 -43t46 -13q24 0 42 11t30 26.5t18 27.5v370h130v-470h-85l-35 45h-5q-19 -21 -50 -38t-75 -17zM366 514q-26 0 -41 16.5
t-15 39.5t15 39.5t41 16.5t41 -16.5t15 -39.5t-15 -39.5t-41 -16.5zM186 514q-26 0 -41 16.5t-15 39.5t15 39.5t41 16.5t41 -16.5t15 -39.5t-15 -39.5t-41 -16.5z" />
    <glyph glyph-name="yacute" unicode="&#xfd;" horiz-adv-x="509" 
d="M92 -200v35q52 0 87 20t57 77l21 54l-180 394q-16 37 -39.5 56.5t-53.5 23.5v20h88q45 0 79 -21.5t51 -58.5l115 -252l122 322h53l-202 -535q-20 -54 -43.5 -83.5t-51.5 -40.5t-63 -11h-40zM258 500l42 140h119l-106 -140h-55z" />
    <glyph glyph-name="thorn" unicode="&#xfe;" horiz-adv-x="542" 
d="M60 -190v720q0 45 -12.5 72.5t-57.5 27.5h-10v30h120q35 0 54.5 -12t27.5 -40t8 -78v-85q17 14 44.5 24.5t69.5 10.5q68 0 112 -31t66 -86t22 -128q0 -72 -22.5 -127.5t-68.5 -86.5t-119 -31q-32 0 -58 6t-46 14v-200h-130zM259 35q36 0 60.5 24t37 69t12.5 107
q0 63 -12.5 107.5t-35 68.5t-52.5 24q-26 0 -45.5 -8.5t-33.5 -21.5v-355q18 -7 36 -11t33 -4z" />
    <glyph glyph-name="ydieresis" unicode="&#xff;" horiz-adv-x="509" 
d="M92 -200v35q52 0 87 20t57 77l21 54l-180 394q-16 37 -39.5 56.5t-53.5 23.5v20h88q45 0 79 -21.5t51 -58.5l115 -252l122 322h53l-202 -535q-20 -54 -43.5 -83.5t-51.5 -40.5t-63 -11h-40zM375 519q-26 0 -41 16.5t-15 39.5t15 39.5t41 16.5t41 -16.5t15 -39.5
t-15 -39.5t-41 -16.5zM195 519q-26 0 -41 16.5t-15 39.5t15 39.5t41 16.5t41 -16.5t15 -39.5t-15 -39.5t-41 -16.5z" />
    <glyph glyph-name="Gbreve" unicode="&#x11e;" horiz-adv-x="734" 
d="M395 -20q-78 0 -143.5 27.5t-114 76.5t-75.5 114.5t-27 141.5q0 96 41 173t115.5 122t173.5 45q94 0 154 -24.5t88 -56.5q20 -25 23 -65t3 -74h-30q-19 92 -70 133.5t-138 41.5q-60 0 -101.5 -24t-68 -66t-38.5 -95t-12 -110q0 -121 29.5 -191t79.5 -99.5t111 -29.5
q45 0 77 7t58 19v178q0 21 6.5 42t26.5 39.5t58.5 29.5t102.5 11v-25q-34 0 -49 -25t-15 -70v-179q-58 -35 -123 -51t-142 -16zM362 729q-49 0 -85.5 26t-55.5 68l28 21q15 -19 43 -34.5t70 -15.5t70 15.5t43 34.5l28 -21q-19 -42 -55.5 -68t-85.5 -26z" />
    <glyph glyph-name="gbreve" unicode="&#x11f;" horiz-adv-x="523" 
d="M259 -200q-70 0 -125.5 14.5t-87.5 48.5t-32 92q0 36 20.5 62t51.5 43t63 25q-19 6 -32 19t-13 36q0 17 10 29.5t30 20.5q-42 15 -71 51.5t-29 82.5q0 58 29 92t77.5 49t108.5 15h210v-27l-90 -12q42 -16 68.5 -49t26.5 -68q0 -57 -26.5 -91t-75 -48.5t-113.5 -14.5
q-45 0 -72.5 -5t-27.5 -25q0 -17 27.5 -21.5t72.5 -5.5q68 -1 123.5 -18.5t88.5 -52t33 -87.5q0 -58 -32 -92t-87.5 -48.5t-125.5 -14.5zM259 -155q50 0 80 26.5t30 83.5q0 45 -28 74t-74 38l-47 5q-33 -14 -52 -41.5t-19 -75.5q0 -57 30 -83.5t80 -26.5zM259 210
q35 0 57.5 26t22.5 88q0 57 -22.5 86.5t-57.5 29.5t-57.5 -27.5t-22.5 -88.5q0 -62 22.5 -88t57.5 -26zM245 531q-49 0 -85.5 26t-55.5 68l28 21q15 -19 43 -34.5t70 -15.5t70 15.5t43 34.5l28 -21q-19 -42 -55.5 -68t-85.5 -26z" />
    <glyph glyph-name="Idotaccent" unicode="&#x130;" horiz-adv-x="304" 
d="M169 0q-35 0 -54.5 11.5t-27.5 40t-8 78.5v530h130v-530q0 -45 12.5 -72.5t57.5 -27.5h10v-30h-120zM149 714q-38 0 -56.5 23t-18.5 53q0 26 16 41t39 15q38 0 56.5 -23t18.5 -53q0 -26 -16 -41t-39 -15z" />
    <glyph glyph-name="dotlessi" unicode="&#x131;" horiz-adv-x="267" 
d="M79 0v340q0 45 -12.5 72.5t-57.5 27.5h-10v30h120q35 0 54.5 -12t27.5 -40t8 -78v-340h-130z" />
    <glyph glyph-name="OE" unicode="&#x152;" horiz-adv-x="957" 
d="M367 -20q-99 0 -173.5 46.5t-115.5 125.5t-41 178t41 178t115.5 125.5t173.5 46.5q42 0 67 -6t48 -14h331q35 0 53 -11.5t25 -30t7 -38.5v-85h-30q0 64 -32.5 92t-92.5 28h-161v-250h260v-45h-260v-275h171q55 0 93.5 24.5t64.5 89.5l27 -10l-29 -79q-11 -32 -28.5 -51
t-58.5 -19h-340q-26 -11 -53.5 -15.5t-61.5 -4.5zM367 25q47 0 85 23v563q-37 24 -85 24q-60 0 -102.5 -35.5t-65 -103.5t-22.5 -166q0 -97 22.5 -165.5t65 -104t102.5 -35.5z" />
    <glyph glyph-name="oe" unicode="&#x153;" horiz-adv-x="857" 
d="M276 -10q-74 0 -128 32.5t-83 88.5t-29 124q0 69 29 124.5t83 88t128 32.5q75 0 128.5 -32.5t82.5 -88t29 -124.5q0 -68 -29 -124t-82.5 -88.5t-128.5 -32.5zM276 35q35 0 58.5 26t35 71.5t11.5 102.5q0 58 -11.5 103t-35 71t-58.5 26t-58.5 -26t-35 -71t-11.5 -103
q0 -57 11.5 -102.5t35 -71.5t58.5 -26zM611 -10q-70 0 -122 32t-80 87.5t-28 125.5q0 80 29 134.5t79 82.5t112 28t112 -25t79 -70t29 -105l-4 -63h-301q0 -99 30.5 -140.5t79.5 -41.5q52 0 84.5 24t58.5 59l31 -23q-14 -22 -37.5 -46.5t-60 -41.5t-91.5 -17zM516 262h170
q0 99 -23.5 136t-61.5 37q-22 0 -41.5 -16t-31.5 -53.5t-12 -103.5z" />
    <glyph glyph-name="Scedilla" unicode="&#x15e;" horiz-adv-x="561" 
d="M273 -17q-41 0 -81 8t-73 23.5t-52.5 38t-19.5 50.5v117h28q16 -104 64.5 -148t132.5 -44q38 0 66.5 11t44 32.5t15.5 53.5q0 43 -27.5 71.5t-75.5 57.5l-123 74q-68 40 -96 82t-28 97q0 79 60.5 125t163.5 46q41 0 81 -8t73 -23.5t52.5 -37.5t19.5 -51v-117h-28
q-17 104 -64 148t-123 44q-36 0 -62.5 -12t-40.5 -33.5t-14 -51.5q0 -42 28.5 -68t75.5 -54l123 -73q68 -40 99.5 -78.5t31.5 -93.5q0 -86 -65 -136t-186 -50zM236 -206v46h50q19 0 29.5 9.5t10.5 22.5q0 14 -10.5 23.5t-29.5 9.5h-45v95h65v-50q42 0 66 -21t24 -57
q0 -35 -24 -56.5t-66 -21.5h-70z" />
    <glyph glyph-name="scedilla" unicode="&#x15f;" horiz-adv-x="468" 
d="M229 -10q-62 0 -101.5 11t-59.5 30q-18 17 -21 49t-3 70h35q8 -48 39 -81.5t91 -33.5q56 0 78 19.5t22 48.5t-26 46.5t-64 34.5l-52 22q-60 26 -94 59t-34 82q0 65 54 99t136 34q62 0 101.5 -11t59.5 -30q18 -17 21 -49t3 -70h-35q-8 48 -39 81.5t-91 33.5
q-45 0 -65 -19.5t-20 -48.5q0 -27 19 -43.5t52 -30.5l60 -25q69 -29 104 -60.5t35 -84.5q0 -65 -58 -99t-147 -34zM186 -186v46h50q19 0 29.5 9.5t10.5 22.5q0 14 -10.5 23.5t-29.5 9.5h-45v95h65v-50q42 0 66 -21t24 -57q0 -35 -24 -56.5t-66 -21.5h-70z" />
    <glyph glyph-name="Scaron" unicode="&#x160;" horiz-adv-x="561" 
d="M273 -17q-41 0 -81 8t-73 23.5t-52.5 38t-19.5 50.5v117h28q16 -104 64.5 -148t132.5 -44q38 0 66.5 11t44 32.5t15.5 53.5q0 43 -27.5 71.5t-75.5 57.5l-123 74q-68 40 -96 82t-28 97q0 79 60.5 125t163.5 46q41 0 81 -8t73 -23.5t52.5 -37.5t19.5 -51v-117h-28
q-17 104 -64 148t-123 44q-36 0 -62.5 -12t-40.5 -33.5t-14 -51.5q0 -42 28.5 -68t75.5 -54l123 -73q68 -40 99.5 -78.5t31.5 -93.5q0 -86 -65 -136t-186 -50zM202 721l-80 125h70l75 -80l75 80h70l-80 -125h-130z" />
    <glyph glyph-name="scaron" unicode="&#x161;" horiz-adv-x="468" 
d="M229 -10q-62 0 -101.5 11t-59.5 30q-18 17 -21 49t-3 70h35q8 -48 39 -81.5t91 -33.5q56 0 78 19.5t22 48.5t-26 46.5t-64 34.5l-52 22q-60 26 -94 59t-34 82q0 65 54 99t136 34q62 0 101.5 -11t59.5 -30q18 -17 21 -49t3 -70h-35q-8 48 -39 81.5t-91 33.5
q-45 0 -65 -19.5t-20 -48.5q0 -27 19 -43.5t52 -30.5l60 -25q69 -29 104 -60.5t35 -84.5q0 -65 -58 -99t-147 -34zM157 520l-80 125h70l75 -80l75 80h70l-80 -125h-130z" />
    <glyph glyph-name="Ydieresis" unicode="&#x178;" horiz-adv-x="638" 
d="M279 0v264l-177 266q-17 26 -39.5 50t-46.5 41t-47 19v20h109q38 0 68.5 -17t54.5 -42t40 -51l136 -205l194 315h65l-227 -369v-291h-130zM442 690q-26 0 -41 16.5t-15 39.5t15 39.5t41 16.5t41 -16.5t15 -39.5t-15 -39.5t-41 -16.5zM272 690q-26 0 -41 16.5t-15 39.5
t15 39.5t41 16.5t41 -16.5t15 -39.5t-15 -39.5t-41 -16.5z" />
    <glyph glyph-name="Zcaron" unicode="&#x17d;" horiz-adv-x="599" 
d="M31 0v32l372 584h-217q-53 0 -84 -27t-31 -94h-30v85q0 20 7 38.5t25.5 30t52.5 11.5h455l-392 -615h387v-45h-545zM250 711l-80 125h70l75 -80l75 80h70l-80 -125h-130z" />
    <glyph glyph-name="zcaron" unicode="&#x17e;" horiz-adv-x="493" 
d="M39 0v31l263 394h-118q-64 0 -89.5 -23t-25.5 -72h-30v60q0 20 7 38.5t25.5 30t52.5 11.5h356l-284 -425h263v-45h-420zM193 520l-80 125h70l75 -80l75 80h70l-80 -125h-130z" />
    <glyph glyph-name="florin" unicode="&#x192;" horiz-adv-x="494" 
d="M101 62v258h-60v45h60v95q0 64 19 105t49.5 64t66.5 32t70 9q45 0 88 -8t62 -27t22 -46.5t3 -53.5h-55q-11 49 -36.5 69.5t-63.5 20.5q-25 0 -46.5 -14t-35 -50t-13.5 -101v-95h130v-45h-130v-258q0 -82 -20.5 -129t-68 -66.5t-129.5 -19.5v25q30 6 49.5 24.5t29 58
t9.5 107.5z" />
    <glyph glyph-name="circumflex" unicode="&#x2c6;" horiz-adv-x="330" 
d="M20 660l80 125h130l80 -125h-60l-85 80l-85 -80h-60z" />
    <glyph glyph-name="caron" unicode="&#x2c7;" horiz-adv-x="330" 
d="M100 520l-80 125h70l75 -80l75 80h70l-80 -125h-130z" />
    <glyph glyph-name="breve" unicode="&#x2d8;" horiz-adv-x="322" 
d="M161 510q-49 0 -85.5 26t-55.5 68l28 21q15 -19 43 -34.5t70 -15.5t70 15.5t43 34.5l28 -21q-19 -42 -55.5 -68t-85.5 -26z" />
    <glyph glyph-name="ring" unicode="&#x2da;" horiz-adv-x="230" 
d="M115 520q-42 0 -68.5 26.5t-26.5 68.5t26.5 68.5t68.5 26.5t68.5 -26.5t26.5 -68.5t-26.5 -68.5t-68.5 -26.5zM115 565q19 0 32 13.5t13 36.5t-13 36.5t-32 13.5t-32 -13.5t-13 -36.5t13 -36.5t32 -13.5z" />
    <glyph glyph-name="tilde" unicode="&#x2dc;" horiz-adv-x="275" 
d="M20 680q0 60 19 80t49 20q23 0 38.5 -10t28 -20t25.5 -10q17 0 26 12.5t9 27.5h40q0 -60 -18.5 -80t-48.5 -20q-22 0 -38 10t-28.5 20t-26.5 10q-17 0 -26 -12.5t-9 -27.5h-40z" />
    <glyph glyph-name="uni0401" unicode="&#x401;" horiz-adv-x="600" 
d="M95 0v530q0 45 -12.5 72.5t-57.5 27.5h-10v30h441q35 0 53 -11.5t25 -30t7 -38.5v-85h-30q0 64 -32.5 92t-92.5 28h-161v-250h260v-45h-260v-275h171q55 0 93.5 24.5t64.5 89.5l27 -10l-29 -79q-11 -32 -28.5 -51t-58.5 -19h-370zM377 730q-26 0 -41 16.5t-15 39.5
t15 39.5t41 16.5t41 -16.5t15 -39.5t-15 -39.5t-41 -16.5zM207 730q-26 0 -41 16.5t-15 39.5t15 39.5t41 16.5t41 -16.5t15 -39.5t-15 -39.5t-41 -16.5z" />
    <glyph glyph-name="uni0402" unicode="&#x402;" horiz-adv-x="638" 
d="M399 -40v25q40 0 62.5 52t22.5 163q0 70 -16 109t-41 55t-53 16q-38 0 -72.5 -10t-57.5 -25v-345h-130v615h-120v45h370v-45h-120v-225q23 15 63.5 27.5t86.5 12.5q47 0 87 -10t69.5 -35.5t46.5 -70.5t17 -114q0 -88 -25.5 -140.5t-73.5 -76t-116 -23.5z" />
    <glyph glyph-name="uni0403" unicode="&#x403;" horiz-adv-x="544" 
d="M95 0v530q0 45 -12.5 72.5t-57.5 27.5h-10v30h429q35 0 53 -11.5t25 -30t7 -38.5v-85h-30q0 65 -32.5 92.5t-92.5 27.5h-149v-615h-130zM229 703l42 140h119l-106 -140h-55z" />
    <glyph glyph-name="uni0404" unicode="&#x404;" horiz-adv-x="679" 
d="M367 -20q-105 0 -179 45t-112.5 122t-38.5 173q0 76 24.5 141.5t69.5 114.5t105 76.5t131 27.5q94 0 151.5 -24.5t85.5 -56.5q20 -26 23 -67t3 -85h-30q-19 91 -69.5 139.5t-133.5 48.5q-57 0 -105.5 -25t-79 -86t-34.5 -169h309v-45h-310q1 -56 14 -107t39 -91
t67.5 -63.5t99.5 -23.5q69 0 128 36.5t95 106.5l35 -27q-47 -83 -115 -122t-173 -39z" />
    <glyph glyph-name="uni0405" unicode="&#x405;" horiz-adv-x="561" 
d="M273 -17q-41 0 -81 8t-73 23.5t-52.5 38t-19.5 50.5v117h28q16 -104 64.5 -148t132.5 -44q38 0 66.5 11t44 32.5t15.5 53.5q0 43 -27.5 71.5t-75.5 57.5l-123 74q-68 40 -96 82t-28 97q0 79 60.5 125t163.5 46q41 0 81 -8t73 -23.5t52.5 -37.5t19.5 -51v-117h-28
q-17 104 -64 148t-123 44q-36 0 -62.5 -12t-40.5 -33.5t-14 -51.5q0 -42 28.5 -68t75.5 -54l123 -73q68 -40 99.5 -78.5t31.5 -93.5q0 -86 -65 -136t-186 -50z" />
    <glyph glyph-name="uni0406" unicode="&#x406;" horiz-adv-x="304" 
d="M169 0q-35 0 -54.5 11.5t-27.5 40t-8 78.5v530h130v-530q0 -45 12.5 -72.5t57.5 -27.5h10v-30h-120z" />
    <glyph glyph-name="uni0407" unicode="&#x407;" horiz-adv-x="304" 
d="M169 0q-35 0 -54.5 11.5t-27.5 40t-8 78.5v530h130v-530q0 -45 12.5 -72.5t57.5 -27.5h10v-30h-120zM61 715q-26 0 -41 16.5t-15 39.5t15 39.5t41 16.5t41 -16.5t15 -39.5t-15 -39.5t-41 -16.5zM227 715q-26 0 -41 16.5t-15 39.5t15 39.5t41 16.5t41 -16.5t15 -39.5
t-15 -39.5t-41 -16.5z" />
    <glyph glyph-name="uni0408" unicode="&#x408;" horiz-adv-x="278" 
d="M-19 -137v30q30 4 51 21.5t31.5 57.5t10.5 111v577h130v-577q0 -86 -18 -134t-66.5 -67t-138.5 -19z" />
    <glyph glyph-name="uni0409" unicode="&#x409;" horiz-adv-x="988" 
d="M52 -15q-19 0 -34 2.5t-26 6.5v31q25 5 48.5 20.5t43.5 47.5t35 87.5t23 141t8 208.5q0 45 -12 72.5t-57 27.5h-10v30h525v-270h90q50 0 100.5 -8.5t92.5 -30.5t67 -59.5t25 -96.5q0 -58 -25 -96t-67 -60t-92.5 -30.5t-100.5 -8.5h-220v615h-206v-85q0 -127 -10 -220
t-28.5 -155.5t-44.5 -100t-57.5 -53.5t-67.5 -16zM671 40q82 0 121 40t39 115t-39 115t-121 40q-22 0 -37 -2.5t-38 -7.5v-290q14 -4 34.5 -7t40.5 -3z" />
    <glyph glyph-name="uni040A" unicode="&#x40a;" horiz-adv-x="1004" 
d="M95 0v530q0 45 -12.5 72.5t-57.5 27.5h-10v30h120q35 0 54.5 -12t27.5 -40t8 -78v-165h251v295h130v-290h89q54 0 106.5 -8.5t95 -29.5t68 -57t25.5 -90t-25.5 -90t-68 -57t-95 -29.5t-106.5 -8.5h-219v320h-251v-320h-130zM680 40q90 0 130 38.5t40 106.5t-40 106.5
t-130 38.5q-31 0 -50.5 -4t-24.5 -6v-270q11 -3 31 -6.5t44 -3.5z" />
    <glyph glyph-name="uni040B" unicode="&#x40b;" horiz-adv-x="650" 
d="M114 0v615h-120v45h370v-45h-120v-225q23 15 63.5 27.5t86.5 12.5q39 0 78 -8t71 -27.5t51.5 -55t19.5 -89.5v-250h-130v250q0 50 -14 78t-38.5 40t-57.5 12q-38 0 -72.5 -10t-57.5 -25v-345h-130z" />
    <glyph glyph-name="uni040C" unicode="&#x40c;" horiz-adv-x="693" 
d="M631 -10q-37 0 -75 9t-79.5 35t-89.5 76l-161 168v-278h-130l-1 530q0 45 -12.5 72.5t-57.5 27.5h-10v30h120q35 0 54.5 -12t28 -40t8.5 -78v-190l173 215q22 28 48 52t58 38.5t71 14.5h70v-35q-57 0 -103 -14.5t-80 -56.5l-149 -184l231 -240q25 -27 54.5 -50.5
t57.5 -38t47 -17.5v-24q-11 -4 -30.5 -7t-42.5 -3zM287 675l42 140h119l-106 -140h-55z" />
    <glyph glyph-name="uni040E" unicode="&#x40e;" horiz-adv-x="618" 
d="M142 -10v36q30 0 59 5t53 20t37 44l7 15l-205 420q-14 32 -33 56t-42 38t-49 16v20h100q38 0 69.5 -14t55.5 -39t38 -57l138 -282l177 392h65l-256 -565q-21 -49 -62.5 -77t-101.5 -28h-50zM346 695q-49 0 -85.5 26t-55.5 68l28 21q15 -19 43 -34.5t70 -15.5t70 15.5
t43 34.5l28 -21q-19 -42 -55.5 -68t-85.5 -26z" />
    <glyph glyph-name="uni040F" unicode="&#x40f;" horiz-adv-x="689" 
d="M320 -175l-15 175h-210v530q0 45 -12.5 72.5t-57.5 27.5h-10v30h120q35 0 54.5 -12t27.5 -40t8 -78v-485h260v615h130v-660h-210l-15 -175h-70z" />
    <glyph glyph-name="uni0410" unicode="&#x410;" horiz-adv-x="647" 
d="M628 -4q-33 0 -69.5 8.5t-70 36.5t-57.5 85l-23 56h-266l-82 -182h-52l295 660h45l224 -534q18 -44 44 -70t60 -30v-25q-8 -2 -22.5 -3.5t-25.5 -1.5zM163 227h226l-110 261z" />
    <glyph glyph-name="uni0411" unicode="&#x411;" horiz-adv-x="635" 
d="M95 0v530q0 45 -12.5 72.5t-57.5 27.5h-10v30h439q35 0 53 -11.5t25 -30t7 -38.5v-85h-30q0 65 -32.5 92.5t-92.5 27.5h-159v-235h90q54 0 106.5 -7.5t95 -27.5t68 -57.5t25.5 -97.5t-25.5 -97.5t-68 -57.5t-95 -27.5t-106.5 -7.5h-220zM300 40q90 0 130 35.5t40 114.5
t-40 114.5t-130 35.5q-22 0 -37 -2.5t-38 -7.5v-280q11 -3 31 -6.5t44 -3.5z" />
    <glyph glyph-name="uni0412" unicode="&#x412;" horiz-adv-x="644" 
d="M95 0v530q0 45 -12.5 72.5t-57.5 27.5h-10v30h270q47 0 98.5 -5.5t96 -23t72.5 -52.5t28 -94q0 -43 -34.5 -84.5t-104.5 -59.5q66 -6 102.5 -29t51.5 -56.5t15 -72.5q0 -57 -25.5 -93t-68.5 -55.5t-95.5 -27t-105.5 -7.5h-220zM300 40q83 0 126.5 36t43.5 102
q0 69 -42.5 103.5t-127.5 34.5h-75v-266q11 -3 31 -6.5t44 -3.5zM225 361h75q41 0 72.5 12.5t49.5 41t18 75.5q0 50 -22.5 78t-58 40t-74.5 12q-11 0 -24.5 -1t-35.5 -6v-252z" />
    <glyph glyph-name="uni0413" unicode="&#x413;" horiz-adv-x="544" 
d="M95 0v530q0 45 -12.5 72.5t-57.5 27.5h-10v30h429q35 0 53 -11.5t25 -30t7 -38.5v-85h-30q0 65 -32.5 92.5t-92.5 27.5h-149v-615h-130z" />
    <glyph glyph-name="uni0414" unicode="&#x414;" horiz-adv-x="694" 
d="M-1 -184v194q0 15 10 25t25 10h35q49 106 67 227.5t18 257.5q0 45 -12.5 72.5t-57.5 27.5h-10v30h529v-615h35q15 0 25 -10t10 -25v-194h-50q-8 72 -23.5 112t-40.5 56t-61 16h-324q-36 0 -61 -16t-40.5 -56t-23.5 -112h-50zM173 45h300v570h-220q0 -136 -7.5 -238.5
t-25 -182.5t-47.5 -149z" />
    <glyph glyph-name="uni0415" unicode="&#x415;" horiz-adv-x="600" 
d="M95 0v530q0 45 -12.5 72.5t-57.5 27.5h-10v30h441q35 0 53 -11.5t25 -30t7 -38.5v-85h-30q0 64 -32.5 92t-92.5 28h-161v-250h260v-45h-260v-275h171q55 0 93.5 24.5t64.5 89.5l27 -10l-29 -79q-11 -32 -28.5 -51t-58.5 -19h-370z" />
    <glyph glyph-name="uni0416" unicode="&#x416;" horiz-adv-x="989" 
d="M54 -10q-22 0 -37.5 3t-26.5 7v24q30 5 71.5 33.5t78.5 72.5l201 240l-139 184q-34 41 -71 56t-102 15v35h60q60 0 102.5 -31.5t74.5 -73.5l163 -215v320h131v-320l163 215q32 42 74.5 73.5t102.5 31.5h60v-35q-64 0 -101.5 -15t-71.5 -56l-139 -184l201 -240
q37 -44 78.5 -72.5t71.5 -33.5v-24q-11 -4 -26.5 -7t-37.5 -3q-42 0 -82 9.5t-79.5 37.5t-82.5 83l-131 165v-285h-131v285l-131 -165q-43 -55 -82.5 -83t-79 -37.5t-82.5 -9.5z" />
    <glyph glyph-name="uni0417" unicode="&#x417;" horiz-adv-x="580" 
d="M280 -20q-91 0 -153.5 33.5t-107.5 101.5l30 25q23 -30 51.5 -56t66.5 -42.5t88 -16.5q64 0 109 36t45 104q0 72 -45.5 111t-124.5 39h-85v45h85q36 0 70.5 15t57 46.5t22.5 78.5q0 48 -21 78t-50.5 43.5t-57.5 13.5q-68 0 -114.5 -45t-65.5 -120h-31q0 45 3 81t22 59
q18 22 49.5 37.5t69 24t72.5 8.5q45 0 90.5 -6.5t84 -25t61.5 -53t23 -90.5q0 -32 -17.5 -64.5t-52 -58t-84.5 -37.5q66 -8 105 -35t56.5 -64.5t17.5 -75.5q0 -54 -24.5 -90.5t-65 -58.5t-87.5 -31.5t-92 -9.5z" />
    <glyph glyph-name="uni0418" unicode="&#x418;" horiz-adv-x="709" 
d="M95 0v530q0 45 -12.5 72.5t-57.5 27.5h-10v30h120q35 0 54.5 -12t27.5 -40t8 -78v-400l290 530h120v-660h-130v530l-290 -530h-120z" />
    <glyph glyph-name="uni0419" unicode="&#x419;" horiz-adv-x="709" 
d="M95 0v530q0 45 -12.5 72.5t-57.5 27.5h-10v30h120q35 0 54.5 -12t27.5 -40t8 -78v-400l290 530h120v-660h-130v530l-290 -530h-120zM369 700q-49 0 -85.5 26t-55.5 68l28 21q15 -19 43 -34.5t70 -15.5t70 15.5t43 34.5l28 -21q-19 -42 -55.5 -68t-85.5 -26z" />
    <glyph glyph-name="uni041A" unicode="&#x41a;" horiz-adv-x="693" 
d="M631 -10q-37 0 -75 9t-79.5 35t-89.5 76l-161 168v-278h-130l-1 530q0 45 -12.5 72.5t-57.5 27.5h-10v30h120q35 0 54.5 -12t28 -40t8.5 -78v-190l173 215q22 28 48 52t58 38.5t71 14.5h70v-35q-57 0 -103 -14.5t-80 -56.5l-149 -184l231 -240q25 -27 54.5 -50.5
t57.5 -38t47 -17.5v-24q-11 -4 -30.5 -7t-42.5 -3z" />
    <glyph glyph-name="uni041B" unicode="&#x41b;" horiz-adv-x="679" 
d="M52 -15q-19 0 -34 2.5t-26 6.5v31q25 5 48.5 20.5t43.5 47.5t35 87.5t23 141t8 208.5q0 45 -12.5 72.5t-57.5 27.5h-10v30h535v-660h-130v615h-216v-85q0 -127 -10 -220t-28.5 -155.5t-44 -100t-57 -53.5t-67.5 -16z" />
    <glyph glyph-name="uni041C" unicode="&#x41c;" horiz-adv-x="867" 
d="M847 -45q-72 0 -117 22.5t-65.5 70t-20.5 122.5v354l-219 -524h-33l-268 544v-544h-50v660h122l242 -491l205 491h131v-490q0 -91 15.5 -136.5t57.5 -53.5v-25z" />
    <glyph glyph-name="uni041D" unicode="&#x41d;" horiz-adv-x="720" 
d="M95 0v530q0 45 -12.5 72.5t-57.5 27.5h-10v30h120q35 0 54.5 -12t27.5 -40t8 -78v-165h270v295h130v-530q0 -45 12.5 -72.5t57.5 -27.5h10v-30h-120q-35 0 -54.5 11.5t-27.5 40t-8 78.5v190h-270v-320h-130z" />
    <glyph glyph-name="uni041E" unicode="&#x41e;" horiz-adv-x="733" 
d="M367 -20q-99 0 -173.5 46.5t-115.5 125.5t-41 178t41 178t115.5 125.5t173.5 46.5q100 0 173.5 -46.5t114.5 -125.5t41 -178t-41 -178t-114.5 -125.5t-173.5 -46.5zM367 25q61 0 103.5 35.5t65 104t22.5 165.5q0 98 -22.5 166t-65 103.5t-103.5 35.5q-60 0 -102.5 -35.5
t-65 -103.5t-22.5 -166q0 -97 22.5 -165.5t65 -104t102.5 -35.5z" />
    <glyph glyph-name="uni041F" unicode="&#x41f;" horiz-adv-x="689" 
d="M95 0v530q0 45 -12.5 72.5t-57.5 27.5h-10v30h600v-660h-130v615h-260v-615h-130z" />
    <glyph glyph-name="uni0420" unicode="&#x420;" horiz-adv-x="577" 
d="M95 0v530q0 45 -12.5 72.5t-57.5 27.5h-10v30h275q27 0 62 -3.5t71.5 -14.5t67.5 -33t50 -58.5t19 -91.5q0 -52 -19 -86.5t-48.5 -55.5t-62.5 -32t-62.5 -14.5t-47.5 -3.5h-95v-267h-130zM225 307h60q26 0 50 7t43 25t30.5 48.5t11.5 76.5t-11.5 76.5t-30 48t-41.5 24.5
t-47 7q-11 0 -26.5 -1t-38.5 -6v-306z" />
    <glyph glyph-name="uni0421" unicode="&#x421;" horiz-adv-x="679" 
d="M367 -20q-105 0 -179 45t-112.5 122t-38.5 173q0 76 24.5 141.5t69.5 114.5t105 76.5t131 27.5q94 0 151.5 -24.5t85.5 -56.5q20 -26 23 -67t3 -85h-30q-19 91 -69.5 139.5t-133.5 48.5q-61 0 -111 -28t-79.5 -96.5t-29.5 -190.5q0 -57 12 -110t38.5 -95t68 -66
t101.5 -24q69 0 128 36.5t95 106.5l35 -27q-47 -83 -115 -122t-173 -39z" />
    <glyph glyph-name="uni0422" unicode="&#x422;" horiz-adv-x="575" 
d="M232 0v615h-71q-53 0 -84 -26.5t-31 -93.5h-30v85q0 20 7 38.5t25.5 30t52.5 11.5h470v-45h-209v-615h-130z" />
    <glyph glyph-name="uni0423" unicode="&#x423;" horiz-adv-x="618" 
d="M142 -10v36q30 0 59 5t53 20t37 44l7 15l-205 420q-14 32 -33 56t-42 38t-49 16v20h100q38 0 69.5 -14t55.5 -39t38 -57l138 -282l177 392h65l-256 -565q-21 -49 -62.5 -77t-101.5 -28h-50z" />
    <glyph glyph-name="uni0424" unicode="&#x424;" horiz-adv-x="821" 
d="M346 -40v75q-157 0 -238.5 76.5t-81.5 203.5q0 128 81.5 204t238.5 76q0 18 -5 35t-20 28.5t-45 11.5h-10v30h120q52 0 71 -24t19 -81q158 0 239 -76t81 -204q0 -127 -81 -203.5t-239 -76.5v-75h-130zM346 80v470q-60 0 -100 -31.5t-60 -84.5t-20 -119t20 -119t60 -84.5
t100 -31.5zM476 80q60 0 100 31.5t60 84.5t20 119t-20 119t-60 84.5t-100 31.5v-470z" />
    <glyph glyph-name="uni0425" unicode="&#x425;" horiz-adv-x="647" 
d="M17 0l246 311l-142 219q-16 26 -39 50.5t-47.5 41t-47.5 18.5v20h110q38 0 68.5 -17t54.5 -42t40 -51l87 -134l193 244h65l-229 -289l157 -241q17 -26 39.5 -50.5t47.5 -40.5t47 -19v-20h-110q-37 0 -68 17t-55 42.5t-40 50.5l-101 156l-211 -266h-65z" />
    <glyph glyph-name="uni0426" unicode="&#x426;" horiz-adv-x="706" 
d="M635 -185q-8 73 -23.5 113t-40.5 56t-61 16h-415v530q0 45 -12.5 72.5t-57.5 27.5h-10v30h120q35 0 54.5 -12t27.5 -40t8 -78v-485h260v615h130v-615h35q15 0 25 -10t10 -25v-195h-50z" />
    <glyph glyph-name="uni0427" unicode="&#x427;" horiz-adv-x="663" 
d="M459 0v260q-23 -10 -57.5 -15t-71.5 -5q-60 0 -107 13t-79 40t-48.5 68.5t-16.5 98.5v70q0 45 -12.5 72.5t-57.5 27.5h-10v30h120q35 0 54.5 -12t27.5 -40t8 -78v-80q0 -55 18.5 -92t50 -55t71.5 -18q31 0 59 5.5t51 14.5v355h130v-660h-130z" />
    <glyph glyph-name="uni0428" unicode="&#x428;" horiz-adv-x="949" 
d="M95 0v530q0 45 -12.5 72.5t-57.5 27.5h-10v30h120q35 0 54.5 -12t27.5 -40t8 -78v-485h195v615h130v-615h195v615h130v-660h-780z" />
    <glyph glyph-name="uni0429" unicode="&#x429;" horiz-adv-x="966" 
d="M895 -185q-8 73 -23.5 113t-40.5 56t-61 16h-675v530q0 45 -12.5 72.5t-57.5 27.5h-10v30h120q35 0 54.5 -12t27.5 -40t8 -78v-485h195v615h130v-615h195v615h130v-615h35q15 0 25 -10t10 -25v-195h-50z" />
    <glyph glyph-name="uni042A" unicode="&#x42a;" horiz-adv-x="722" 
d="M190 0v615h-11q-57 0 -84 -36t-31 -119h-40v165q0 15 10 25t25 10h261v-270h90q54 0 106.5 -8.5t95 -30.5t68 -59.5t25.5 -96.5q0 -58 -25.5 -96t-68 -60t-95 -30.5t-106.5 -8.5h-220zM395 40q90 0 130 40t40 115t-40 115t-130 40q-22 0 -37 -2.5t-38 -7.5v-290
q11 -3 31 -6.5t44 -3.5z" />
    <glyph glyph-name="uni042B" unicode="&#x42b;" horiz-adv-x="894" 
d="M95 0v530q0 45 -12.5 72.5t-57.5 27.5h-10v30h120q35 0 54.5 -12t27.5 -40t8 -78v-140h80q54 0 106.5 -8.5t95 -30.5t68 -59.5t25.5 -96.5q0 -58 -25.5 -96t-68 -60t-95 -30.5t-106.5 -8.5h-210zM290 40q90 0 130 40t40 115t-40 115t-130 40q-16 0 -30 -2.5t-35 -7.5
v-290q10 -4 31 -7t34 -3zM759 0q-35 0 -54.5 11.5t-27.5 40t-8 78.5v530h130v-530q0 -45 12.5 -72.5t57.5 -27.5h10v-30h-120z" />
    <glyph glyph-name="uni042C" unicode="&#x42c;" horiz-adv-x="627" 
d="M95 0v530q0 45 -12.5 72.5t-57.5 27.5h-10v30h120q35 0 54.5 -12t27.5 -40t8 -78v-140h90q54 0 106.5 -8.5t95 -30.5t68 -59.5t25.5 -96.5q0 -58 -25.5 -96t-68 -60t-95 -30.5t-106.5 -8.5h-220zM300 40q90 0 130 40t40 115t-40 115t-130 40q-22 0 -37 -2.5t-38 -7.5
v-290q11 -3 31 -6.5t44 -3.5z" />
    <glyph glyph-name="uni042D" unicode="&#x42d;" horiz-adv-x="680" 
d="M313 -20q-105 0 -173 39t-115 122l35 27q36 -70 95 -106.5t128 -36.5q58 0 99.5 23.5t67.5 63.5t39 91t14 107h-310v45h309q-4 108 -34.5 169t-78.5 86t-106 25q-83 0 -133.5 -48.5t-69.5 -139.5h-30q0 44 3 85t23 67q28 32 85.5 56.5t151.5 24.5q71 0 131 -27.5
t105 -76.5t69.5 -114.5t24.5 -141.5q0 -96 -38.5 -173t-112 -122t-179.5 -45z" />
    <glyph glyph-name="uni042E" unicode="&#x42e;" horiz-adv-x="917" 
d="M580 -20q-82 0 -149.5 42.5t-108 119.5t-42.5 178h-55v-320h-130v530q0 45 -12.5 72.5t-57.5 27.5h-10v30h120q35 0 54.5 -12t27.5 -40t8 -78v-165h56q8 95 49 165.5t105.5 110t144.5 39.5q85 0 152.5 -44t107 -123t39.5 -183t-39.5 -183t-107 -123t-152.5 -44zM580 25
q46 0 82 34t57.5 101.5t21.5 169.5t-21.5 169.5t-57.5 101.5t-82 34t-82 -34t-57 -101.5t-21 -169.5t21 -169.5t57 -101.5t82 -34z" />
    <glyph glyph-name="uni042F" unicode="&#x42f;" horiz-adv-x="627" 
d="M77 -16q-19 0 -39.5 3t-28.5 7v25q23 5 53.5 26.5t70.5 83.5l95 151q-37 8 -74.5 30.5t-62.5 60t-25 90.5q0 49 17.5 83.5t46.5 57t64.5 35.5t72.5 18t69 5h276v-30h-10q-45 0 -57.5 -27.5t-12.5 -72.5v-530h-131v272h-44l-90 -143q-51 -81 -96 -113t-94 -32zM341 312
h31.5h28.5v301q-25 5 -40.5 6t-24.5 1q-22 0 -45 -9.5t-42 -28.5t-31 -48t-12 -68q0 -40 12 -69t31.5 -48t43.5 -28t48 -9z" />
    <glyph glyph-name="uni0430" unicode="&#x430;" horiz-adv-x="496" 
d="M199 -10q-42 0 -73.5 10t-53 27.5t-32.5 42.5t-11 55q0 48 22.5 81.5t81.5 51t166 17.5h15q0 60 -11 95t-32.5 50t-51.5 15q-34 0 -61 -17t-39 -73h-55q0 26 3.5 53t21.5 47t59.5 27.5t90.5 7.5t87 -13t64.5 -39t40 -65.5t13.5 -92.5v-270h-85l-35 45h-5q-13 -21 -44 -38
t-76 -17zM229 40q33 0 55 22t30 43v125h-15q-72 0 -103.5 -26t-31.5 -79q0 -42 17.5 -63.5t47.5 -21.5z" />
    <glyph glyph-name="uni0431" unicode="&#x431;" horiz-adv-x="545" 
d="M275 -10q-70 0 -121.5 29t-80 85t-28.5 136v30q0 96 12.5 158.5t36 99.5t56 56.5t71.5 28.5l139 32q42 10 66.5 20.5t28.5 29.5h30v-80q0 -19 -11.5 -38t-48.5 -27l-164 -37q-40 -9 -73.5 -33t-54 -65.5t-23.5 -104.5h5q23 60 65.5 95t114.5 35q60 0 107.5 -24t75 -73.5
t27.5 -127.5q0 -77 -28.5 -127t-80 -74t-121.5 -24zM275 35q20 0 42 15t37.5 54t15.5 111q0 70 -15.5 109t-37.5 55t-42 16t-42 -16t-37.5 -55t-15.5 -109q0 -72 15.5 -111t37.5 -54t42 -15z" />
    <glyph glyph-name="uni0432" unicode="&#x432;" horiz-adv-x="524" 
d="M74 0v340q0 45 -12.5 72.5t-57.5 27.5h-5v30h268q60 0 105.5 -13.5t71 -40t25.5 -66.5q0 -45 -33.5 -71t-93.5 -34q64 -8 105.5 -37t41.5 -78q0 -45 -26 -74t-75.5 -42.5t-120.5 -13.5h-193zM249 40q45 0 75 22.5t30 67.5q0 48 -31 71.5t-84 23.5h-35v-178q11 -4 24 -5.5
t21 -1.5zM204 270h35q38 0 66.5 21t28.5 59q0 42 -27.5 61t-57.5 19q-8 0 -21 -1.5t-24 -5.5v-153z" />
    <glyph glyph-name="uni0433" unicode="&#x433;" horiz-adv-x="440" 
d="M74 0v340q0 45 -12.5 72.5t-57.5 27.5h-5v30h345q45 0 60 -25t15 -55v-70h-30q0 57 -25 81t-70 24h-90v-425h-130z" />
    <glyph glyph-name="uni0434" unicode="&#x434;" horiz-adv-x="583" 
d="M9 -160v170q0 15 10 25t25 10h36q23 50 36 103t18.5 105t5.5 97q0 38 -13 64t-62 26v30h445v-425h30q15 0 25 -10t10 -25v-170h-50q-5 66 -19.5 100.5t-37.5 47t-55 12.5h-242q-32 0 -55 -12.5t-37 -47t-20 -100.5h-50zM184 45h196v380h-141q0 -128 -12.5 -216.5
t-42.5 -163.5z" />
    <glyph glyph-name="uni0435" unicode="&#x435;" horiz-adv-x="509" 
d="M267 -10q-70 0 -122 32t-80 87.5t-28 125.5q0 80 29 134.5t79 82.5t112 28t112 -25t79 -70t29 -105l-4 -63h-301q0 -99 30.5 -140.5t79.5 -41.5q52 0 84.5 24t58.5 59l31 -23q-14 -22 -37.5 -46.5t-60 -41.5t-91.5 -17zM172 262h170q0 99 -23.5 136t-61.5 37
q-22 0 -41.5 -16t-31.5 -53.5t-12 -103.5z" />
    <glyph glyph-name="uni0436" unicode="&#x436;" horiz-adv-x="740" 
d="M70 -10q-19 0 -40 3t-29 7v24q21 5 44.5 23t48.5 53l124 176l-88 118q-20 27 -45 38.5t-55 11.5v26h20q53 0 84 -19.5t60 -57.5l111 -148v225h130v-225l111 148q29 38 60 57.5t84 19.5h20v-26q-30 0 -55 -11.5t-45 -38.5l-88 -118l124 -176q25 -35 48.5 -53t44.5 -23v-24
q-8 -4 -29 -7t-40 -3q-42 0 -78 19.5t-71 70.5l-86 123v-203h-130v203l-86 -123q-35 -51 -71 -70.5t-78 -19.5z" />
    <glyph glyph-name="uni0437" unicode="&#x437;" horiz-adv-x="460" 
d="M215 -10q-71 0 -115 23t-70 57l30 25q14 -18 43.5 -39t81.5 -21q45 0 75 20.5t30 69.5q0 47 -25 71t-95 24h-50v45h50q60 0 82.5 20t22.5 65t-27.5 65t-62.5 20q-45 0 -76 -30.5t-34 -79.5h-30q0 42 3 71.5t22 48.5t57 27t83 8q60 0 105 -14t70 -42.5t25 -73.5t-33 -73.5
t-87 -36.5q62 -8 98.5 -39t36.5 -76q0 -48 -26 -78t-73 -43.5t-111 -13.5z" />
    <glyph glyph-name="uni0438" unicode="&#x438;" horiz-adv-x="569" 
d="M79 0v340q0 45 -12.5 72.5t-57.5 27.5h-10v30h120q35 0 54.5 -12t27.5 -40t8 -78v-215l180 345h120v-470h-130v345l-180 -345h-120z" />
    <glyph glyph-name="uni0439" unicode="&#x439;" horiz-adv-x="569" 
d="M79 0v340q0 45 -12.5 72.5t-57.5 27.5h-10v30h120q35 0 54.5 -12t27.5 -40t8 -78v-215l180 345h120v-470h-130v345l-180 -345h-120zM285 510q-49 0 -85.5 26t-55.5 68l28 21q15 -19 43 -34.5t70 -15.5t70 15.5t43 34.5l28 -21q-19 -42 -55.5 -68t-85.5 -26z" />
    <glyph glyph-name="uni043A" unicode="&#x43a;" horiz-adv-x="524" 
d="M454 -10q-42 0 -79 17.5t-70 62.5l-96 126v-196h-130v340q0 45 -12.5 72.5t-57.5 27.5h-10v30h120q35 0 54.5 -12t27.5 -40t8 -78v-95l121 148q31 37 61 57t83 20h20v-26q-30 0 -54 -12t-46 -38l-97 -118l133 -176q26 -35 49 -53t44 -23v-24q-8 -4 -29 -7t-40 -3z" />
    <glyph glyph-name="uni043B" unicode="&#x43b;" horiz-adv-x="567" 
d="M66 -15q-16 0 -34 3t-26 6v29q26 4 48.5 19.5t40 50.5t27.5 97.5t10 159.5q0 38 -13.5 64t-61.5 26v30h450v-470h-130v425h-141v-75q0 -101 -12.5 -171t-35 -112.5t-53.5 -62t-69 -19.5z" />
    <glyph glyph-name="uni043C" unicode="&#x43c;" horiz-adv-x="666" 
d="M664 -25q-109 0 -156 48.5t-47 146.5v174l-144 -344h-33l-174 354v-353h-50v469h122l148 -301l130 311h131v-310q0 -55 7 -91t23 -55t43 -24v-25z" />
    <glyph glyph-name="uni043D" unicode="&#x43d;" horiz-adv-x="578" 
d="M79 0v340q0 45 -12.5 72.5t-57.5 27.5h-10v30h120q35 0 54.5 -12t27.5 -40t8 -78v-80h160v210h130v-340q0 -45 12.5 -72.5t57.5 -27.5h10v-30h-120q-35 0 -54.5 11.5t-27.5 40t-8 78.5v85h-160v-215h-130z" />
    <glyph glyph-name="uni043E" unicode="&#x43e;" horiz-adv-x="552" 
d="M276 -10q-74 0 -128 32.5t-83 88.5t-29 124q0 69 29 124.5t83 88t128 32.5q75 0 128.5 -32.5t82.5 -88t29 -124.5q0 -68 -29 -124t-82.5 -88.5t-128.5 -32.5zM276 35q35 0 58.5 26t35 71.5t11.5 102.5q0 58 -11.5 103t-35 71t-58.5 26t-58.5 -26t-35 -71t-11.5 -103
q0 -57 11.5 -102.5t35 -71.5t58.5 -26z" />
    <glyph glyph-name="uni043F" unicode="&#x43f;" horiz-adv-x="554" 
d="M74 0v340q0 45 -12.5 72.5t-57.5 27.5h-5v30h495v-470h-130v425h-160v-425h-130z" />
    <glyph glyph-name="uni0440" unicode="&#x440;" horiz-adv-x="567" 
d="M80 -190v530q0 45 -12 72.5t-57 27.5h-10v30h99q34 0 53.5 -9t30.5 -33q18 16 51 34t85 18q70 0 116.5 -32.5t70 -88t23.5 -124.5q0 -68 -23.5 -124t-71 -88.5t-120.5 -32.5q-33 0 -61.5 9.5t-43.5 20.5v-210h-130zM295 35q38 0 59.5 26t31 71.5t9.5 102.5q0 58 -9.5 103
t-30 71t-55.5 26q-34 0 -55 -11t-35 -23v-336q12 -10 36 -20t49 -10z" />
    <glyph glyph-name="uni0441" unicode="&#x441;" horiz-adv-x="496" 
d="M276 -10q-80 0 -133.5 33.5t-80 89.5t-26.5 122q0 67 26.5 122.5t80 89t133.5 33.5q57 0 96.5 -8t58.5 -27t22 -51t3 -89h-30q-4 64 -39.5 97t-95.5 33q-36 0 -63 -21.5t-42 -66t-15 -112.5q0 -66 14 -110.5t41.5 -67t69.5 -22.5q52 0 84.5 24t58.5 59l31 -23
q-14 -22 -37.5 -46.5t-61 -41.5t-95.5 -17z" />
    <glyph glyph-name="uni0442" unicode="&#x442;" horiz-adv-x="467" 
d="M177 0v425h-30q-45 0 -70 -24t-25 -81h-30v70q0 30 15 55t60 25h361v-45h-151v-425h-130z" />
    <glyph glyph-name="uni0443" unicode="&#x443;" horiz-adv-x="509" 
d="M92 -200v35q52 0 87 20t57 77l21 54l-180 394q-16 37 -39.5 56.5t-53.5 23.5v20h88q45 0 79 -21.5t51 -58.5l115 -252l122 322h53l-202 -535q-20 -54 -43.5 -83.5t-51.5 -40.5t-63 -11h-40z" />
    </font>
</defs>
</svg>
